<?xml version="1.0" encoding="UTF-8"?>
<svg id="Layer_1" data-name="Layer 1" xmlns="http://www.w3.org/2000/svg" viewBox="0 0 191.82 355.81">
  <defs>
    <style>
      .cls-1 {
        fill: #1b1b1b;
      }

      .cls-1, .cls-2, .cls-3, .cls-4, .cls-5, .cls-6, .cls-7, .cls-8, .cls-9, .cls-10, .cls-11, .cls-12, .cls-13, .cls-14, .cls-15, .cls-16, .cls-17, .cls-18, .cls-19, .cls-20, .cls-21, .cls-22, .cls-23, .cls-24, .cls-25, .cls-26, .cls-27, .cls-28, .cls-29, .cls-30, .cls-31, .cls-32, .cls-33, .cls-34, .cls-35, .cls-36, .cls-37, .cls-38, .cls-39, .cls-40, .cls-41, .cls-42, .cls-43, .cls-44, .cls-45, .cls-46, .cls-47, .cls-48, .cls-49, .cls-50, .cls-51, .cls-52, .cls-53, .cls-54, .cls-55, .cls-56, .cls-57, .cls-58, .cls-59, .cls-60, .cls-61, .cls-62 {
        stroke-width: 0px;
      }

      .cls-2 {
        fill: #ecebe7;
      }

      .cls-3 {
        fill: #f0efea;
      }

      .cls-4 {
        fill: #282727;
      }

      .cls-5 {
        fill: #323131;
      }

      .cls-6 {
        fill: #ceccca;
      }

      .cls-7 {
        fill: #e7e6e1;
      }

      .cls-8 {
        fill: #1f1e1e;
      }

      .cls-9 {
        fill: #eae9e4;
      }

      .cls-10 {
        fill: #222;
      }

      .cls-11 {
        fill: #212020;
      }

      .cls-12 {
        fill: #252524;
      }

      .cls-13 {
        fill: #252525;
      }

      .cls-14 {
        fill: #e8e7e2;
      }

      .cls-15 {
        fill: #2a2a29;
      }

      .cls-16 {
        fill: #171717;
      }

      .cls-17 {
        fill: #eae9e5;
      }

      .cls-18 {
        fill: #e5e4e0;
      }

      .cls-19 {
        fill: #1a1a1a;
      }

      .cls-20 {
        fill: #edebe7;
      }

      .cls-21 {
        fill: #e0dfda;
      }

      .cls-22 {
        fill: #eeede9;
      }

      .cls-23 {
        fill: #d9d8d4;
      }

      .cls-24 {
        fill: #2e2d2d;
      }

      .cls-25 {
        fill: #efede9;
      }

      .cls-26 {
        fill: #b8b6b4;
      }

      .cls-27 {
        fill: #232222;
      }

      .cls-28 {
        fill: #2b2a2a;
      }

      .cls-29 {
        fill: #373737;
      }

      .cls-30 {
        fill: #e9e8e3;
      }

      .cls-31 {
        fill: #bdbbb9;
      }

      .cls-32 {
        fill: #dcdbd7;
      }

      .cls-33 {
        fill: #cdcbc8;
      }

      .cls-34 {
        fill: #f1f0eb;
      }

      .cls-35 {
        fill: #ebeae5;
      }

      .cls-36 {
        fill: #3b3a39;
      }

      .cls-37 {
        fill: #1f1f1f;
      }

      .cls-38 {
        fill: #ecebe6;
      }

      .cls-39 {
        fill: #2c2b2b;
      }

      .cls-40 {
        fill: #eae8e4;
      }

      .cls-41 {
        fill: #efeeea;
      }

      .cls-42 {
        fill: #302f2f;
      }

      .cls-43 {
        fill: #262525;
      }

      .cls-44 {
        fill: #2f2e2e;
      }

      .cls-45 {
        fill: #1d1c1c;
      }

      .cls-46 {
        fill: #eeede8;
      }

      .cls-47 {
        fill: #1c1c1c;
      }

      .cls-48 {
        fill: #1e1e1e;
      }

      .cls-49 {
        fill: #1d1d1d;
      }

      .cls-50 {
        fill: #181818;
      }

      .cls-51 {
        fill: #eceae6;
      }

      .cls-52 {
        fill: #e6e5e1;
      }

      .cls-53 {
        fill: #d4d2ce;
      }

      .cls-54 {
        fill: #efeee9;
      }

      .cls-55 {
        fill: #212121;
      }

      .cls-56 {
        fill: #dfdeda;
      }

      .cls-57 {
        fill: #ebe9e5;
      }

      .cls-58 {
        fill: #191919;
      }

      .cls-59 {
        fill: #dddcd8;
      }

      .cls-60 {
        fill: #242424;
      }

      .cls-61 {
        fill: #edece7;
      }

      .cls-62 {
        fill: #565554;
      }
    </style>
  </defs>
  <path class="cls-16" d="m78.33,355.81c-.66-.84-.86-1.76-.95-2.85-.24-2.84-.77-5.65-1.14-8.48-.6-4.49-1.06-9.01-1.77-13.48-.53-3.37-.55-6.78-1.14-10.16-.53-3.02-.98-6.11-1.27-9.2-.33-3.54-1.12-7.03-1.6-10.56-.62-4.56-1.78-9.1-1.64-13.71.16-5.44,1.18-10.73,2.92-16,2.37-7.18,4.89-14.39,6.03-21.94.23-1.51.1-2.16-.61-3.38-1.72-1.8-4.37-.01-5.86-2.01-.32-.94-.19-1.83.28-2.73.36-.7.73-1.45.85-2.21.27-1.8,1.36-2.99,2.63-4.12.89-.79,1.74-1.65,2.57-2.51.61-.63,1.15-1.32,1.15-2.56-2.96-1.36-6.38-1.14-9.37-2.11-1.32.1-2.19.77-2.95,1.61-1.45,1.61-3.14,2.96-5,4.05-2.15,1.26-3.91,3-5.89,4.47-1.66,1.24-3.38,2.33-5.42,2.88-3.77,1.01-7.22-.08-9.55-3.14-1.69-2.22-3.48-4.37-4.98-6.71-2.59-4.04-5.5-7.98-5.69-13.1-.04-1.16-.87-1.98-1.88-2.59-.54-.33-1.23-.37-1.64-.9-1.31-3.9-.88-7.52,1.41-11.44-.33-1.73-1.24-3.31-2.21-4.83-.91-1.44-2.1-2.59-2.7-4.36-.58-1.7-2.13-3.15-3.46-4.5-1.02-1.03-1.86-2.1-2.59-3.35-3.07-5.26-5.84-10.72-9.37-15.69-1.5-2.11-2.48-4.47-3.29-6.84-1.66-4.86-3.52-9.72-4.13-14.83-.46-3.85.68-7.84,4.73-9.78,3.45-1.65,6.82-2.4,10.71-2.36,4.27.04,8.61.22,12.88-.42,2.45-.37,4.93-.31,7.38-.44,3.86-.21,7.46-1.4,11.14-2.28,2.84-.68,5.64-1.51,8.45-2.3,1.97-.55,3.94-1,5.46-2.62,1.2-1.29,3.05-1.28,4.66-1.56,6.94-1.19,11.25-5.6,14.12-11.62,1.23-2.58,1.13-5.58,1.57-8.4.26-1.73.32-3.49.51-5.23.41-3.77-.63-7.11-2.84-10.16-.9-1.24-1.25-2.82-1.37-4.25-.12-1.5-.57-2.95-1.27-4.02-1.45-2.22-1.68-4.78-2.58-7.14-.78-2.06-.31-4.25,0-6.37.47-3.19-.06-6.17-1.78-8.87-1.25-1.96-.55-3.64.51-5.46-1.02-2-.81-3.94.71-5.54.26-1.22-.07-2.18-.63-3.08-.91-1.47-.83-2.96.26-4.2,2.15-2.46,2.36-5.3,1.77-8.26-.51-2.59-.43-5.23-.92-7.81-.76-4.04-.01-8.02.5-12.01.04-.32.22-.63.2-.93-.34-4.86,2.9-7.48,6.29-9.92.88-.63,1.85-1.19,2.79-1.76,1.72-1.05,3.6-1.65,5.64-1.66,2,0,4.01-.16,5.98.03,4.48.44,8.29,2.07,10.35,6.5,4.76.2,8.73,1.83,10.97,6.7.47.23,1.1.54,1.75.86.86,1.78,2.12,3.34,2.43,5.38.48,3.24,2.36,5.83,4.1,8.48.42.64,1.18.77,1.85,1.31.23.8.62,1.64,1.42,2.24,3.34,2.52,4.31,6.14,4.52,10.06.11,2.07.02,4.15.02,5.9-1.34,3.3-2.55,6.29-3.82,9.44,2.06,3.22,3.42,6.8,5.7,9.85.32.42.88.66,1.32.99,2.92,2.23,5.12,4.97,6.14,8.57.46,1.62,1.27,3.07,2.01,4.57,2.77,5.64,3.37,11.44,1.85,17.59-.56,2.29-1,4.62-1.58,6.92-1.74,6.83-5.29,12.17-11.94,15.09-.5.22-.93.58-1.58.99-.3,2-.68,4.11-.91,6.22-.17,1.55.51,2.72,1.86,3.6,2.51,1.63,5.05,2.99,8.21,2.56,1.84-.25,3.49.49,4.84,1.65,1.94,1.66,4.07,2.72,6.64,2.88,3.66.22,7.09,1.57,10.66,2.26,1.24.24,2.47.53,3.71.78,1.41.28,2.21,1.1,2.44,2.53.53,3.24.79,6.42-.48,9.61-.71,1.79-1.68,3.6-1.4,5.66,1.9.18,3.41-.42,4.84-1.54,1.51-1.19,3.46-1.54,5.21-2.26,1.1-.45,2.21-.86,3.24-1.44,1.78-1,3.37-2.41,6.48-2.08,1.71.61,3.14,2.59,4.13,5.07.5,1.26.58,2.79,1.89,3.64v2.4c-.75,1.7-1.79,3.34-2.21,5.12-1.05,4.45-3.09,8.3-6.07,11.7-.15.17-.2.42-.29.61.34.46.97.69.88,1.57-2.34,6.16-5.28,12.33-6.49,19.12,1.19,1.47,1.61,3.11.87,4.88-.64,1.52-.66,3.09-.64,4.69.02,2.32.01,4.63,0,6.95,0,.71-.05,1.39-.3,2.1-1.39,3.95-3.61,7.36-6.46,10.41-2.59,2.77-5.38,5.28-9.21,6.04-1.52.3-2.89.7-4.11,1.65h-7.93c-1.58,2.27-1.82,5.79-5.5,5.77-1.15,1.8-2.19,3.49-3.28,5.14-.82,1.25-1.19,2.61-.92,4.08.24,1.29-.03,2.55-.17,3.79-.09.85-.47,1.7-.35,2.58.35,2.68.56,5.38,1.14,8.01,1.15,5.28,2.18,10.56,2.72,15.94.14,1.41.55,2.79.45,4.24-.33,4.77-.58,9.54.16,14.3.09.61.02,1.29-.15,1.89-.65,2.26-.46,4.58-.49,6.88-.06,4.23-.57,8.41-1.28,12.57-.82,4.79-1.37,9.62-1.51,14.45-.11,3.93-.69,7.88-.06,11.81.15.94-.44,1.67-.54,2.63.76,1.31.77,2.63-.44,3.81h-61.29Zm-42.16-150.04c0-.62.2-1.28-.73-1.94-.94,0-2.19,0-3.43,0-.37,0-.78-.09-1.06.28,1.05,1.92,2.64,2.39,5.28,1.59-.33.97-1.99,1.27-1.34,2.76.82.44,1.85-.16,2.73.4-.06,1.62-2.32,1.74-2.31,3.36.32.43.97-.02,1.25.49.08.54,0,1.12.45,1.62.48-.09.78.44,1.37.48,1.73-.7,3.56-.95,5.25.06,2.49-.41,3.07-.3,3.22.62-.08.66-.47,1.09-1.14,1.25-.79.28-1.31-.61-2.27-.39-1.01.84-2.97.42-3.91,2.31,2.01-.26,3.63.67,5.29.99,2.71-2.21,3.86-4.92,3.19-8.63-.84-1.76-2.73-2.27-4.75-2.37-1.53-.08-2.91-.4-4.28-1.3,1.27-2.72-.41-5.7,1.07-8.22-.45-.9-1.23-1.53-.84-2.67.21-.54,1.14-.67,1.27-1.63-1.39.08-1.64-1.54-2.73-1.86-1.75.16-1.36,2.96-3.42,2.74-.44-1.42.87-2.13.83-3.15-.02-1.76-1.7-1.46-2.72-2.35-.26-.5-.62-1.2-1.01-1.88-.39-.69-.82-1.37-1.61-1.69-1.14-.19-2.19-.03-2.87.47-.77.78-.07,1.48-.5,2.11-.42.47-1.07.84-1.22,1.77,2.13,1.14,2.79,2.91,2.15,5.32-.25.94.16,1.9,1.5,2.27,1.01-.4,1.99-1.78,3.43-.81.08,1.23-2.05,1.33-1.3,2.81.59.24.72-.53,1.42-.51.39.49.89,1.11,1.28,1.6,1.34.36,2.59.37,3.49,1.51.18.99.53,2.1-1,2.6Zm99.58,127.02l.06.06c.38-.68.98-1.27.93-2.06-.28-.76-1.2-.9-1.35-1.66.49-.84.62-1.85,1.54-2.5.43-.2,1.06.1,1.55-.4.64-.98.39-1.99.06-2.96-.78-.12-1.29.68-2.08.13,1.26-1.92-.22-3.61-.5-5.44-4.5,1.88-5.2,1.86-6.56-.21.47-.29,1.01-.49,1.38-.87,2.01-2.03,4.3-2.55,6.96-1.48.63.25,1.25.22,1.85-.55.31-1.4-.99-2.91-.28-4.49.28-.6,1.18-.53,1.44-1.58.01-.44-.45-1.27.03-1.99,1.18-1.77.87-3.43-.24-5.09-.25-.38-.56-.8-.39-1.36.04-1.02,1.74-1.45,1.05-3.09-2.62,1.18-2.92,4.11-4.73,5.7-.35-.32-.01-1-.78-1.23-1.23.63-2.13,1.6-2.31,3.07.1.95,1.29.3,1.45,1.12-.36,1.07-1.15,1.87-1.83,2.74-1.31,1.69-2.46,3.39-3.16,5.5-.68,2.05-2.2,3.64-4.75,3.61-1.1-.02-2.21.16-3.38.25-1.07,1.05-2.7,1.54-3.14,3.32-.23.94-1.27,1.08-2.16,1.44-1.82-1.12-3.42-.44-5.16.76,1.79.93,3.73-.16,5.32.77-.02,1.04-1.31.69-1.41,1.61.07.49.25.99,1.05,1.05,1.66-.99,2.58-2.98,4.45-3.59,1.77-3.67,2.65-4.46,5.37-4.53-2.12,1.59-3.5,3.52-4.99,5.34-2.53,3.08-5.85,5.52-7.55,9.76-.32-1.21-.32-2.04-.43-2.85-.18-1.33,1.12-2.07,1.2-3.19-.24-.46-.55-.68-1.03-.75-1.08.93-1.29,2.84-3.31,3.13.71-1.65,1.12-3.22,2.16-4.67-2.4-1-4.29.97-6.43.8.24-1.33,1.26-1.59,1.96-2.12.56-.78.39-1.87,1.2-2.24-.1-.52-.58-.76-.08-1.27,1.09-.05,1.97.84,3.09.94,1.96-.33,3.6-1.39,5.42-2.41-.83-.66-1.62-.91-2.5-1.13-1.18.22-2.34.72-3.66.73-1.25,0-2.49-.78-4,.1-.38.2-.3,1.2-1.18,1.4-.18-.04-.41-.13-.64-.13-1.6.02-2.25-1.9-3.8-1.88-1.5.02-2.9.63-4.43.69-3.11.13-6.15-.41-9.22-.68-.82-.07-1.55-.29-1.94-1.12q2.51-1.41,4.85-1.12c.49.52.98,1.05,1.58,1.69,2.57.6,5.06-.35,7.67-.67-.3-1.3-1.43-.91-1.93-1.48-.08-.39-.19-.78.29-1.22,1.1-.11,2.3-.42,3.33-.92.87.49.8,1.56,1.65,1.87.45.05.93.2,1.28-.18.55-1.11-1.07-1.55-.75-2.67,1.73.36,2.99,2.33,4.97,1.38.29-.9-1-1.24-.65-2.3,1.25.18,2.34.73,3.13,1.16.95.87.85,1.96,1.49,2.77,1.38-.76,2.58-1.48,3.06-2.97.29-.89.95-1.48,1.68-1.96,3.41-2.25,5.93-5.46,8.85-8.23.6-.57.73-1.37,1.02-2.07.71-.27,1.53-.44,1.86-1.07,1.03-1.96,3.52-2.77,3.97-5.18.11-.57.74-.81,1.17-1.15,1.25-1,2.36-2.14,3.42-3.33.15-.17.34-.32.46-.43.76-.23,1.53.12,2.31-.5.51-.62,1.15-1.36,1.42-2.78-1.89,1.03-3.65.71-5.59.84-1.8,2.13-3.79,4.29-5.35,6.78-.64,1.02-1.31,1.98-2.34,2.67-2.7,1.81-5.33,3.69-6.62,6.87-.17.42-.6.74-.94,1.07-1.2,1.16-2.36,2.38-3.65,3.44-.88.72-1.74,1.62-3.06,1.71.02-.84.72-1.69-.23-2.34-2.88.09-5.96-.71-6.95-1.83.37-.12.74-.24,1.11-.37-.03-.95-1.54-1.59-.52-2.71.79.09,1.22.72,1.8,1.11.68.46,1.45.53,2.23.4.76-.2.69-1.04,1.17-1.44.54-.08,1.09-.21,1.6.14.36.5-.32,1.28.66,1.79,5.57-5.74,11.66-11,17.24-16.12.87-.87.22-1.56.47-2.02.79-.83,1.83.11,2.54-.58q.28-2.01-.9-2.94c-1.2.21-1.48,1.35-2.07,2.15-.43.58-.74,1.32-1.44,1.52-2.41.68-4.09,2.39-5.63,4.16-2.41,2.75-5.83,4.29-8.2,7.05-.13.16-.39.2-.54.28-2.19-.73-3.83-2.04-5.1-3.86-.68-.97-1.43-1.85-2.99-2.04-.25,1.09-.4,2.05-.12,2.9.71,1.14,1.89.52,2.72,1.04.65,1.52,1.72,2.63,3.31,3.16.06.82.33,1.51.92,2.52-2.98-1.01-4.86-2.71-6.41-4.66-1.27-1.61-2.85-2.64-4.58-3.58-1.03.22-2.23,1.14-2.79-.61,1-1.54,2.06-2.67,4.09-2.11.56.16,1.46.13,1.74-.9-1.31-.49-2.52-.99-3.92-.62-.94.24-1.9.11-2.84-.06-1.79-.32-3.57-.69-5.41-.64-.21,0-.28-.12-.15-.52.15-.38.62-.64,1.27-.88,1.38.66,2.99.43,4.46.73.56-.32,1.03-.59,1.49-.86,1.09.4,2.11.91,3.44.47.49-.35.99-1.02,1.85-1.25.18.03.43.04.64.13,3.31,1.36,6.64,1.96,10.1.44.65-.29,1.4-.21,2.12,0,2.3.66,4.55-.39,6.85-.22.36.03.85-.41.96-1-.92-1.71-3.36-1.76-4.2-3.7.18-.5.37-1.01.53-1.46-.27-.66-1.02-.56-1.42-1.22-.22-.3.21-.96-.33-1.4-1.41-.17-2.95,0-4.16-1-.02-.91.84-1.33,1.03-2-.37-.71-1.22-.88-1.47-1.66.88-.5,1.82-.37,2.56-.99.85.63,1.82.59,2.75.71,2.64.64,3.11,3.18,4.23,4.95.69.28,1.22.31,1.93-.01-.08-1.38.97-2.24,1.93-3.03-.45-1.15-1.53-.87-2.19-1.25,0-1.06,1.6-1.24,1.22-2.45-.77-.34-1.61-.52-2.22.13-.92.97-2.01,1.22-3.24,1.07-.71-.09-1.19.26-1.69.65.74-1.21-.51-1.81-.89-2.57.48-.86,1.52-.81,1.88-1.6v-4.1c-1.77-.53-3.49-1.05-5.19-1.56-1.23.65-2.4,1.28-3.58,1.91-.56-.26-.51-1.12-1.19-1.37-1.42-.04-2.9.2-4.59-.16.8-1.13,1.82-1,2.72-1.33,1.36.69,2.77.73,4.21.13-2.14-1.5-4.71-1.12-7.11-1.66.03-1.28,1.61-1.52,1.82-3.19-.31-2.1.82-3.72,3.38-4.43.77-.21,1.34-.83,1.79-1.52.12-.18.37-.27.53-.39.76.04,1.26.84,2.26.49.45-1.29,2.27-.43,3.12-1.72v-2.05c.37-1.4,1.42-1.76,1.9-2.72-.55-.1-.93-.36-.9-1.1.66-1.3,1.87-1.06,3.03-.75,2.73.74,5.27,0,8.12-.79-.75-.65-1.23-1.41-1.83-1.53-2.27-.45-3.48-2.05-4.48-3.84-2.87-1.14-5.84-.37-8.54-.84-.66-1.03.94-1.74.18-2.7-1.3.49-.35,2.07-1.42,2.62-2.34.13-2.43,1.59-5.32-4.67-1.27.62-1.97-.66-3.12-1.14-1.25.33-2.6.31-3.95.22-1.21-.07-2.3.2-2.73,1.43-.33.95-1.15,1-1.82,1.4-.3-.62-.08-1.52-1.07-1.8-.92.16-1.91.41-2.96.44-1.63.05-3.04.62-4.12,2-1.27,1.62-2.91,2.91-4.17,4.77-.5-.69-.13-1.64-1.15-1.94-1.24-.1-2.69-.33-3.9,1.03.44,4.09-2.53,5.64-5.57,6.96-.43.78-.4,1.45-.31,2.19.12,1.02.19,2.1-.03,3.09-.95,4.3-2.03,8.56-3.38,12.76-1.54,4.79-2.98,9.61-4.34,14.45-.67,2.37-.59,4.87-.93,7.29-.31,2.24-.39,4.38-.01,6.59.45,2.65.73,5.33,1.11,7.99.54,3.76,1.11,7.51,1.64,11.27.35,2.5,1.02,4.99,1.14,7.47.16,3.41,1.37,6.66,1.15,10.13-.09,1.43.27,2.99.46,4.49.72,5.58,1.53,11.14,2.31,16.71.27,1.94.59,3.87.89,5.79h34.88c.77-4.1-.27-8.08.35-12.53,1,4.45.64,8.5.82,12.59h15.6c1.71-1.32,2.67-3.03,3.47-4.86-.14-.52-.46-.84-.97-1.05-.66-.14-.89.9-1.7.64-.22-1.69-1.3-3.12-1.62-4.81.16-.56.34-1.08.81-1.53,2.27-.39,4.42-1.08,5.38-3.57-.99-2.26-3.16-1.18-4.84-1.64.38-1.39,1.29-1.58,2.42-1.38,1.34.24,2.53.02,3.4-1.23-.07-.94.31-2.05-1-2.55Zm23.96-116.99c-.25-.19-.64.14-.93-.35.19-1.12,1.02-1.79,2.09-2.16,2.44-.86,4.24-2.97,6.88-3.47.69-.13,1.07-.9,1.41-1.55.18-.34.43-.66.66-1.01.74-.05,1.44-.1,2.01-.14.73-.51,1.23-1,1.28-1.88-1.31-2.33-3.69-2.58-6.01-2.87-.64-1.84-.91-3.82-2.91-4.78-1.12.8-2.22,1.75-3.41.8-.8-.72-.49-1.82-1.51-2.13-1.51.46-2.75,1.17-3.02,3.1-.13.96-.77,1.9-1.68,2.56-2.43.74-3.94-1.7-6.05-1.7-.58-.76-1.06-1.39-1.58-2.07-1.38-.46-2.84.18-4.24-.18.09-.71,1.09-.58,1.19-1.27q.06-2.67-1.22-5.12c-.18-.35-.23-.78-.45-1.1-.89-1.34-.95-3-1.68-4.4l.06.07c.28-1.81-1.45-1.26-2.15-1.85-1.4-1.47-.59-3.21-.71-4.86.51-.42,1-.82,1.64-1.34-.65-2.06-1.27-4.02-1.91-6.07-1.46.7-.54,2.23-1.45,3.02-.77-.38-.96-1.13-1.2-1.89-.33-1.05-.7-2.1-1.34-3.01-.92-1.32-2.05-2.18-3.66-1.7-.49.49.09,1.3-.64,1.44-.76.04-1.11-.36-1.41-.99.17-.59.37-1.25.56-1.88-.63-.74-.99-1.59-1.9-1.86-.94.66-1.88,1.16-2.99.88-.32-.7.19-1.45-.53-1.9-.52-.15-1.06-.19-1.71.14-1.25,1.31-2.05,3.01-2.8,4.87,1.21,1.32,1.45,2.8.6,4.25.4,1.26.76,2.37,1.12,3.48.63.07,1.17.14,1.68.2,1.09,1.57,1.87,3.13,2.11,5.03.29,2.26,1.8,3.98,3.32,5.67-.9.88-1.89,1.33-2.88,1.57-1.71.49-1.86-1.59-3.1-1.85-1.28,1.5.44,2.31.67,3.3-.17.72-.96.78-1.02,1.28,0,.85.73,1.38.71,2.35-2.49,1.82-3.68,5-6.52,6.35-2.39,1.13-4.9,2.03-7.24,3.28-.21.11-.44.16-.69.25-2.63-.72-4.96-2.11-6.93-3.91-1.63-1.48-3.75-2.37-5.03-4.26-.31-.45-1-.39-1.54-.53-2.27-.57-4.59-.36-6.83-.43q-3.21-2.98-2.59-4.28c2.06.73,4.18,1.67,6.18-.17,1.65-4.36,1.91-4.75,4.31-6.21,1.29,1.89,2.77-.52,4.28.1.84.37.57,1.65,1.46,1.92,1.53-.64,1.37-2.59,2.95-3.33.45,0,1.09.04,1.72,0,3.02-.2,7.42-4.08,7.61-6.99.24-3.72.24-7.46-1.04-11.13,1.58-2.34-.34-4.69.07-6.96-.83-.63-1.76.02-2.5-.73-.21-2.01-2.12-2.86-3.18-4.25-1.94.12-3.87,1.14-5.38-.55-.06-1.88,1.65-2.35,2.42-3.51-.74-.65-1.73-.73-2.28-1.54.61-.69,1.75-.88,1.83-2-.47-1.19-.98-2.36-2.22-2.98-.66-.29-1.43.12-2.04-.3-.24-1.22,1.61-2.07.55-3.59-.77.62-1.11,1.53-2.23,1.88-.96,0-2.15-.35-3.34-.05.36-2.12,3.09-1.25,3.57-2.97-.5-1.52-2.25-1.35-2.97-2.62,1.79-1.93,1.58-4.51,2.19-6.8.62-.43,1.46-.32,1.88-.94,1.98-2.87.11-5.58-.33-8.41-.2-.16-.57-.32-.66-.57-.99-2.82-2.53-5.36-3.87-8.01-.6-1.18-1.09-2.22-2.34-2.81-1.17-.55-2.19-1.29-2.54-2.77.26-.96.77-1.81,1.24-2.07,2.66-1.12,4.23,1.2,6.27.94.18-.92-.81-1.42-.49-2.44,1.83.57,2.69,2.04,3.49,3.29.29.89-.21,1.51-.08,2.5,1.6-.56,3.3.81,5.02-.46-.34-.92-.62-1.7-.89-2.43-1.03-.14-2.12,1.05-2.84-.47,1.31-2.24,3.31-3.46,5.73-4.03,1.36.79.37,2.15,1,3.22.32-.86.26-1.85,1.09-2.2,1.31-.66,2.11.26,2.92.85.43-.13.74-.19,1.02-.32.37-.17.73-.3,1.22-.13.1.12.25.3.37.49,1.37,2.15,1.47,2.2,4.01,1.46.56-.16,1.19-.3,1.64-.09,2.94,1.36,5.38.47,7.64-1.51.23-.2.54-.31.94-.53,3.57.49,6.87-.15,8.99-3.32,1.29.19,1.72,1.32,2.9,1.43.83-1.06,1.4-2.35.85-3.68-.81-1.96.04-3.36,1.12-4.83.64-.05,1.27-.11,1.95-.17.46-.63.92-1.27,1.35-1.86,0-.49.08-.91-.01-1.28-1.16-4.44-3.17-8.56-4.98-12.74-1.85-4.25-5.41-6.88-9.78-8.39-1.69-1.52-1.71-4.3-3.99-5.46-.41.7-.7,1.34-1.13,1.88-.62.79-1.48,1.32-2.5,1.04-1.8-.49-3.59-.35-5.43-.32-1.97.04-4-.17-5.9-.68-2.11-.56-4.2-.84-6.33-.59-2.21.26-4.43.15-6.64.59-1.45.29-3.07.25-4.52-.06-1.29-.28-2.46-.35-3.64.2-2.08-1.36-4.17-2.41-6.69-1.87.28,1.09,1.87.47,2.04,1.65-1.14.31-2.28.63-3.55.98-.5-.26-.91-1.21-1.89-.78-.75.39-1.17,1.19-2.03,1.56-1.64.71-2.18,2.15-1.97,3.92.25,2.05.15,4.1-.41,6.18.95.81,1.05,1.82.96,3-.18,2.38-.13,4.74,1.21,6.92.42.69.55,1.63.7,2.5.27,1.62.47,3.37,1.67,4.59.9.92,1.25,2.02,1.58,3.13.29.98.6,1.95,1.06,3.02,1.05-.1,1.89.75,2.99.94.46-.71.19-1.81,1.59-1.95,1.21,1.3.89,3.59,2.47,4.97-2.35.44-4.51.09-6.56-.81-.52.49-.56,1.06-.52,1.62.11,1.69-.16,3.31-.8,4.89-.17.42-.18.94-.15,1.41.19,3.2-.8,6.04-2.31,8.84-3.21,5.93-7.99,9.48-14.69,10.45-1.55.23-3.08.67-4.18,2.01-.61.74-1.49,1.09-2.46,1.34-3.51.9-7.01,1.84-10.49,2.87-4.17,1.23-8.3,2.36-12.73,2.52-2.6.09-5.27,0-7.84.46-3.89.69-7.81.45-11.68.42-3.45-.02-6.5.51-9.56,2.08-2.95,1.51-4.29,3.77-4.54,6.95-.29,3.71,1.18,7.02,2.08,10.65.64-.79,1.14-1.4,1.7-2.1-.26-.47-.67-.89-.64-1.45-.2-1.67,1.66-3.38.04-4.99-.89-.16-1.53.68-2.24.04.03-.83.65-1.21.9-1.39,2.21-.98,3.07,1.2,4.5,1.3,1.6-.8.22-2.35,1.06-3.28,1.03.34,2.05.37,2.98.19.91-.59,1.15-1.61,1.95-2.31.27,1.2.84,2.09,1.92,2.56q2.91-1.87,4.43-1.79c-.69,1.01-.47,2.14-.46,3.22,0,1.15-.17,2.22-1.02,3.07-2.4,2.38-5.14,4.49-5.94,7.9-1.95.59-3.17-.89-4.67-1.05-.75.54-.91,1.59-2.06,1.91-.62.59-1.17-.9-2.13-.28.7.85.71,2.07,1.57,2.63.84.25,1.3-.59,2.08-.23.45,1.52-.24,3.58,1.85,4.56.69-.57.91-1.69,2.13-1.89.74-.05,1.48.78,2.64.28.59-.27.71-1.56,2.03-1.56-.66,1.44-.2,2.47,1.09,3.2,1.25,0,2.48-1.05,3.78-.22-.34,1.55-.88,3.01-.84,4.57.95.66,2.33.48,2.71,1.71-.37,1.09-1.51.31-2.08.95.07.54.14,1.08.76,1.68,1.67-.43,3.59-.32,5.33-1.45.3-.59.62-1.22.98-1.93,2.52.01,4.45-1.66,6.41-2.51,1.14.13.92,1.29,1.92,1.54,1.11.17,2.16-1.66,3.52-.39,1.84-1.59,4.25-1.42,6.19-2.44-.41-1.53-1.62-1.48-2.89-1.61,1.85-1.34,3.9-.49,5.5-1.34.52.48.23,1.29.97,1.39.66-.08.71-.82,1.17-1.09.45.23.88.46,1.35-.05.27-.61.4-1.29.27-1.9-.57-1.02-1.61-.8-2.54-.99,1.48-1.79,2.64-2.11,3.94-1.3.67.33.32,1.32,1.28,1.51.76-.19,1.23-.83,1.73-1.59.97-1.49,2.31-2.62,3.95-3.37.97-.44,1.82-.51,2.14.78-1.64,1.79-2.72,3.67-2.33,6.14,1.93.39,2.55-.87,3.3-2.01v-2.39c.21-.78,1.15-.95,1.41-1.86v-5.36c-.18-.52-1.06-.69-.95-1.5.48-.61,1.43-.67,1.9-1.61v-1.47c1.22-2.57,3.67-3.03,5.71-3.89,2.3-.96,3.99,1.49,6.21,1.58.29,1.7.51,3.26.49,4.68-2.28,3.41-5.38,4.5-9.11,3.7-1.44,2.41-2.11,4.62-.6,7.08.43.7.17,1.55-.29,2.26-.54.85-.84,1.87-.43,2.73,1.64,3.46,2.59,7.3,5.57,10.03.94.86,1.51,2.01,2.07,3.17.58,1.21,1.21,2.39,1.9,3.56,1.62,2.73,2.27,5.75,1.67,8.89-.34,1.76-.41,3.49-.09,5.21.43,2.3.25,4.6.23,6.85-.37.22-.7.58-.89.52-1.45-.47-2.71.21-4.02.57-6.14,1.68-12.13,3.75-17.58,7.14-1.08.67-2.08,1.43-2.99,2.34-3.57,3.58-5.99,8.11-9.84,11.56-1.56-.53-2.92-1.91-4.87-2.02,2.46,1.83,4.46,4.38,7.66,4.99.76-.98.58-2.16,1.81-2.79,2.81-.4,5.45-2.13,8.42-3.07.55.29,1.1.57,1.61.84,1.54-1.24,4.08-.52,4.84-2.82.86.05,1.56.09,2.18.13,1.24-.59,2.37-1.19,3.54-1.68,1.48-.61,2.31-.14,2.87,1.63-1.3.19-2.29-1.55-3.85-.57.87.94.99,2.22,1.97,3.06,1.8.03,3.66-.33,5.33.49.92-.28,1.74-.54,2.38-.73.86-.79.67-1.8,1.13-2.5,1.8-1.61,3.69.38,5.45-.16.43-.37.6-.82.64-1.3.05-.54.27-.9.75-1.06,4.01,1.1,7.87,1.29,11.13-1.54,2.61.31,4.61-.48,6.64-2.19-3.18-1.77-5.33,1.38-8.03.98,1.1-.71,2.4-1.03,3.37-1.91,3.33-2.99,7.23-4.05,11.72-3.42.48.37,1.02.8,1.51,1.18.79-.27,1.21-1.01,2.1-.98.84-.1,1.17.9,1.51,1,2.49.47,4.06-.63,5.61-1.48.29-.85.14-1.49-.41-2.13,2.94-.94,5.46-2.59,8.55-1.84-.08-1.53-2.18-1.26-1.78-2.92.73.03,1.24-.82,2.35-.51,1.62.91,1.28,2.67,1.27,4.32,1.01,1.03,1.48,2.22,1.13,3.69-.13.54,0,1.11.29,1.62.58,1.06.67,2.25.75,3.33,1.93,1.24,2.42,1.17,4.58-.48,1.48.22,2.71.87,3.91,1.79,1.05-.54,2.12-.42,3.2,0,2.72,1.05,5.64,1.33,8.42,2.25,2.96.98,5.05-.09,6.15-2.7.2.09.32.02.31-.2,0-.06-.1-.15-.15-.16-.22,0-.28.11-.2.31Zm29.37-56.84c-.34-1.82-.86-3.17-1.48-4.05-1.6-2.27-3.47-2.6-5.92-1.13-1.76,1.06-3.58,2.01-5.53,2.69-1.55.54-3.21,1.03-4.53,1.96-2.22,1.57-4.51,2.5-7.2,2.17-.63.61-1.27,1.1-1.75,1.72-.52.68-.88,1.48-1.19,2.03-1.66,1.12-3.88-.17-5.21,1.77,1.97,2.04,3.65,4.2,4.38,6.83,1.82.59,3.42-.31,5.01-.27.7.38,1,1.16,1.74,1.35.99.24,2.29-.31,2.87,1.1-.48.78-1.11,1.35-2.08,1.92-1.53-.25-3.25-.39-4.92-.87-1.31-.38-2.68-.53-3.92.13-2.3,1.21-4.62,2.3-7.76,2.22,1.36,2.66,3.02,4.41,5.26,5.74,1.14-.68,2.48-.51,3.63-1.09,1.4-.7,1.02-2.43,2.01-3.4.32-.03.76-.21.92-.07,2.02,1.77,4.55,1.67,6.97,1.95.23.03.46.08.69.14,1.08.27,2.12.64,3.28.33,1.3-.34,2.61-.69,3.94-.79,1.33-.1,2.23-.69,2.96-1.72v-2.87c-.36-.74-1.34-1.28-.71-2.41.75-.39,1.79-.3,2.6-.97.33-1.22.8-2.49.98-3.8.23-1.7,1.82-1.81,2.79-2.64.25-.94.16-1.76-.66-2.37-.82-.12-.99,1.05-2.01.88-.9-.36-1.27-1.1-.95-2.13.87-1.31,2.46-1.13,3.56-1.97.68-.8,1.06-1.92,2.24-2.37Zm-111.19,42.58c-.37-2.01-.32-4.15-1.03-6.18-.5-1.42-.92-2.84-.96-4.39-.04-1.34-.33-2.72-1.11-3.84-4.22-6.03-9.35-11.01-16.37-13.69-.86-.33-1.74-.68-2.93-.55-.59,1.81.66,4.06-1.01,5.33.71,7.55,2.33,14.73,3.68,21.79-.32,2.4-3.07,3.19-3.03,5.78.61,1.07,1.32,2.41,2.63,3.22.98.42,1.73-.21,2.49-.56,4.32-1.96,8.77-3.56,13.34-4.8,1.45-.39,2.89-.72,4.3-2.13ZM101.86,3.77c-5.44-3.8-11.11-3.36-16.92-1.55,1.6.04,3.05.73,4.53,1.13.58-.43,1.11-.83,1.66-1.24.26.73-.06,1.4.33,2.03,1.35.69,2.93,1.11,3.6,2.41,1.71.86,1.92-1.01,2.94-1.21,1.2-.27,1.18,1.08,1.87,1.47,1.97-.26,1.48-1.94,1.99-3.04Zm30.78,219.24c-1.8.77-3.88,1.06-5.49,2.68,2.42,2.21,5.28,3.41,8.17,4.89.88-1.91,1.76-3.55,1.34-5.51-1.1-1.16-2.55-1.59-4.02-2.06Zm-92.62-50.65c-2.31.64-4.26.09-5.76-.57-2.82.17-4.88,1.37-7.24,2.35-.12,1.12-1.97,1.39-1.71,3.05,2.03.71,3.18-.95,4.52-1.58,3.49.1,6.72-1.34,10.19-.48v-2.78Zm-6.42,52.5c.88-.49.84-1.7,1.74-2.25,1.03-.33,2.22.21,3.59-.36-1.03-1.23-2.46-1.73-3.12-3.06-.62-1.25-.68-2.72-1.53-3.92-1.52.55-3.09.8-3.33,2.67.49,2.47.51,5.1,2.65,6.91ZM90.57,17.71c1.73-1.65,4.05-.35,6.06-1.11.13-1.28.26-2.52.4-3.86-.94-.05-1.02-1.08-1.64-1.36-1.96.31-2.52,2.38-3.9,3.02-.9.05-.45-1.17-1.29-.92q-1.23,2.26.39,4.22Zm3.37,5.83c.79.76,1.54.25,2.07.7.34.96-.55,2.02.26,2.94,4.34.65,6.69-.8,6.21-3.86-.96-.58-2.02.02-3.08-.21-1.83-1.35-3.55-.75-5.46.44Zm28.84,264.58c-2.19.98-4.43.15-6.48.76-2.04.6-4.33-.33-6.47.97.78.71,1.35,1.24,1.7,1.57,1.53.55,2.23-.88,3.83-.78,1.65.99,3.87.72,6.06.48,1.7-.18,2.1-1,1.35-3Zm-8.01-232.08c-.74-1.39-.73-1.56-2.11-1.62-2.7-.11-5.43-.15-8,1.27.76.99.75,2.11,1.58,2.91,3.11.03,5.45-2.41,8.54-2.56Zm-30.58-26.66c1.43-.87,3.1-1.24,4.26-2.6-.26-.93-.5-1.82-.75-2.72-.64.15-1.17.64-2.12.3-.57-.28-1.12-1.19-2.22-1.32-.6.69-1.2,1.38-1.97,2.27,1.35,1.08,1.07,3.01,2.8,4.07Zm18.93,11.59c-1.7-1.44-3.43-.01-5.08-.08-1.5,2.07-1.55,2.53-.55,4.58.81.4,1.62.3,2.27-.02.69-.49.59-1.3,1.66-1.83.26-.09,1-.33,1.74-.59.37-.7.34-1.37-.04-2.07Zm57.81,100.8c-3.71-.77-7.14-2.64-11.46-2.01,1.84,1.26,3.14,2.46,4.32,3.67,1.01,0,1.29-1.14,2.22-1.06.94-.14,1.2,1.29,2.6.95.59-.33.92-1.77,2.32-1.54ZM81.68,36.08c-1.66,2.35-2.14,4.86-2.49,8.02,1.68-1.62,3.12-2.66,4.53-3.74.88-.67,1.08-1.7.7-2.62-.62-1.06-1.58-1.26-2.75-1.66Zm83.46,111.06c.74-.53,1.54-1.03,1.97-1.83-.1-2.81-1.23-2.68-4.54-3.31-.18-.03-.43-.05-.53.21.52.49,1.04.97,1.03,1.85-.19.94-.97,1.96-.07,3.02.71.26,1.41.21,2.14.05Zm-32.78,158.66c-3.08,2.4-7.27,7.62-7.41,9.13,2.21-.46,7.2-6.48,7.41-9.13Zm5.75-14.79c-2.81,2.35-4.24,5.48-6.76,7.53.17.68.44,1.01.95,1.09,4.32-3.28,5.81-5.43,5.81-8.62Zm-24.2-240.14c-1.77-1.67-4.14-1.97-6.61-.74,1.48,1.13,2.88,2.2,4.21,3.22,1.27-.56,2.31-1.08,2.39-2.48Zm26.6,185.72c1.39-2.54,4.42-2.42,5.97-4.81-2.24-.83-3.94.51-5.97.87.42,1.28-.88,2.26,0,3.94Zm-22.23-190.36c-2.32,2.11-2.63,3.86-1.12,5.6,2.8-2.31,3.18-4.05,1.12-5.6Zm-28.46-15.51c.11.8-.24,1.59.43,2.56,2.39-1.33,2.84-3.78,3.85-6.23-.91.07-1.35-.46-1.89-.82-1.27.86-.04,1.67.08,2.39-.9.76-1.67,1.42-2.48,2.11Zm36.89,277.7c-2.56,1.67-3.99,3.87-5.87,5.55-.45.4-.67.87-.27,1.45,1.93-.74,5.38-4.47,6.15-7Zm2.89-6.03c-2.92.48-4.12,2.86-5.63,4.9,2.89-.45,4.29-2.65,5.63-4.9ZM76.03,40.49c1.14-.89,2.96-.85,2.77-2.8-.81-.85-1.88-.97-2.68-1.59-.56,1.37-.94,2.7-.09,4.39Zm45.7,261.2c-3.5.99-5.94,3.19-5.66,5.23,2.13-1.47,4.03-2.89,5.66-5.23Zm-27.26-243.55c-1.74-.53-3.2-1.64-5.14-1.4.11,1.47,1,2.18,2,2.88,1.07-.41,2.23-.37,3.14-1.48Zm8.72-27.87c1.79.87,3.11.4,4.43-.79-1.8.33-1.27-1.86-2.6-2.13-1.17.5-1.5,1.58-1.83,2.93Zm-15.09,21.05c.63-.47,1.27-1.02,1.21-1.85-.23-.68-.95-.29-1.1-.8.13-.39.62-.55.54-1.02-.44-.32-.84-.78-1.56-.41-.24,1.06-.49,2.17-.72,3.21.24.7.66.97,1.63.87Zm32.27-10.75c.5,1.32,1.4,2.06,2.77,2.15.8.06,1.6.02,1.65-1.1-2.53-1.25-2.59-1.26-4.42-1.05ZM45.89,172.25c-1.74.07-3.45-1.53-4.94.56,2.79,1.31,3.72,1.24,4.94-.56ZM109.38,41.03c-1.53-.47-2.8-.3-3.8,1.18.65.57,1.18,1.25,2.25,1.1.5-.72,1.41-1.19,1.55-2.28Zm-20.7-1.62c1.95.15,2.82-.8,3.67-2.01-.67-.88-1.43-1.02-2.42-.8-.36.81-.73,1.63-1.25,2.81Zm28.33,256.43c.2-.54.8-.92.46-1.75-1.01-1.07-1.93-.64-3,.34.57.87,1.1,1.56,2.55,1.41Zm-30.5-251.99c-2.14-.33-2.37-.08-2.19,2.15q1.98-.12,2.19-2.15Zm30.7,270.4c1.58-.74,3.08-1.57,4.02-3.62-2.35.53-3.37,1.87-4.02,3.62ZM95.56,55.99c-.65-.79-1.26-1.51-1.93-2.32-.72.82-1.29,1.52-.63,2.63.89.09,1.75-.12,2.56-.31Zm42.63,209.1c.53-.95.74-1.83.14-2.9-.92.91-1.78,1.58-1.54,2.76.48.37.85.25,1.4.14ZM78.39,52.89c-.41-1.11-1.05-1.17-1.78-.95-.59.47-1.01.99-1.06,1.67.21.37.43.57.95.6.53-.37,1.17-.81,1.89-1.31Zm63.33,125.76c-1.6,1.25-1.54,1.76.25,3.03.26-.99.47-1.92-.25-3.03ZM97.84,29.72c-1.23.13-1.9.6-1.81,1.77.48.76,1.11.77,1.8.6.21-.82.18-1.51.01-2.37Zm30.42,252.75c.96.23,1.46-.05,1.63-.9-.17-.41-.21-.92-.95-1.07-.69.35-.99.94-.69,1.97ZM100.03,20.87c1.34.83,2.33.76,3.27-.47-1.27-.65-2.18.07-3.27.47Zm30.71,263.02c.95-.34,1.62-.79,2.17-1.47-.56-.73-1.12-.71-1.75-.38-.32.45-.54.93-.42,1.84Zm5.26-40.3c-.57,1-.31,1.72.49,2.34.56-.21.91-.57.88-1.22-.24-.51-.52-.98-1.37-1.12Zm-24.72-202.6c.66.7,1.28.7,1.86-.12-.09-.49-.22-.92-.94-1.01-.27.31-.87.43-.92,1.13Zm-10.34,15.51c-1.37-.72-1.64,0-1.98.88,1,.45,1.39-.1,1.98-.88Zm20.69,199.07c-.42.67-1.25,1.26-.11,1.91.78-.56,1.01-1.1.11-1.91Zm-74.03-83.65c1.07.49,1.73.24,2.39-.79-.91.15-1.7-.23-2.39.79Zm90.87,83.55c-.64.97-1.35,1.73.13,2.62.06-.91.22-1.66-.13-2.62ZM83.55,50.6c.3.49.25,1.22,1.11,1.16.4-.38.53-.77.25-1.21-.35-.28-.69-.35-1.36.05Zm-2.82-45.86c1,.53,1.43.04,2.02-.8-1-.13-1.42.39-2.02.8ZM27,209.48c-.41.52-.6.91-.04,1.28.71-.28.86-.64.04-1.28Z"/>
  <path class="cls-34" d="m140.54,186.09c.73,1.4.78,3.05,1.68,4.4.21.32.27.75.45,1.1q1.28,2.46,1.22,5.12c-.1.7-1.1.56-1.19,1.27,1.4.36,2.86-.28,4.24.18.52.68,1,1.31,1.58,2.07,2.11,0,3.61,2.44,6.05,1.7.91-.66,1.55-1.6,1.68-2.56.27-1.93,1.5-2.64,3.02-3.1,1.03.32.72,1.41,1.51,2.13,1.19.94,2.29,0,3.41-.8,2,.96,2.27,2.94,2.91,4.78,2.32.28,4.7.54,6.01,2.87-.05.88-.54,1.37-1.28,1.88-.57.04-1.28.09-2.01.14-.23.35-.48.66-.66,1.01-.34.65-.71,1.42-1.41,1.55-2.64.5-4.44,2.61-6.88,3.47-1.07.38-1.9,1.04-2.09,2.16.29.5.68.17.93.35l.04.04c-1.1,2.61-3.18,3.68-6.15,2.7-2.77-.92-5.69-1.2-8.42-2.25-1.07-.41-2.14-.53-3.2,0-1.2-.92-2.43-1.57-3.91-1.79-2.16,1.65-2.65,1.72-4.58.48-.08-1.08-.17-2.28-.75-3.33-.28-.51-.42-1.08-.29-1.62.36-1.47-.12-2.66-1.13-3.69,0-1.65.34-3.41-1.27-4.32-1.11-.31-1.63.54-2.35.51-.4,1.67,1.7,1.39,1.78,2.92-3.1-.76-5.61.89-8.55,1.84.55.64.7,1.28.41,2.13-1.54.85-3.12,1.95-5.61,1.48-.34-.1-.67-1.1-1.51-1-.89-.02-1.31.71-2.1.98-.49-.38-1.03-.81-1.51-1.18-4.49-.63-8.39.43-11.72,3.42-.97.87-2.27,1.2-3.37,1.91,2.7.4,4.84-2.75,8.03-.98-2.04,1.71-4.04,2.51-6.64,2.19-3.26,2.83-7.12,2.64-11.13,1.54-.49.16-.71.53-.75,1.06-.04.48-.21.93-.64,1.3-1.76.54-3.65-1.45-5.45.16-.46.7-.27,1.72-1.13,2.5-.63.2-1.46.45-2.38.73-1.67-.81-3.52-.45-5.33-.49-.98-.85-1.1-2.12-1.97-3.06,1.56-.98,2.55.77,3.85.57-.56-1.76-1.38-2.24-2.87-1.63-1.17.48-2.3,1.08-3.54,1.68-.62-.04-1.32-.08-2.18-.13-.76,2.3-3.31,1.59-4.84,2.82-.52-.27-1.06-.55-1.61-.84-2.97.94-5.6,2.67-8.42,3.07-1.23.63-1.05,1.81-1.81,2.79-3.21-.61-5.2-3.16-7.66-4.99,1.95.11,3.32,1.48,4.87,2.02,3.85-3.45,6.27-7.98,9.84-11.56.91-.91,1.91-1.67,2.99-2.34,5.45-3.39,11.44-5.46,17.58-7.14,1.31-.36,2.57-1.05,4.02-.57.2.06.53-.3.89-.52.02-2.26.2-4.55-.23-6.85-.32-1.72-.25-3.45.09-5.21.6-3.13-.04-6.15-1.67-8.89-.69-1.16-1.32-2.35-1.9-3.56-.56-1.15-1.13-2.31-2.07-3.17-2.98-2.73-3.93-6.57-5.57-10.03-.41-.86-.11-1.88.43-2.73.45-.72.72-1.56.29-2.26-1.51-2.46-.85-4.67.6-7.08,3.73.8,6.82-.29,9.11-3.7.02-1.42-.2-2.98-.49-4.68-2.22-.09-3.91-2.54-6.21-1.58-2.04.85-4.49,1.31-5.71,3.89v1.47c-.47.94-1.42,1-1.9,1.61-.11.81.76.98.95,1.5v5.36c-.26.9-1.21,1.07-1.41,1.86v2.39c-.76,1.15-1.37,2.4-3.3,2.01-.39-2.47.69-4.35,2.33-6.14-.32-1.28-1.17-1.22-2.14-.78-1.63.74-2.97,1.88-3.95,3.37-.5.76-.98,1.4-1.73,1.59-.97-.19-.62-1.19-1.28-1.51-1.29-.81-2.45-.49-3.94,1.3.92.19,1.97-.03,2.54.99.13.61,0,1.29-.27,1.9-.47.51-.9.28-1.35.05-.47.27-.51,1.01-1.17,1.09-.74-.1-.45-.91-.97-1.39-1.59.86-3.64,0-5.5,1.34,1.27.13,2.48.08,2.89,1.61-1.94,1.03-4.35.85-6.19,2.44-1.36-1.28-2.42.56-3.52.39-1-.25-.78-1.41-1.92-1.54-1.96.85-3.89,2.53-6.41,2.51-.36.71-.68,1.34-.98,1.93-1.73,1.13-3.66,1.03-5.33,1.45-.62-.6-.69-1.14-.76-1.68.57-.63,1.7.15,2.08-.95-.37-1.23-1.76-1.05-2.71-1.71-.04-1.56.51-3.02.84-4.57-1.3-.83-2.54.23-3.78.22-1.29-.73-1.76-1.76-1.09-3.2-1.33,0-1.45,1.29-2.03,1.56-1.16.49-1.91-.34-2.64-.28-1.22.2-1.45,1.33-2.13,1.89-2.09-.99-1.4-3.05-1.85-4.56-.78-.36-1.24.48-2.08.23-.86-.55-.88-1.78-1.57-2.63.96-.62,1.51.87,2.13.28,1.15-.32,1.31-1.37,2.06-1.91,1.5.17,2.72,1.65,4.67,1.05.81-3.4,3.54-5.52,5.94-7.9.85-.84,1.03-1.92,1.02-3.07,0-1.09-.23-2.21.46-3.22q-1.52-.07-4.43,1.79c-1.08-.48-1.65-1.37-1.92-2.56-.79.7-1.04,1.72-1.95,2.31-.93.18-1.95.15-2.98-.19-.84.92.54,2.48-1.06,3.28-1.43-.1-2.29-2.28-4.5-1.3-.25.18-.87.56-.9,1.39.71.65,1.35-.2,2.24-.04,1.62,1.61-.24,3.32-.04,4.99-.03.56.37.98.64,1.45-.56.7-1.06,1.31-1.7,2.1-.9-3.63-2.37-6.94-2.08-10.65.25-3.19,1.58-5.44,4.54-6.95,3.06-1.57,6.11-2.1,9.56-2.08,3.87.03,7.79.27,11.68-.42,2.57-.46,5.24-.37,7.84-.46,4.43-.16,8.56-1.29,12.73-2.52,3.48-1.02,6.98-1.97,10.49-2.87.97-.25,1.85-.6,2.46-1.34,1.1-1.34,2.63-1.79,4.18-2.01,6.7-.97,11.48-4.52,14.69-10.45,1.51-2.8,2.5-5.64,2.31-8.84-.03-.47-.02-.99.15-1.41.64-1.58.91-3.2.8-4.89-.04-.56,0-1.13.52-1.62,2.05.9,4.22,1.26,6.56.81-1.58-1.38-1.26-3.67-2.47-4.97-1.4.14-1.13,1.24-1.59,1.95-1.09-.19-1.93-1.04-2.99-.94-.47-1.07-.77-2.04-1.06-3.02-.33-1.11-.68-2.21-1.58-3.13-1.2-1.22-1.41-2.97-1.67-4.59-.14-.87-.27-1.81-.7-2.5-1.34-2.18-1.39-4.54-1.21-6.92.09-1.18-.02-2.2-.96-3,.56-2.09.66-4.13.41-6.18-.22-1.77.32-3.21,1.97-3.92.86-.37,1.28-1.17,2.03-1.56.99-.43,1.39.52,1.89.78,1.28-.35,2.42-.67,3.56-.98-.17-1.18-1.77-.56-2.04-1.65,2.52-.54,4.61.51,6.69,1.87,1.18-.55,2.35-.47,3.64-.2,1.45.31,3.07.35,4.52.06,2.21-.44,4.44-.33,6.64-.59,2.13-.25,4.22.03,6.33.59,1.9.51,3.93.71,5.9.68,1.83-.03,3.62-.17,5.43.32,1.02.28,1.88-.26,2.5-1.04.43-.54.72-1.19,1.13-1.88,2.27,1.15,2.29,3.94,3.99,5.45,4.37,1.51,7.93,4.14,9.78,8.39,1.81,4.17,3.82,8.3,4.98,12.74.1.37.01.79.01,1.28-.43.59-.89,1.23-1.35,1.86-.68.06-1.31.11-1.95.17-1.08,1.47-1.93,2.87-1.12,4.83.55,1.33-.02,2.62-.85,3.68-1.18-.11-1.61-1.24-2.9-1.43-2.12,3.17-5.42,3.81-8.99,3.32-.4.22-.71.33-.94.53-2.26,1.98-4.7,2.86-7.64,1.51-.45-.21-1.08-.08-1.64.09-2.54.74-2.64.69-4.01-1.46-.12-.19-.28-.36-.37-.49-.49-.17-.85-.04-1.22.13-.28.13-.6.19-1.02.32-.81-.58-1.62-1.5-2.92-.85-.83.34-.77,1.34-1.09,2.2-.64-1.07.36-2.43-1-3.22-2.42.57-4.42,1.78-5.73,4.03.73,1.52,1.81.33,2.84.47.26.72.55,1.51.89,2.43-1.72,1.26-3.42-.1-5.02.46-.14-.98.36-1.61.08-2.5-.81-1.26-1.66-2.72-3.49-3.29-.32,1.02.66,1.52.49,2.44-2.05.25-3.62-2.06-6.27-.94-.47.26-.98,1.11-1.24,2.07.35,1.48,1.37,2.23,2.54,2.77,1.25.59,1.74,1.62,2.34,2.81,1.34,2.65,2.88,5.19,3.87,8.01.09.26.46.41.66.57.44,2.83,2.31,5.54.33,8.41-.43.62-1.26.51-1.88.94-.61,2.29-.4,4.87-2.19,6.8.72,1.27,2.47,1.1,2.97,2.62-.48,1.72-3.21.85-3.57,2.97,1.19-.3,2.38.05,3.34.05,1.12-.34,1.47-1.26,2.23-1.88,1.05,1.52-.8,2.37-.55,3.59.61.42,1.38.01,2.04.3,1.24.62,1.75,1.79,2.22,2.98-.08,1.12-1.22,1.31-1.83,2,.55.82,1.54.89,2.28,1.54-.76,1.16-2.47,1.64-2.42,3.51,1.51,1.69,3.44.67,5.38.55,1.06,1.39,2.97,2.23,3.18,4.25.74.75,1.67.1,2.5.73-.42,2.27,1.51,4.62-.07,6.96,1.28,3.67,1.28,7.41,1.04,11.13-.19,2.91-4.59,6.79-7.61,6.99-.63.04-1.27,0-1.72,0-1.59.74-1.42,2.69-2.95,3.33-.89-.27-.62-1.55-1.46-1.92-1.51-.62-3,1.8-4.28-.1-2.4,1.47-2.66,1.86-4.31,6.21-2,1.85-4.12.9-6.18.17q-.62,1.3,2.59,4.28c2.24.07,4.56-.15,6.83.43.54.14,1.23.07,1.54.53,1.29,1.89,3.41,2.77,5.03,4.26,1.97,1.79,4.29,3.19,6.93,3.91.25-.09.48-.14.69-.25,2.35-1.25,4.85-2.15,7.24-3.28,2.84-1.35,4.03-4.53,6.52-6.35.02-.97-.72-1.5-.71-2.35.07-.5.85-.55,1.02-1.28-.23-.98-1.94-1.8-.67-3.3,1.24.26,1.39,2.34,3.1,1.85.99-.24,1.98-.69,2.88-1.57-1.51-1.68-3.03-3.41-3.32-5.67-.24-1.9-1.02-3.47-2.11-5.03-.51-.06-1.05-.12-1.68-.2-.36-1.11-.72-2.22-1.12-3.48.84-1.46.6-2.93-.6-4.25.75-1.86,1.55-3.56,2.8-4.87.65-.33,1.19-.29,1.71-.14.72.45.22,1.19.53,1.9,1.11.28,2.05-.22,2.99-.88.91.27,1.27,1.12,1.9,1.86-.19.63-.38,1.29-.56,1.88.3.63.65,1.03,1.41.99.73-.14.15-.95.64-1.44,1.61-.48,2.74.38,3.66,1.7.64.91,1.01,1.96,1.34,3.01.24.76.42,1.51,1.2,1.89.91-.79-.02-2.32,1.45-3.02.64,2.04,1.26,4.01,1.91,6.07-.64.52-1.13.92-1.64,1.34.12,1.66-.69,3.39.71,4.86.7.59,2.43.04,2.15,1.85-.54-.01-.86-.8-1.66-.34-.38.82-1.32,1.64-.46,2.86.78-.02,1.44-.15,1.88-.66.51-.66.11-1.31.18-1.93Zm-90.47-40.87c-.92.42-.91.82-.95,1.22-.2,1.8-1.15,3.09-2.78,3.85-2.29,1.06-4.89,1.11-7.2,2.55.01-1.11.85-1.58.39-2.73-2.58.21-5.3.29-8.28-.04.55,2.29,2.3,3.46,2.99,5.18,1.15-.23,1.74-.93,2.38-2.01-.08,1.16.7,1.79.42,2.6-.58.65-1.62.38-2.19,1.5-.24.7-.07,1.73-.01,3.03,2.26,1.7,4.81,2.19,7.63,1.3.56,0,.4.91,1.05.83,2.52-.3,4.2-2.35,6.64-2.93-.49-2.57.79-4.71.57-7.18-.21-2.36.2-4.75-.66-7.16Zm47.22-61.23c3.5,3.05,7.28,5.46,11.05,7.89.59.38,1.24.79,1.94.11.46-1.28-.06-2.32-.96-3.18-3.28-3.14-7.09-5.4-11.33-6.76-.74.52-.73,1.15-.7,1.94Zm24.74,9.58c-2.74.08-4.11,1.73-3.24,4.23.26.76-.77,1.29.1,1.99,1.8.59,2.97-1.37,4.6-1.5.44.3.43.97,1.06.93,1.19-1.86,1.01-2.25-2.52-5.65ZM25.9,157.88c-1.18-1.06-.29-1.94-.15-2.91-.66,0-1.22-.24-1.65.31-1.19,1.55-2.97,2.26-4.5,3.04-.34.68-.04,1.2-.07,1.7-.49.28-.96.56-1.43.83-.15.54-.24,1.07.11,1.66h2.8c.96-1.97,1.89-4.24,4.89-4.63Zm64.23,58.41c.95,1.05,1.94,1.09,2.97,1.06.54-.77,1.13-1.42,1.28-2.31-.4-1.2-1.08-1.91-2.71-1.45.56,1.36-.7,1.83-1.54,2.7Zm64.4-7.34c-1.03-.77-1.81-.16-2.37.42-.8.82-2.13,1.4-1.98,2.87.79.35,1.68.35,1.87-.18.49-1.33,2.4-1.53,2.49-3.12Zm-59.53-109.07c.98.93,1.76.69,2.31-.09.66-.95.84-1.99-.35-3.07-.87.93-1.61,1.85-1.96,3.16Zm61.94,110.56c-.71.26-1.34.54-1.52,1.49,1.25.84,2.49,1.4,4,.28-.69-.92-1.64-1.29-2.48-1.77Zm-94.51-64.61c-.8,1.94-.77,2.07.77,3.31.31-1.27.51-2.41-.77-3.31Zm69.24,30.19c-.24.82-.37,1.57-.03,2.34,1.22.28,1.37-.65,1.47-1.4.09-.72-.34-1.16-1.44-.94Zm-94.07-11.98c-1.14-.02-1.81.44-2.44,1.08,1.62,1.27,2.12,1.05,2.44-1.08Zm119.39,52.52c-1.23-.5-2.03-.3-2.75.63.94,0,1.86.44,2.75-.63Zm-72.21-33.78c.02-.28.03-.42.04-.57-.29-.52-.66-.6-1.15-.23-.02.66.2,1.02,1.11.8Z"/>
  <path class="cls-34" d="m123.75,272.48c-.93-.12-1.9-.08-2.75-.71-.74.62-1.68.49-2.56.99.25.78,1.09.95,1.47,1.66-.19.66-1.05,1.09-1.03,2,1.21.99,2.74.83,4.16,1,.54.44.11,1.1.33,1.4.4.66,1.15.56,1.42,1.22-.16.45-.35.96-.53,1.46.84,1.94,3.28,1.99,4.2,3.7-.11.59-.6,1.03-.96,1-2.3-.17-4.55.87-6.85.22-.71-.2-1.47-.28-2.12,0-3.45,1.52-6.78.91-10.1-.44-.21-.09-.46-.09-.64-.13-.86.23-1.36.9-1.85,1.25-1.34.43-2.36-.08-3.44-.47-.46.26-.94.54-1.49.86-1.47-.31-3.08-.08-4.46-.73-.64.24-1.12.5-1.27.88-.14.4-.06.52.15.52,1.83-.05,3.62.32,5.41.64.95.17,1.91.3,2.84.06,1.4-.36,2.61.13,3.92.62-.28,1.03-1.18,1.06-1.74.9-2.03-.57-3.09.57-4.09,2.11.56,1.75,1.76.84,2.79.62,1.72.94,3.3,1.97,4.58,3.58,1.55,1.95,3.43,3.66,6.41,4.66-.59-1.01-.86-1.7-.92-2.52-1.59-.53-2.66-1.64-3.31-3.16-.83-.52-2,.1-2.72-1.04-.28-.85-.13-1.81.12-2.9,1.56.19,2.31,1.07,2.99,2.04,1.27,1.82,2.91,3.13,5.1,3.86.15-.07.4-.12.54-.28,2.38-2.76,5.79-4.3,8.2-7.05,1.54-1.77,3.22-3.48,5.63-4.16.71-.2,1.02-.94,1.44-1.52.58-.8.87-1.94,2.07-2.15q1.18.93.9,2.94c-.71.7-1.74-.24-2.54.58-.24.46.41,1.14-.47,2.02-5.58,5.12-11.67,10.38-17.24,16.12-.97-.51-.29-1.29-.66-1.79-.51-.35-1.06-.22-1.6-.14-.48.4-.41,1.25-1.17,1.44-.78.13-1.56.06-2.23-.4-.58-.39-1.01-1.02-1.8-1.11-1.02,1.12.49,1.76.52,2.71-.38.13-.74.25-1.11.37.99,1.12,4.07,1.92,6.95,1.83.95.66.25,1.5.23,2.34,1.32-.09,2.17-.99,3.06-1.71,1.29-1.06,2.45-2.28,3.65-3.44.34-.33.77-.65.94-1.07,1.3-3.18,3.93-5.06,6.62-6.87,1.03-.69,1.7-1.64,2.34-2.67,1.56-2.5,3.55-4.65,5.35-6.78,1.94-.14,3.7.19,5.59-.84-.27,1.42-.91,2.16-1.42,2.78-.78.62-1.56.27-2.31.5-.12.11-.3.25-.46.43-1.06,1.19-2.17,2.33-3.42,3.33-.43.34-1.06.58-1.17,1.15-.45,2.41-2.94,3.22-3.97,5.18-.33.63-1.15.79-1.86,1.07-.29.7-.41,1.5-1.02,2.07-2.92,2.77-5.44,5.98-8.85,8.23-.73.48-1.4,1.07-1.68,1.96-.48,1.49-1.68,2.21-3.06,2.97-.65-.81-.55-1.89-1.49-2.77-.79-.43-1.87-.98-3.13-1.16-.35,1.06.94,1.4.65,2.3-1.98.95-3.24-1.02-4.97-1.38-.32,1.13,1.3,1.56.75,2.67-.35.37-.83.23-1.28.18-.85-.31-.78-1.38-1.65-1.87-1.03.5-2.23.81-3.33.92-.48.43-.37.82-.29,1.22.5.57,1.63.18,1.93,1.48-2.6.32-5.09,1.27-7.67.67-.6-.64-1.09-1.17-1.58-1.69q-2.35-.29-4.85,1.12c.39.83,1.12,1.05,1.94,1.12,3.07.27,6.11.81,9.22.68,1.52-.06,2.93-.67,4.43-.69,1.55-.02,2.2,1.91,3.8,1.88.23,0,.46.09.64.13.88-.2.8-1.2,1.18-1.4,1.51-.88,2.75-.09,4-.1,1.32,0,2.48-.51,3.66-.73.88.22,1.67.48,2.5,1.13-1.83,1.02-3.46,2.08-5.42,2.41-1.12-.09-2-.99-3.09-.94-.5.51-.02.76.08,1.27-.82.36-.64,1.46-1.2,2.24-.69.52-1.72.79-1.96,2.12,2.14.17,4.03-1.8,6.43-.8-1.04,1.45-1.46,3.02-2.16,4.67,2.02-.29,2.23-2.21,3.31-3.13.49.08.79.3,1.03.75-.07,1.13-1.38,1.86-1.2,3.19.11.82.11,1.64.43,2.85,1.7-4.24,5.02-6.68,7.55-9.76,1.49-1.82,2.86-3.74,4.99-5.34-2.72.07-3.6.85-5.37,4.53-1.87.61-2.79,2.61-4.45,3.59-.8-.06-.98-.56-1.05-1.05.1-.92,1.39-.57,1.41-1.61-1.59-.93-3.53.16-5.32-.77,1.74-1.2,3.35-1.89,5.16-.76.89-.36,1.93-.5,2.16-1.44.44-1.78,2.08-2.27,3.14-3.32,1.17-.09,2.28-.27,3.38-.25,2.55.04,4.08-1.56,4.75-3.61.7-2.11,1.84-3.81,3.16-5.5.67-.87,1.46-1.67,1.83-2.74-.15-.82-1.34-.17-1.45-1.12.18-1.47,1.08-2.44,2.31-3.07.76.23.42.91.78,1.23,1.81-1.6,2.1-4.52,4.73-5.7.69,1.64-1,2.07-1.05,3.09-.17.56.13.98.39,1.36,1.11,1.66,1.42,3.31.24,5.09-.48.72-.01,1.55-.03,1.99-.26,1.05-1.16.97-1.44,1.58-.71,1.57.59,3.08.28,4.49-.6.76-1.21.8-1.85.55-2.66-1.07-4.95-.55-6.96,1.48-.37.38-.91.58-1.38.87,1.36,2.07,2.05,2.08,6.56.21.28,1.83,1.76,3.52.5,5.44.79.55,1.29-.25,2.08-.13.33.97.58,1.98-.06,2.96-.49.5-1.12.2-1.55.4-.91.64-1.05,1.66-1.54,2.5.14.76,1.06.89,1.35,1.66.06.79-.54,1.38-.93,2.06-1.59-.16-1.87,1.11-2.42,2.09.59.49,1.09.37,1.75-.07.1-.63.72-1.23.62-2.08,1.3.5.93,1.61,1,2.55-.88,1.25-2.06,1.46-3.4,1.23-1.14-.2-2.04,0-2.42,1.38,1.68.46,3.85-.62,4.84,1.64-.96,2.49-3.11,3.19-5.38,3.57-.47.45-.65.97-.81,1.53.32,1.68,1.39,3.12,1.62,4.81.8.25,1.04-.78,1.7-.64.51.21.83.53.97,1.05-.8,1.82-1.76,3.54-3.47,4.86h-15.6c-.18-4.09.19-8.14-.82-12.59-.62,4.45.42,8.43-.35,12.53h-34.88c-.29-1.92-.61-3.85-.89-5.79-.79-5.57-1.6-11.13-2.31-16.71-.19-1.49-.55-3.05-.46-4.49.22-3.47-.99-6.72-1.15-10.13-.12-2.48-.78-4.97-1.14-7.47-.53-3.76-1.1-7.51-1.64-11.27-.38-2.66-.66-5.34-1.11-7.99-.38-2.21-.3-4.35.01-6.59.34-2.42.26-4.92.93-7.29,1.37-4.84,2.8-9.67,4.34-14.45,1.35-4.2,2.43-8.46,3.38-12.76.22-.99.15-2.07.03-3.09-.09-.74-.12-1.41.31-2.19,3.05-1.32,6.01-2.87,5.57-6.96,1.21-1.37,2.66-1.13,3.9-1.03,1.02.3.65,1.25,1.15,1.94,1.25-1.86,2.9-3.15,4.17-4.77,1.08-1.38,2.49-1.94,4.12-2,1.05-.03,2.04-.28,2.96-.44,1,.28.77,1.18,1.07,1.8.67-.4,1.49-.45,1.82-1.4.43-1.23,1.51-1.5,2.73-1.43,1.35.08,2.69.1,3.95-.22,1.15.48,1.86,1.76,3.12,1.14,2.89,6.25,2.98,4.8,5.32,4.67,1.07-.56.12-2.13,1.42-2.62.76.96-.84,1.67-.18,2.7,2.7.47,5.67-.3,8.54.84,1,1.8,2.21,3.39,4.48,3.84.6.12,1.08.88,1.83,1.53-2.85.78-5.39,1.52-8.12.79-1.16-.31-2.37-.56-3.03.75-.03.74.35.99.9,1.1-.48.95-1.53,1.32-1.9,2.72v2.05c-.85,1.29-2.67.43-3.12,1.72-1,.35-1.5-.45-2.26-.49-.17.12-.42.21-.53.39-.45.69-1.02,1.3-1.79,1.52-2.56.71-3.69,2.33-3.38,4.43-.21,1.67-1.79,1.91-1.82,3.19,2.41.54,4.97.17,7.11,1.66-1.45.6-2.86.56-4.21-.13-.89.33-1.92.19-2.72,1.33,1.69.36,3.17.11,4.59.16.68.26.62,1.11,1.19,1.37,1.19-.63,2.35-1.25,3.58-1.91,1.71.51,3.42,1.03,5.19,1.56,0,1.41,0,2.76,0,4.1-.36.79-1.4.74-1.88,1.59.38.76,1.63,1.36.89,2.57l.04-.06Zm-18.82,28.51c1.84-.39,2.05-2,2.98-3.04-1.18-.68-1.97.31-2.72.31-3.74-1.65-5.84-5.17-9.36-7.11-.48.61-1.68-.02-1.96,1.09,2.83,1.8,5.81,3.29,7.78,6.34,1.53-.13,2.08,1.49,3.29,2.42Zm30.94,4.29c-.14,1.47-.27,2.86,1.11,3.82,2.74-.73,3.56-3.36,1.97-6.4-.93.99-1.93,1.85-3.08,2.58Zm-57.18-17.53c1.45.65,2.77.27,3.98.68,1.27.43,2.53-.02,3.74-.32.83-.21,1.83-.68,1.36-2.15-1.87.67-3.75.28-5.61.31-1.28.02-2.49.16-3.46,1.49Zm14.85,11.68c-1.76-1.76-3.96-2.71-5.92-4-.45-.29-.89-.19-1.16.42,1.22,2.39,4.2,2.65,5.6,4.74.69-.17,1.12-.47,1.48-1.15Zm11.62,10.02c-1.29-1.91-3.41-3.05-4.42-4.88-.92-.19-1.38,0-1.59.66.54,1.71,3.73,4.16,6.01,4.22Zm1.46-68.34c1.57,1.51,3.17,2.1,5.29,1.17-.44-1.18-.8-2.27-2.02-3.22-.7,1.19-2.24.85-3.27,2.05Zm8.89,7.32c1.05-1.17.45-1.67-.36-2.23-1.64.58-3.89,0-4.83,2.5,1.95,1.03,3.49-1.23,5.19-.27Zm-2.88,19.05c-1.83.14-3.47.49-5.26,1.35,2.11.48,3.87,1.47,5.99.98-.39-.77-.68-1.47-.73-2.33Zm-14.71,36.7c-.08-2.37-1.73-2.48-2.83-3.12-.74.47-1.3.88-.88,1.81,1.05.37,2.13.75,3.72,1.31Zm3.63-2.89c-.63-2.19-.88-2.32-3.1-1.75.36,2.16,1.17,2.66,3.1,1.75Zm18.06-33.21c-.02-1.19-.32-2.22-1.53-2.96-.77,1.26-.9,2.5-.88,3.78,1.09.25,1.82-.07,2.41-.82Zm-7.06,34c-1.21-2.65-2.27-3.54-4.07-3.56.73,1.75,1.82,3.06,4.07,3.56Zm-35.17-8.25c1.08,2.23,2.66,3.41,4.39,3.22-1.5-1.07-2.35-2.77-4.39-3.22Zm20.01,5.43c-.21-2.25-.59-2.53-3.47-2.93.37,1.86,2.14,1.78,3.47,2.93Zm-.98,7.21c-.22,1.37.43,2.73,1.37,2.98.64-.48.87-1.07.47-1.91-.46-.51-1.04-.95-1.84-1.07Zm-4.29-19.48c-1.62-.43-2.79-.68-3.98.58,1.44.62,2.58.93,3.98-.58Zm26.41-45.99c-1.36,1.04-1.2,1.91-.3,2.86,1.54-.73,1.11-1.66.3-2.86Zm-36.67,49.99c-1.43.29-2.62.53-4.05.82,1.89,1.06,2.47.93,4.05-.82Zm26.12-8.44c.27.42.53.2.73-.03.23-.25.64-.47.36-.96-.72-.02-.96.42-1.09.98Z"/>
  <path class="cls-34" d="m189.09,158.95c-1.18.44-1.56,1.56-2.24,2.37-1.1.84-2.69.66-3.56,1.97-.32,1.04.05,1.78.95,2.13,1.01.17,1.19-1,2.01-.88.82.62.91,1.43.66,2.37-.96.84-2.56.94-2.79,2.64-.18,1.31-.65,2.58-.98,3.8-.82.68-1.85.58-2.6.97-.63,1.13.34,1.67.71,2.41v2.87c-.74,1.03-1.63,1.62-2.96,1.72-1.33.1-2.64.45-3.94.79-1.16.3-2.2-.06-3.28-.33-.23-.06-.46-.11-.69-.14-2.42-.28-4.95-.18-6.97-1.95-.16-.14-.6.04-.92.07-1,.97-.62,2.7-2.01,3.4-1.15.58-2.49.4-3.63,1.09-2.24-1.34-3.9-3.08-5.26-5.74,3.15.09,5.46-1.01,7.76-2.22,1.24-.66,2.61-.5,3.92-.13,1.68.48,3.39.62,4.92.87.97-.56,1.61-1.14,2.08-1.92-.58-1.41-1.87-.86-2.87-1.1-.74-.2-1.03-.97-1.74-1.35-1.59-.04-3.19.86-5.01.27-.73-2.63-2.42-4.79-4.38-6.83,1.33-1.94,3.55-.66,5.21-1.77.32-.55.68-1.35,1.19-2.03.47-.62,1.12-1.11,1.75-1.72,2.69.33,4.98-.6,7.2-2.17,1.31-.93,2.97-1.41,4.53-1.96,1.96-.68,3.77-1.63,5.53-2.69,2.45-1.48,4.32-1.15,5.92,1.13.62.88,1.14,2.24,1.48,4.05Zm-4.3-3.23c-1.01,2.21-.95,2.49.75,3.92,1.75-1.97,1.57-2.92-.75-3.92Z"/>
  <path class="cls-34" d="m36.17,205.77c1.52-.49,1.18-1.61,1-2.6-.9-1.14-2.15-1.15-3.49-1.51-.39-.48-.89-1.11-1.28-1.6-.7-.01-.83.75-1.42.51-.75-1.48,1.38-1.58,1.3-2.81-1.44-.97-2.42.41-3.43.81-1.33-.37-1.75-1.33-1.5-2.27.64-2.41-.02-4.19-2.15-5.32.15-.93.81-1.31,1.22-1.77.43-.63-.27-1.33.5-2.11.68-.5,1.74-.66,2.87-.47.79.32,1.21,1,1.61,1.69.39.68.74,1.39,1.01,1.88,1.02.89,2.71.59,2.72,2.35.05,1.02-1.27,1.74-.83,3.15,2.06.22,1.68-2.59,3.42-2.74,1.09.31,1.34,1.94,2.73,1.86-.13.96-1.07,1.09-1.27,1.63-.38,1.14.4,1.77.84,2.67-1.48,2.52.21,5.5-1.07,8.22,1.37.89,2.75,1.22,4.28,1.3,2.03.11,3.92.62,4.75,2.37.67,3.72-.47,6.43-3.19,8.63-1.66-.32-3.28-1.25-5.29-.99.94-1.89,2.9-1.46,3.91-2.31.97-.22,1.49.67,2.27.39.67-.16,1.06-.59,1.14-1.25-.15-.92-.72-1.03-3.22-.62-1.68-1-3.51-.76-5.25-.06-.59-.03-.89-.57-1.37-.48-.46-.49-.38-1.07-.45-1.62-.28-.51-.93-.06-1.25-.49-.01-1.63,2.25-1.74,2.31-3.36-.88-.57-1.91.04-2.73-.4-.65-1.49,1.01-1.79,1.34-2.76l-.06.06Z"/>
  <path class="cls-3" d="m101.86,3.77c-.5,1.1-.01,2.78-1.99,3.04-.69-.39-.66-1.74-1.87-1.47-1.01.21-1.23,2.07-2.94,1.21-.66-1.31-2.25-1.72-3.6-2.41-.39-.63-.07-1.31-.33-2.03-.55.41-1.08.81-1.66,1.24-1.49-.4-2.93-1.09-4.53-1.13,5.8-1.81,11.48-2.25,16.92,1.55Z"/>
  <path class="cls-3" d="m132.64,223.01c1.47.47,2.91.9,4.02,2.06.42,1.96-.46,3.6-1.34,5.51-2.89-1.47-5.75-2.68-8.17-4.89,1.62-1.62,3.69-1.91,5.49-2.68Z"/>
  <path class="cls-41" d="m40.02,172.36v2.78c-3.47-.86-6.69.58-10.19.48-1.34.63-2.49,2.29-4.52,1.58-.26-1.66,1.59-1.93,1.71-3.05,2.36-.99,4.42-2.19,7.24-2.35,1.5.67,3.45,1.21,5.76.57Z"/>
  <path class="cls-54" d="m33.6,224.86c-2.14-1.81-2.16-4.44-2.65-6.91.25-1.87,1.81-2.12,3.33-2.67.85,1.19.91,2.67,1.53,3.92.66,1.32,2.09,1.82,3.12,3.06-1.37.57-2.56.03-3.59.36-.9.55-.86,1.75-1.74,2.25Z"/>
  <path class="cls-41" d="m90.57,17.71q-1.62-1.96-.39-4.22c.85-.26.39.96,1.29.92,1.38-.64,1.95-2.71,3.9-3.02.63.28.71,1.31,1.64,1.36-.14,1.34-.26,2.57-.4,3.86-2.01.76-4.32-.54-6.06,1.11Z"/>
  <path class="cls-41" d="m93.93,23.54c1.91-1.18,3.63-1.79,5.46-.44,1.06.24,2.12-.37,3.08.21.48,3.06-1.87,4.51-6.21,3.86-.81-.91.08-1.98-.26-2.94-.53-.45-1.28.06-2.07-.7Z"/>
  <path class="cls-3" d="m122.77,288.12c.74,2,.35,2.82-1.35,3-2.19.23-4.41.5-6.06-.48-1.6-.1-2.3,1.33-3.83.78-.35-.33-.93-.85-1.7-1.57,2.14-1.29,4.43-.36,6.47-.97,2.05-.61,4.28.22,6.48-.76Z"/>
  <path class="cls-54" d="m123.71,272.54c.5-.38.98-.74,1.69-.65,1.23.15,2.32-.1,3.24-1.07.62-.65,1.45-.47,2.22-.13.38,1.21-1.22,1.39-1.22,2.45.67.38,1.74.1,2.19,1.25-.96.79-2.01,1.65-1.93,3.03-.71.33-1.24.3-1.93.01-1.12-1.77-1.59-4.32-4.23-4.95l-.04.06Z"/>
  <path class="cls-25" d="m114.76,56.04c-3.09.16-5.43,2.59-8.54,2.56-.83-.8-.82-1.92-1.58-2.91,2.56-1.41,5.3-1.38,8-1.27,1.38.06,1.37.23,2.11,1.62Z"/>
  <path class="cls-41" d="m84.18,29.38c-1.73-1.06-1.44-2.98-2.8-4.07.78-.89,1.38-1.58,1.97-2.27,1.1.14,1.65,1.04,2.22,1.32.95.34,1.48-.15,2.12-.3.25.9.49,1.78.75,2.72-1.16,1.36-2.83,1.73-4.26,2.6Z"/>
  <path class="cls-54" d="m103.11,40.97c.39.71.41,1.38.04,2.07-.75.25-1.48.5-1.74.59-1.07.52-.97,1.34-1.66,1.83-.64.31-1.46.42-2.27.02-1-2.05-.95-2.51.55-4.58,1.65.07,3.38-1.36,5.08.08Z"/>
  <path class="cls-46" d="m160.92,141.77c-1.4-.23-1.73,1.21-2.32,1.54-1.4.34-1.66-1.09-2.6-.95-.94-.08-1.21,1.06-2.22,1.06-1.17-1.21-2.48-2.41-4.32-3.67,4.32-.63,7.74,1.24,11.46,2.01Z"/>
  <path class="cls-22" d="m81.68,36.08c1.17.41,2.13.6,2.75,1.66.37.92.18,1.94-.7,2.62-1.41,1.08-2.86,2.12-4.53,3.74.34-3.16.83-5.67,2.49-8.02Z"/>
  <path class="cls-3" d="m165.15,147.13c-.74.16-1.44.21-2.14-.05-.9-1.06-.12-2.08.07-3.02,0-.89-.51-1.37-1.03-1.85.09-.26.35-.25.53-.21,3.31.63,4.45.49,4.54,3.31-.43.8-1.23,1.3-1.97,1.83Z"/>
  <path class="cls-38" d="m132.36,305.8c-.2,2.65-5.2,8.68-7.41,9.13.14-1.51,4.32-6.73,7.41-9.13Z"/>
  <path class="cls-20" d="m138.12,291.01c0,3.19-1.48,5.34-5.81,8.62-.51-.08-.78-.42-.95-1.09,2.53-2.05,3.95-5.18,6.76-7.53Z"/>
  <path class="cls-46" d="m113.92,50.87c-.08,1.4-1.12,1.92-2.39,2.48-1.34-1.02-2.73-2.09-4.21-3.22,2.46-1.23,4.84-.93,6.61.74Z"/>
  <path class="cls-57" d="m140.52,236.58c-.88-1.68.43-2.67,0-3.94,2.03-.36,3.72-1.7,5.97-.87-1.55,2.39-4.58,2.27-5.97,4.81Z"/>
  <path class="cls-30" d="m118.28,46.23c2.06,1.55,1.68,3.28-1.12,5.6-1.51-1.73-1.2-3.49,1.12-5.6Z"/>
  <path class="cls-9" d="m89.82,30.72c.81-.69,1.58-1.34,2.48-2.11-.12-.71-1.35-1.53-.08-2.39.54.36.98.89,1.89.82-1.01,2.45-1.46,4.89-3.85,6.23-.67-.96-.33-1.76-.43-2.56Z"/>
  <path class="cls-46" d="m126.72,308.43c-.77,2.53-4.21,6.26-6.15,7-.4-.58-.17-1.05.27-1.45,1.88-1.69,3.31-3.89,5.87-5.55Z"/>
  <path class="cls-9" d="m129.61,302.4c-1.34,2.25-2.74,4.45-5.63,4.9,1.51-2.04,2.71-4.41,5.63-4.9Z"/>
  <path class="cls-52" d="m76.03,40.49c-.85-1.69-.47-3.02.09-4.39.8.62,1.87.74,2.68,1.59.19,1.94-1.63,1.9-2.77,2.8Z"/>
  <path class="cls-3" d="m36.23,205.71c-2.65.8-4.23.33-5.28-1.59.28-.37.69-.28,1.06-.28,1.25-.01,2.49,0,3.43,0,.93.66.74,1.33.73,1.94l.06-.06Z"/>
  <path class="cls-38" d="m121.73,301.69c-1.63,2.33-3.53,3.76-5.66,5.23-.28-2.04,2.16-4.23,5.66-5.23Z"/>
  <path class="cls-9" d="m94.47,58.14c-.9,1.1-2.07,1.07-3.14,1.48-1-.7-1.9-1.41-2-2.88,1.94-.24,3.4.87,5.14,1.4Z"/>
  <path class="cls-17" d="m103.19,30.27c.33-1.34.66-2.42,1.83-2.93,1.34.27.8,2.46,2.6,2.13-1.32,1.19-2.63,1.66-4.43.79Z"/>
  <path class="cls-38" d="m88.1,51.32c-.97.1-1.4-.17-1.63-.87.23-1.04.48-2.16.72-3.21.73-.36,1.12.1,1.56.42.07.47-.42.63-.54,1.02.16.5.87.12,1.1.8.06.83-.58,1.38-1.21,1.85Z"/>
  <path class="cls-46" d="m120.36,40.57c1.83-.21,1.89-.2,4.42,1.05-.04,1.12-.85,1.16-1.65,1.1-1.38-.1-2.28-.83-2.77-2.15Z"/>
  <path class="cls-30" d="m45.89,172.25c-1.22,1.79-2.15,1.86-4.94.56,1.49-2.09,3.2-.49,4.94-.56Z"/>
  <path class="cls-40" d="m109.38,41.03c-.15,1.08-1.05,1.55-1.55,2.28-1.06.16-1.59-.52-2.25-1.1,1-1.48,2.26-1.65,3.8-1.18Z"/>
  <path class="cls-2" d="m88.68,39.41c.52-1.18.89-2,1.25-2.81.98-.22,1.74-.08,2.42.8-.84,1.21-1.72,2.16-3.67,2.01Z"/>
  <path class="cls-7" d="m117.02,295.84c-1.44.15-1.97-.53-2.55-1.41,1.08-.98,2-1.41,3-.34.34.83-.26,1.21-.46,1.75Z"/>
  <path class="cls-57" d="m86.52,43.84q-.21,2.03-2.19,2.15c-.18-2.23.06-2.48,2.19-2.15Z"/>
  <path class="cls-14" d="m117.22,314.24c.65-1.76,1.67-3.09,4.02-3.62-.94,2.05-2.44,2.89-4.02,3.62Z"/>
  <path class="cls-61" d="m95.56,55.99c-.81.18-1.67.4-2.56.31-.66-1.11-.09-1.8.63-2.63.67.8,1.28,1.53,1.93,2.32Z"/>
  <path class="cls-14" d="m138.19,265.09c-.54.11-.92.23-1.4-.14-.24-1.19.61-1.86,1.54-2.76.6,1.08.39,1.95-.14,2.9Z"/>
  <path class="cls-51" d="m78.39,52.89c-.73.51-1.37.95-1.89,1.31-.51-.02-.74-.22-.95-.6.05-.68.48-1.2,1.06-1.67.73-.21,1.37-.16,1.78.95Z"/>
  <path class="cls-18" d="m141.72,178.65c.73,1.1.51,2.04.25,3.03-1.79-1.26-1.85-1.78-.25-3.03Z"/>
  <path class="cls-35" d="m97.84,29.72c.17.86.2,1.55-.01,2.37-.69.18-1.32.16-1.8-.6-.09-1.17.58-1.64,1.81-1.77Z"/>
  <path class="cls-21" d="m128.26,282.48c-.3-1.03,0-1.62.69-1.97.74.15.78.66.95,1.07-.17.85-.67,1.13-1.63.9Z"/>
  <path class="cls-53" d="m100.03,20.87c1.09-.4,2-1.12,3.27-.47-.94,1.23-1.93,1.3-3.27.47Z"/>
  <path class="cls-33" d="m130.74,283.9c-.12-.91.1-1.39.42-1.84.63-.33,1.19-.35,1.75.38-.55.68-1.22,1.13-2.17,1.47Z"/>
  <path class="cls-9" d="m136,243.6c.85.14,1.13.61,1.37,1.12.03.65-.33,1.01-.88,1.22-.8-.62-1.05-1.34-.49-2.34Z"/>
  <path class="cls-32" d="m111.28,41c.05-.69.65-.81.92-1.13.73.08.85.52.94,1.01-.58.82-1.2.82-1.86.12Z"/>
  <path class="cls-26" d="m100.94,56.51c-.59.78-.98,1.34-1.98.88.34-.89.6-1.61,1.98-.88Z"/>
  <path class="cls-31" d="m121.63,255.58c.91.81.67,1.35-.11,1.91-1.14-.65-.32-1.24.11-1.91Z"/>
  <path class="cls-59" d="m47.6,171.93c.69-1.02,1.49-.64,2.39-.79-.66,1.02-1.32,1.28-2.39.79Z"/>
  <path class="cls-23" d="m138.47,255.48c.35.96.19,1.71.13,2.62-1.48-.89-.78-1.65-.13-2.62Z"/>
  <path class="cls-56" d="m83.55,50.6c.67-.4,1.01-.34,1.36-.05.27.44.15.83-.25,1.21-.85.06-.81-.66-1.11-1.16Z"/>
  <path class="cls-34" d="m80.73,4.73c.6-.41,1.02-.93,2.02-.8-.59.84-1.02,1.33-2.02.8Z"/>
  <path class="cls-6" d="m27,209.48c.82.65.67,1.01-.04,1.28-.56-.37-.37-.76.04-1.28Z"/>
  <path class="cls-34" d="m159.71,215.79c-.08-.2-.02-.32.2-.31.06,0,.15.1.15.16,0,.22-.11.28-.31.2l-.04-.04Z"/>
  <path class="cls-16" d="m50.08,145.21c.86,2.41.45,4.81.66,7.16.22,2.47-1.07,4.61-.57,7.18-2.44.58-4.12,2.63-6.64,2.93-.65.09-.5-.82-1.05-.83-2.82.88-5.37.39-7.63-1.3-.06-1.3-.23-2.33.01-3.03.56-1.12,1.61-.85,2.19-1.5.28-.81-.5-1.44-.42-2.6-.64,1.08-1.23,1.78-2.38,2.01-.69-1.73-2.44-2.89-2.99-5.18,2.98.34,5.7.25,8.28.04.46,1.15-.38,1.62-.39,2.73,2.31-1.44,4.91-1.49,7.2-2.55,1.64-.76,2.58-2.05,2.78-3.85.04-.4.03-.8.95-1.22Z"/>
  <path class="cls-50" d="m97.3,83.99c-.03-.79-.05-1.42.7-1.94,4.24,1.36,8.05,3.61,11.33,6.76.9.86,1.41,1.9.96,3.18-.7.67-1.34.27-1.94-.11-3.77-2.43-7.55-4.84-11.05-7.89Z"/>
  <path class="cls-58" d="m122.04,93.57c3.54,3.4,3.71,3.79,2.52,5.65-.63.05-.62-.62-1.06-.93-1.63.13-2.8,2.08-4.6,1.5-.87-.7.16-1.23-.1-1.99-.87-2.5.51-4.15,3.24-4.23Z"/>
  <path class="cls-58" d="m25.9,157.88c-3,.39-3.93,2.66-4.89,4.63h-2.8c-.35-.59-.25-1.12-.11-1.66.47-.27.94-.55,1.43-.83.02-.5-.27-1.02.07-1.7,1.53-.78,3.3-1.49,4.5-3.04.43-.55.98-.32,1.65-.31-.14.97-1.03,1.85.15,2.91Z"/>
  <path class="cls-49" d="m90.14,216.29c.84-.88,2.1-1.34,1.54-2.7,1.63-.47,2.32.25,2.71,1.45-.16.9-.74,1.54-1.28,2.31-1.03.03-2.02,0-2.97-1.06Z"/>
  <path class="cls-48" d="m154.54,208.95c-.09,1.59-1.99,1.79-2.49,3.12-.19.52-1.08.53-1.87.18-.14-1.47,1.19-2.05,1.98-2.87.56-.58,1.34-1.19,2.37-.42Z"/>
  <path class="cls-12" d="m95.01,99.88c.35-1.31,1.08-2.23,1.96-3.16,1.19,1.08,1.01,2.12.35,3.07-.54.78-1.33,1.02-2.31.09Z"/>
  <path class="cls-11" d="m140.54,186.09c-.07.62.33,1.27-.18,1.93-.44.51-1.1.64-1.88.66-.86-1.21.08-2.04.46-2.86.8-.46,1.12.32,1.66.34l-.06-.07Z"/>
  <path class="cls-24" d="m156.95,210.44c.85.49,1.79.85,2.48,1.77-1.51,1.12-2.75.55-4-.28.18-.95.81-1.23,1.52-1.49Z"/>
  <path class="cls-36" d="m62.44,145.83c1.28.91,1.08,2.04.77,3.31-1.54-1.25-1.57-1.38-.77-3.31Z"/>
  <path class="cls-15" d="m131.68,176.02c1.1-.23,1.53.22,1.44.94-.09.75-.24,1.68-1.47,1.4-.34-.76-.21-1.51.03-2.34Z"/>
  <path class="cls-27" d="m37.61,164.04c-.32,2.13-.83,2.35-2.44,1.08.63-.64,1.3-1.1,2.44-1.08Z"/>
  <path class="cls-28" d="m157,216.55c-.89,1.07-1.81.64-2.75.63.72-.93,1.52-1.13,2.75-.63Z"/>
  <path class="cls-62" d="m84.8,182.78c-.91.22-1.13-.14-1.11-.8.49-.37.86-.3,1.15.23-.01.15-.02.29-.04.57Z"/>
  <path class="cls-45" d="m104.94,301c-1.21-.92-1.75-2.55-3.29-2.42-1.97-3.05-4.95-4.54-7.78-6.34.29-1.11,1.49-.48,1.96-1.09,3.52,1.94,5.62,5.46,9.36,7.11.75,0,1.54-.99,2.72-.31-.92,1.04-1.14,2.65-2.98,3.04Z"/>
  <path class="cls-1" d="m135.88,305.29c1.15-.73,2.15-1.6,3.08-2.58,1.59,3.04.77,5.67-1.97,6.4-1.38-.96-1.25-2.35-1.11-3.82Z"/>
  <path class="cls-10" d="m78.7,287.76c.97-1.33,2.18-1.47,3.46-1.49,1.86-.02,3.73.36,5.61-.31.48,1.47-.52,1.95-1.36,2.15-1.2.3-2.46.74-3.74.32-1.2-.4-2.53-.02-3.98-.68Z"/>
  <path class="cls-55" d="m93.55,299.44c-.36.68-.79.99-1.48,1.15-1.39-2.09-4.38-2.35-5.6-4.74.27-.6.71-.71,1.16-.42,1.96,1.29,4.16,2.24,5.92,4Z"/>
  <path class="cls-8" d="m105.17,309.47c-2.28-.06-5.47-2.51-6.01-4.22.21-.65.67-.85,1.59-.66,1.01,1.83,3.13,2.97,4.42,4.88Z"/>
  <path class="cls-48" d="m106.63,241.12c1.03-1.2,2.57-.86,3.27-2.05,1.22.95,1.58,2.03,2.02,3.22-2.13.93-3.73.34-5.29-1.17Z"/>
  <path class="cls-49" d="m115.52,248.45c-1.7-.96-3.24,1.3-5.19.27.93-2.49,3.19-1.92,4.83-2.5.81.55,1.41,1.05.36,2.23Z"/>
  <path class="cls-49" d="m112.64,267.5c.05.85.34,1.56.73,2.33-2.11.5-3.88-.49-5.99-.98,1.79-.86,3.43-1.22,5.26-1.35Z"/>
  <path class="cls-37" d="m97.94,304.2c-1.59-.56-2.66-.94-3.72-1.31-.41-.93.14-1.34.88-1.81,1.11.64,2.76.75,2.83,3.12Z"/>
  <path class="cls-43" d="m101.56,301.31c-1.93.91-2.74.42-3.1-1.75,2.21-.57,2.46-.44,3.1,1.75Z"/>
  <path class="cls-47" d="m119.62,268.11c-.59.75-1.32,1.07-2.41.82-.02-1.28.11-2.52.88-3.78,1.21.74,1.51,1.77,1.53,2.96Z"/>
  <path class="cls-60" d="m112.56,302.1c-2.25-.51-3.34-1.81-4.07-3.56,1.8.02,2.86.91,4.07,3.56Z"/>
  <path class="cls-42" d="m77.39,293.85c2.04.45,2.88,2.15,4.39,3.22-1.73.19-3.31-.99-4.39-3.22Z"/>
  <path class="cls-13" d="m97.39,299.28c-1.32-1.15-3.09-1.06-3.47-2.93,2.87.4,3.25.68,3.47,2.93Z"/>
  <path class="cls-44" d="m96.42,306.49c.79.12,1.38.55,1.84,1.07.41.84.17,1.43-.47,1.91-.94-.25-1.59-1.61-1.37-2.98Z"/>
  <path class="cls-29" d="m92.13,287.01c-1.4,1.51-2.54,1.2-3.98.58,1.2-1.26,2.36-1.01,3.98-.58Z"/>
  <path class="cls-39" d="m118.54,241.03c.81,1.21,1.25,2.13-.3,2.86-.91-.96-1.06-1.83.3-2.86Z"/>
  <path class="cls-5" d="m81.87,291.02c-1.58,1.75-2.16,1.87-4.05.82,1.43-.29,2.61-.53,4.05-.82Z"/>
  <path class="cls-4" d="m135.75,332.78c.1.86-.52,1.45-.62,2.08-.65.44-1.16.56-1.75.07.56-.99.84-2.26,2.42-2.09l-.06-.06Z"/>
  <path class="cls-19" d="m107.99,282.58c.13-.56.37-1,1.09-.98.28.48-.13.7-.36.96-.21.23-.46.45-.73.03Z"/>
  <path class="cls-60" d="m184.79,155.72c2.32,1,2.5,1.96.75,3.92-1.7-1.43-1.76-1.71-.75-3.92Z"/>
</svg>