<svg width="951" height="1518" viewBox="0 0 951 1518" fill="none" xmlns="http://www.w3.org/2000/svg">
<path d="M925.132 473.557C899.201 497.871 872.48 520.823 843.213 540.726C835.574 545.926 829.441 553.099 822.339 559.016C812.476 567.228 801.573 573.397 790.526 578.094C778.511 583.187 768.325 590.682 762.73 600.616C755.628 613.203 743.757 619.085 733.929 627.369C727.796 632.497 721.555 637.733 715.637 643.184C709.504 648.85 703.228 654.552 697.956 660.971C685.797 675.675 669.227 682.811 651.939 688.549C646.021 690.522 639.243 689.912 633.289 690.45C631.137 688.298 629.415 686.577 627.622 684.784C626.295 664.056 630.922 644.403 636.696 624.356C641.036 609.366 644.658 593.874 646.021 577.736C647.922 554.892 649.931 531.51 658.754 509.706C659.579 507.662 660.511 504.434 659.507 503.035C653.84 495.002 657.75 485.822 655.956 477.538C649.68 448.884 653.266 419.943 652.657 391.146C652.047 361.883 652.836 332.584 652.405 303.284C652.083 280.978 645.268 260.107 634.293 240.956C630.527 234.358 625.793 226.325 615.571 227.329C592.868 213.701 567.69 216.678 542.942 216.606C530.855 208.179 518.804 199.751 506.502 191.18C503.525 192.435 500.584 194.157 497.428 194.945C486.704 197.671 477.235 202.441 469.99 210.868C465.901 215.602 460.808 219.188 458.011 225.607C456.038 230.126 449.367 232.565 444.776 235.972C432.797 244.901 422.719 256.126 409.843 264.051C404.893 267.1 400.159 271.654 397.254 276.675C388.466 291.844 373.725 301.312 362.284 315.729C362.176 321.18 360.921 327.599 365.189 334.305C367.341 337.712 365.584 343.629 365.584 348.399C365.584 362.744 367.843 377.554 365.046 391.325C360.885 411.874 364.866 432.603 361.387 452.578C358.303 470.186 358.984 487.507 358.446 504.972C358.195 513.328 358.411 521.719 358.411 530.075C366.552 535.598 357.478 546.644 365.512 552.31C366.086 552.704 365.584 554.605 365.584 555.788V557.581C362.858 607.967 370.139 658.138 369.242 708.488C368.991 722.941 365.62 736.066 358.949 749.12C353.963 758.91 350.843 769.812 350.95 781.754C351.524 836.121 350.95 890.524 351.381 944.89C351.524 962.319 351.596 980.214 355.434 997.069C358.626 1011.16 357.083 1026.55 365.44 1039.42C364.364 1052.19 368.094 1065.21 363.36 1077.87C362.32 1080.7 362.212 1084.82 363.504 1087.41C370.748 1101.57 372.829 1117.31 375.77 1132.41C378.137 1144.64 383.338 1154.65 390.08 1164.22C399.011 1176.92 408.551 1189.11 418.773 1200.91C430.86 1214.86 445.888 1224.97 459.481 1236.91C465.973 1242.62 475.119 1245.23 482.615 1249.97C488.748 1253.88 493.482 1253.2 499.938 1249.86C512.958 1243.15 524.973 1235.16 537.203 1227.12C557.001 1214.11 573.643 1197.93 589.604 1180.97C598.965 1171 606.999 1159.67 614.961 1148.48C617.759 1144.57 619.48 1139.37 620.054 1134.56C622.063 1117.74 624.43 1101.07 630.993 1085.25C628.447 1074.57 634.867 1064.96 634.723 1054.45C634.652 1049.46 635.19 1044.69 637.198 1039.42C639.494 1033.43 638.956 1025.54 635.369 1017.62C631.782 1009.66 634.042 998.791 634.759 989.287C635.405 980.788 633.54 972.54 637.629 963.61C642.686 952.493 644.228 903.542 641.538 891.886C637.916 876.251 637.342 860.185 634.042 844.728C632.32 836.731 633.755 827.622 630.384 821.346C626.151 813.528 629.917 805.961 627.227 799.255C621.883 786.13 624.896 772.753 623.748 759.807C632.033 751.989 638.633 743.024 650.002 739.724C653.553 738.684 656.1 734.381 659.148 731.619C671.701 720.179 682.533 707.018 696.772 697.12C715.458 684.174 732.817 669.399 751.432 656.202C764.2 647.129 777.507 636.083 782.384 619.228C782.815 617.722 784.823 616.646 786.724 614.745H802.577C814.556 605.78 827.074 596.922 839.017 587.419C850.889 577.951 862.223 567.766 875.098 556.792C881.626 558.084 889.947 559.733 899.021 561.526C901.819 564.324 904.903 568.089 908.669 570.958C911.61 573.181 908.956 579.601 915.914 579.242C917.564 579.17 918.819 587.311 921.689 590.359C927.248 596.348 922.872 605.278 928.682 610.836C929.866 630.13 936.43 648.42 940.16 667.211C942.921 681.269 942.419 696.331 949.772 709.744C952.282 714.334 950.166 721.47 950.166 726.204C943.065 740.011 935.533 752.455 930.225 765.796C925.921 776.59 923.984 788.389 921.617 799.865C919.895 808.221 921.366 818.118 917.349 824.896C912.543 832.929 918.21 842.684 910.929 849.247C908.49 871.373 905.728 893.464 907.163 915.806C913.332 924.198 910.821 933.952 910.427 942.99C910.14 949.732 914.731 955.362 914.013 961.208C912.148 976.772 912.148 992.443 904.078 1007.25C892.494 1028.56 883.384 1051.22 873.305 1073.35C867.351 1086.4 860.931 1099.31 855.695 1112.65C850.387 1126.21 839.914 1135.28 830.122 1145.04C829.548 1145.61 827.863 1145.11 825.424 1145.11C825.029 1139.73 824.599 1134.13 823.953 1125.35C820.905 1130.4 819.327 1133.27 817.497 1135.96C811.723 1144.35 806.415 1153.14 799.887 1160.89C788.518 1174.3 776.251 1186.96 764.559 1200.12C759.609 1205.71 755.915 1212.56 750.428 1217.44C739.237 1227.3 727.366 1236.45 715.458 1245.45C702.797 1255.02 689.67 1264.03 676.866 1273.42C659.112 1286.4 642.291 1300.25 622.601 1310.97C602.731 1321.8 585.659 1337.36 571.312 1356.41C554.742 1378.46 534.944 1398.51 514.392 1417.01C502.341 1427.84 489.179 1438.17 475.083 1446.92C468.95 1450.72 464.646 1457.25 460.701 1464.03C445.888 1489.45 423.328 1504.8 394.635 1511.08C384.306 1513.34 373.941 1515.6 363.037 1518C361.244 1510.54 359.415 1502.9 357.263 1494.01C337.859 1485.76 316.519 1477.94 296.398 1467.72C279.577 1459.19 263.724 1448.39 254.435 1430.71C253.645 1429.21 252.103 1428.09 250.884 1426.8C231.014 1405.75 211.288 1384.56 191.238 1363.69C182.702 1354.79 172.48 1348.77 159.353 1349.7C122.519 1314.41 105.877 1267.43 85.9353 1219.52C85.9353 1209.84 85.756 1197.29 86.0071 1184.74C86.2581 1172.58 82.8508 1161.07 78.0448 1150.38C73.167 1139.51 71.6606 1127.93 68.0022 1116.88C61.9767 1098.81 61.0442 1079.55 54.6242 1061.48C52.1853 1054.59 51.6831 1045.41 54.1579 1038.71C58.677 1026.51 57.6011 1014.35 56.8479 1002.38C56.3099 993.77 61.1877 986.885 60.9007 978.744C60.6497 970.388 62.6941 961.459 60.4703 953.748C54.2655 932.159 55.6284 910.033 57.9956 888.874C61.6181 856.383 60.1834 824.036 60.7214 791.652C61.2594 758.803 60.829 725.917 60.8649 693.032C60.8649 681.52 65.8144 671.12 70.3335 661.115C75.9287 648.778 78.3317 635.725 82.277 623.029C87.1189 607.501 87.908 591.077 92.714 575.405C96.0137 564.575 94.7225 552.453 96.8386 541.193C103.868 503.573 98.4526 465.631 100.389 427.905C100.784 420.589 103.151 413.381 103.725 406.065C104.335 398.354 104.406 390.501 103.725 382.79C102.9 373.215 101.035 363.712 99.7797 355.213C104.406 352.344 107.742 350.299 111.042 348.255V320.929C111.042 317.952 109.858 314.007 111.293 312.178C114.09 308.592 116.457 304.289 114.377 301.097C108.495 292.167 111.723 278.934 101.394 273.376C99.7438 261.756 97.6636 251.034 96.8745 240.203C96.1213 229.516 98.9906 218.041 96.1572 208.107C92.1402 194.085 93.252 180.278 93.3238 166.399C93.4313 149.759 86.6168 136.634 75.3189 125.409C70.477 120.604 64.5591 116.874 59.1433 112.642C54.1938 108.769 49.7822 104.43 44.4382 100.808C28.7288 90.0493 14.4541 77.2107 0 65.5556V52.7529C22.8467 32.742 53.0102 22.091 78.1524 1.57793C96.6952 -1.54205 114.521 5.95313 132.274 13.6634C147.015 20.0469 163.263 22.1986 177.502 30.0165C177.968 30.2675 178.685 30.0882 179.259 30.0165C206.768 27.0399 229.328 41.2054 252.677 51.8564C270.825 60.1405 287.862 70.7197 305.831 79.3983C318.312 85.4231 331.619 89.0452 343.096 97.8673C358.626 109.809 363.539 116.838 373.51 135.63C378.675 145.384 378.711 156.215 384.772 165.933C395.46 160.052 405.252 153.059 414.469 144.667C430.788 129.82 449.044 117.448 469.56 109.056C482.328 103.82 492.837 95.3569 503.525 87.3238C525.977 70.4687 547.676 52.5736 570.057 35.6109C578.88 28.9048 589.066 24.2785 599.467 20.1185C614.316 14.2013 628.77 7.20825 644.874 0C655.418 6.70618 668.007 11.8703 676.615 20.8358C688.953 33.7103 704.878 39.5199 719.547 47.7323C733.176 55.335 746.949 62.6508 760.04 71.1142C762.837 72.9432 765.635 75.4535 768.719 76.0632C787.944 79.7928 804.98 89.6907 823.451 95.6079C838.085 100.306 852.18 105.255 867.782 105.578C875.601 105.721 883.348 108.447 893.498 110.455C933.453 133.837 951.637 169.699 937.577 203.05C932.807 200.361 928.216 197.492 923.374 195.125C918.497 192.758 913.368 190.893 907.773 188.562C907.773 194.766 904.796 201.185 910.427 207.856C912.471 210.294 910.821 215.961 910.749 220.121C910.57 231.632 915.627 242.283 916.739 253.365C918.676 272.156 927.965 289.8 925.06 309.202C923.984 316.482 922.8 323.762 921.438 331.006C920.182 337.676 924.522 345.099 918.102 351.268C916.596 352.702 917.887 357.006 917.887 360.018C917.887 372.534 917.815 385.05 917.887 397.601C917.959 408.575 916.883 419.513 921.222 430.272C923.697 436.44 924.343 443.505 924.917 450.211C925.526 457.347 925.06 464.556 925.06 473.449L925.132 473.557Z" fill="#4E4E4E"/>
</svg>
