<svg width="144" height="144" viewBox="0 0 144 144" fill="none" xmlns="http://www.w3.org/2000/svg">
<path d="M113.579 44.9224C111.152 47.2289 108.652 49.4061 105.913 51.2942C105.198 51.7875 104.624 52.4679 103.959 53.0292C103.036 53.8082 102.016 54.3933 100.982 54.839C99.8575 55.3221 98.9042 56.0331 98.3806 56.9754C97.716 58.1695 96.605 58.7274 95.6853 59.5132C95.1113 59.9997 94.5273 60.4964 93.9734 61.0135C93.3995 61.551 92.8121 62.0919 92.3187 62.7008C91.1808 64.0956 89.6301 64.7726 88.0122 65.3169C87.4584 65.504 86.824 65.4462 86.2668 65.4972C86.0654 65.2931 85.9043 65.1298 85.7364 64.9597C85.6123 62.9934 86.0452 61.1292 86.5857 59.2275C86.9918 57.8055 87.3308 56.3358 87.4584 54.805C87.6363 52.638 87.8242 50.4199 88.6499 48.3515C88.7271 48.1576 88.8144 47.8515 88.7204 47.7188C88.1901 46.9567 88.556 46.0859 88.3881 45.3C87.8007 42.5819 88.1364 39.8365 88.0793 37.1048C88.0223 34.3288 88.0961 31.5494 88.0558 28.7701C88.0256 26.6541 87.3879 24.6741 86.3608 22.8575C86.0083 22.2316 85.5653 21.4695 84.6086 21.5648C82.4839 20.2721 80.1276 20.5544 77.8116 20.5476C76.6804 19.7482 75.5526 18.9487 74.4013 18.1357C74.1227 18.2547 73.8475 18.418 73.5521 18.4929C72.5485 18.7514 71.6624 19.2039 70.9844 20.0033C70.6017 20.4524 70.1251 20.7926 69.8633 21.4015C69.6787 21.8301 69.0543 22.0615 68.6247 22.3847C67.5036 23.2317 66.5604 24.2965 65.3554 25.0484C64.8922 25.3375 64.4491 25.7696 64.1773 26.2458C63.3549 27.6849 61.9754 28.583 60.9046 29.9505C60.8945 30.4676 60.7771 31.0766 61.1765 31.7127C61.3779 32.0359 61.2134 32.5972 61.2134 33.0497C61.2134 34.4105 61.4249 35.8154 61.1631 37.1218C60.7737 39.0711 61.1463 41.0374 60.8207 42.9323C60.532 44.6026 60.5958 46.2457 60.5455 47.9025C60.522 48.6951 60.5421 49.4912 60.5421 50.2838C61.304 50.8077 60.4548 51.8555 61.2067 52.393C61.2604 52.4304 61.2134 52.6107 61.2134 52.723V52.8931C60.9583 57.6728 61.6397 62.4321 61.5558 67.2084C61.5323 68.5794 61.2168 69.8245 60.5925 71.0628C60.1259 71.9915 59.8339 73.0257 59.8439 74.1585C59.8976 79.3158 59.8439 84.4766 59.8842 89.6339C59.8976 91.2872 59.9044 92.9848 60.2635 94.5837C60.5622 95.9206 60.4179 97.38 61.2 98.6013C61.0993 99.8124 61.4484 101.047 61.0053 102.248C60.908 102.517 60.8979 102.908 61.0187 103.153C61.6968 104.497 61.8914 105.99 62.1667 107.423C62.3882 108.583 62.8749 109.532 63.5059 110.44C64.3417 111.644 65.2346 112.801 66.1912 113.92C67.3224 115.244 68.7288 116.203 70.0009 117.336C70.6084 117.877 71.4643 118.125 72.1659 118.574C72.7398 118.945 73.1829 118.88 73.7871 118.564C75.0055 117.928 76.13 117.169 77.2746 116.407C79.1274 115.172 80.6848 113.638 82.1785 112.029C83.0545 111.083 83.8064 110.008 84.5516 108.947C84.8134 108.576 84.9745 108.082 85.0282 107.627C85.2162 106.031 85.4377 104.449 86.052 102.949C85.8136 101.935 86.4145 101.024 86.401 100.027C86.3943 99.5539 86.4447 99.1014 86.6326 98.6013C86.8475 98.0332 86.7971 97.2848 86.4615 96.533C86.1258 95.7777 86.3373 94.747 86.4044 93.8455C86.4648 93.0392 86.2903 92.2568 86.6729 91.4097C87.1462 90.3551 87.2905 85.7115 87.0388 84.6058C86.6998 83.1226 86.6461 81.5985 86.3373 80.1323C86.1762 79.3737 86.3104 78.5096 85.9949 77.9142C85.5988 77.1726 85.9513 76.4548 85.6995 75.8187C85.1994 74.5735 85.4813 73.3046 85.3739 72.0765C86.1493 71.3349 86.7669 70.4844 87.8309 70.1715C88.1632 70.0728 88.4015 69.6646 88.6869 69.4026C89.8617 68.3174 90.8753 67.0689 92.2079 66.13C93.9567 64.9019 95.5812 63.5003 97.3233 62.2484C98.5182 61.3877 99.7635 60.3399 100.22 58.741C100.26 58.5981 100.448 58.4961 100.626 58.3158H102.11C103.231 57.4653 104.402 56.625 105.52 55.7235C106.631 54.8254 107.692 53.8592 108.897 52.8183C109.508 52.9407 110.286 53.0972 111.136 53.2673C111.397 53.5327 111.686 53.8899 112.038 54.162C112.314 54.3729 112.065 54.9819 112.716 54.9479C112.871 54.9411 112.988 55.7133 113.257 56.0025C113.777 56.5706 113.368 57.4177 113.911 57.945C114.022 59.7752 114.636 61.5102 114.986 63.2928C115.244 64.6263 115.197 66.0551 115.885 67.3275C116.12 67.7629 115.922 68.4399 115.922 68.8889C115.257 70.1987 114.553 71.3791 114.056 72.6447C113.653 73.6686 113.472 74.7879 113.25 75.8765C113.089 76.6691 113.227 77.6081 112.851 78.251C112.401 79.0131 112.931 79.9384 112.25 80.5609C112.022 82.6599 111.763 84.7555 111.897 86.8749C112.475 87.671 112.24 88.5963 112.203 89.4536C112.176 90.0931 112.606 90.6272 112.539 91.1817C112.364 92.6582 112.364 94.1448 111.609 95.5498C110.525 97.5705 109.672 99.7206 108.729 101.82C108.172 103.058 107.571 104.283 107.081 105.548C106.584 106.834 105.604 107.695 104.688 108.62C104.634 108.674 104.476 108.627 104.248 108.627C104.211 108.117 104.171 107.586 104.11 106.752C103.825 107.232 103.677 107.504 103.506 107.759C102.966 108.555 102.469 109.389 101.858 110.124C100.794 111.396 99.646 112.597 98.5518 113.845C98.0886 114.376 97.7429 115.026 97.2293 115.488C96.1821 116.424 95.071 117.292 93.9567 118.145C92.7718 119.054 91.5433 119.908 90.345 120.799C88.6835 122.03 87.1093 123.344 85.2665 124.361C83.407 125.388 81.8093 126.865 80.4666 128.671C78.9159 130.763 77.0631 132.665 75.1398 134.42C74.012 135.448 72.7801 136.427 71.461 137.257C70.887 137.618 70.4842 138.237 70.115 138.88C68.7288 141.292 66.6175 142.748 63.9322 143.343C62.9655 143.558 61.9955 143.772 60.9751 144C60.8073 143.292 60.6361 142.568 60.4347 141.724C58.6188 140.942 56.6216 140.2 54.7386 139.23C53.1644 138.421 51.6808 137.397 50.8114 135.72C50.7376 135.577 50.5933 135.471 50.4791 135.349C48.6196 133.352 46.7735 131.341 44.8972 129.362C44.0983 128.518 43.1417 127.946 41.9132 128.035C38.466 124.687 36.9086 120.231 35.0423 115.686C35.0423 114.767 35.0255 113.577 35.049 112.386C35.0725 111.233 34.7537 110.141 34.3039 109.127C33.8474 108.096 33.7064 106.997 33.364 105.949C32.8001 104.235 32.7129 102.408 32.112 100.694C31.8838 100.04 31.8368 99.1695 32.0684 98.5333C32.4913 97.3766 32.3906 96.2234 32.3201 95.0871C32.2698 94.2707 32.7263 93.6175 32.6994 92.8453C32.6759 92.0526 32.8673 91.2056 32.6592 90.4741C32.0785 88.4262 32.206 86.3272 32.4276 84.3201C32.7666 81.2379 32.6323 78.1694 32.6827 75.0974C32.733 71.9813 32.6927 68.8617 32.6961 65.7422C32.6961 64.6501 33.1593 63.6636 33.5822 62.7145C34.1058 61.5442 34.3307 60.3059 34.6999 59.1016C35.1531 57.6286 35.2269 56.0705 35.6767 54.5839C35.9855 53.5565 35.8647 52.4066 36.0627 51.3384C36.7206 47.7698 36.2138 44.1706 36.395 40.5917C36.4319 39.8978 36.6535 39.214 36.7072 38.52C36.7642 37.7886 36.7709 37.0435 36.7072 36.3121C36.63 35.4038 36.4554 34.5023 36.3379 33.696C36.7709 33.4239 37.0831 33.23 37.3919 33.0361V30.4438C37.3919 30.1615 37.2811 29.7872 37.4154 29.6137C37.6772 29.2735 37.8987 28.8653 37.7041 28.5625C37.1536 27.7155 37.4557 26.4602 36.489 25.9329C36.3346 24.8306 36.1399 23.8135 36.0661 22.7861C35.9956 21.7723 36.2641 20.6837 35.9989 19.7414C35.623 18.4112 35.7271 17.1015 35.7338 15.7849C35.7438 14.2064 35.1061 12.9613 34.0488 11.8965C33.5956 11.4407 33.0418 11.0869 32.535 10.6854C32.0718 10.318 31.6589 9.9064 31.1588 9.56281C29.6886 8.54223 28.3527 7.32434 27 6.21871V5.00423C29.1381 3.10596 31.961 2.09559 34.3139 0.149685C36.0493 -0.146282 37.7175 0.564724 39.379 1.29614C40.7585 1.90168 42.2791 2.10579 43.6116 2.84741C43.6553 2.87123 43.7224 2.85422 43.7761 2.84741C46.3506 2.56505 48.4618 3.90881 50.647 4.91918C52.3454 5.70503 53.9397 6.70859 55.6214 7.53186C56.7895 8.10338 58.0348 8.44698 59.1089 9.28385C60.5622 10.4167 61.0221 11.0835 61.9552 12.8661C62.4386 13.7914 62.4419 14.8188 63.0092 15.7407C64.0094 15.1828 64.9258 14.5194 65.7884 13.7234C67.3156 12.315 69.0241 11.1413 70.9441 10.3452C72.139 9.84857 73.1225 9.04572 74.1227 8.28368C76.224 6.68478 78.2547 4.98722 80.3492 3.37811C81.1749 2.74195 82.1281 2.3031 83.1015 1.90848C84.4912 1.34716 85.8439 0.683786 87.3509 0C88.3378 0.63616 89.5159 1.12604 90.3215 1.97652C91.4762 3.19781 92.9665 3.74892 94.3393 4.52796C95.6148 5.24917 96.9037 5.94316 98.1289 6.74601C98.3907 6.91951 98.6525 7.15765 98.9411 7.21548C100.74 7.56928 102.335 8.50821 104.063 9.06953C105.433 9.51518 106.752 9.98464 108.212 10.0153C108.944 10.0289 109.669 10.2874 110.619 10.4779C114.358 12.696 116.06 16.0979 114.744 19.2617C114.297 19.0065 113.868 18.7344 113.415 18.5099C112.958 18.2853 112.478 18.1084 111.955 17.8873C111.955 18.4758 111.676 19.0848 112.203 19.7175C112.394 19.9489 112.24 20.4864 112.233 20.881C112.216 21.973 112.69 22.9834 112.794 24.0346C112.975 25.8172 113.844 27.4909 113.572 29.3314C113.472 30.022 113.361 30.7126 113.233 31.3997C113.116 32.0325 113.522 32.7367 112.921 33.3218C112.78 33.4579 112.901 33.8661 112.901 34.1519C112.901 35.3392 112.894 36.5264 112.901 37.7171C112.908 38.7581 112.807 39.7957 113.213 40.8163C113.445 41.4014 113.505 42.0716 113.559 42.7077C113.616 43.3847 113.572 44.0685 113.572 44.9122L113.579 44.9224Z" fill="#4E4E4E"/>
</svg>
