<svg width="187" height="299" viewBox="0 0 187 299" fill="none" xmlns="http://www.w3.org/2000/svg">
<path d="M181.877 93.1101C176.779 97.8907 171.526 102.403 165.772 106.317C164.27 107.339 163.064 108.749 161.668 109.913C159.729 111.528 157.586 112.74 155.414 113.664C153.052 114.665 151.049 116.139 149.949 118.092C148.553 120.567 146.219 121.723 144.287 123.352C143.081 124.361 141.854 125.39 140.691 126.462C139.485 127.576 138.251 128.697 137.215 129.959C134.824 132.85 131.567 134.253 128.168 135.382C127.005 135.769 125.672 135.649 124.502 135.755C124.079 135.332 123.74 134.994 123.388 134.641C123.127 130.566 124.036 126.702 125.172 122.76C126.025 119.813 126.737 116.767 127.005 113.594C127.378 109.102 127.773 104.505 129.508 100.218C129.67 99.8157 129.853 99.1811 129.656 98.9061C128.542 97.3266 129.311 95.5215 128.958 93.8927C127.724 88.2589 128.429 82.5686 128.309 76.9066C128.189 71.1529 128.345 65.3921 128.26 59.6313C128.196 55.2455 126.857 51.1418 124.699 47.3765C123.959 46.0791 123.028 44.4996 121.018 44.6971C116.555 42.0176 111.605 42.6029 106.74 42.5888C104.364 40.9318 101.994 39.2747 99.5759 37.5895C98.9907 37.8363 98.4125 38.1748 97.792 38.3299C95.6837 38.8658 93.8222 39.8036 92.3979 41.4606C91.5941 42.3913 90.5928 43.0965 90.0428 44.3586C89.655 45.247 88.3435 45.7265 87.441 46.3964C85.0859 48.1521 83.1045 50.3591 80.5732 51.9174C79.6001 52.5167 78.6694 53.4122 78.0982 54.3994C76.3707 57.382 73.4727 59.2435 71.2234 62.0781C71.2022 63.1498 70.9554 64.412 71.7945 65.7305C72.2176 66.4004 71.8721 67.5638 71.8721 68.5016C71.8721 71.3221 72.3163 74.2342 71.7663 76.9418C70.9484 80.9821 71.7311 85.0577 71.0471 88.9851C70.4407 92.4472 70.5747 95.8529 70.4689 99.2868C70.4195 100.93 70.4619 102.58 70.4619 104.223C72.0625 105.308 70.2785 107.48 71.858 108.594C71.9708 108.672 71.8721 109.046 71.8721 109.278V109.631C71.3362 119.538 72.7676 129.402 72.5913 139.302C72.5419 142.144 71.8791 144.724 70.5676 147.291C69.5875 149.216 68.9741 151.359 68.9952 153.707C69.108 164.397 68.9952 175.093 69.0798 185.783C69.108 189.21 69.1221 192.728 69.8766 196.042C70.5042 198.813 70.201 201.838 71.8439 204.37C71.6323 206.88 72.3657 209.439 71.4349 211.928C71.2304 212.486 71.2093 213.296 71.4631 213.804C72.8874 216.589 73.2964 219.685 73.8746 222.653C74.34 225.058 75.3624 227.025 76.688 228.908C78.4437 231.404 80.3193 233.801 82.3289 236.121C84.7051 238.864 87.6595 240.852 90.3319 243.2C91.6082 244.321 93.4062 244.836 94.8799 245.767C96.0856 246.535 97.0164 246.401 98.2856 245.746C100.845 244.427 103.207 242.855 105.612 241.275C109.504 238.716 112.776 235.536 115.913 232.2C117.754 230.24 119.333 228.012 120.899 225.812C121.449 225.044 121.787 224.021 121.9 223.076C122.295 219.769 122.76 216.491 124.05 213.381C123.55 211.28 124.812 209.39 124.784 207.324C124.77 206.344 124.875 205.406 125.27 204.37C125.721 203.192 125.616 201.641 124.911 200.083C124.205 198.517 124.65 196.381 124.791 194.512C124.918 192.841 124.551 191.219 125.355 189.464C126.349 187.278 126.652 177.653 126.123 175.361C125.411 172.287 125.298 169.128 124.65 166.089C124.311 164.517 124.593 162.726 123.93 161.492C123.098 159.955 123.839 158.467 123.31 157.148C122.259 154.568 122.852 151.938 122.626 149.392C124.255 147.855 125.552 146.092 127.787 145.443C128.486 145.239 128.986 144.393 129.586 143.85C132.053 141.601 134.183 139.013 136.982 137.067C140.656 134.521 144.069 131.616 147.728 129.021C150.238 127.237 152.854 125.066 153.813 121.752C153.898 121.456 154.293 121.244 154.666 120.87H157.783C160.138 119.108 162.599 117.366 164.947 115.497C167.281 113.636 169.509 111.633 172.04 109.476C173.324 109.73 174.959 110.054 176.743 110.406C177.293 110.956 177.9 111.697 178.64 112.261C179.218 112.698 178.697 113.96 180.064 113.89C180.389 113.876 180.636 115.476 181.2 116.076C182.293 117.253 181.432 119.009 182.575 120.102C182.807 123.895 184.098 127.491 184.831 131.186C185.374 133.95 185.275 136.912 186.721 139.549C187.214 140.451 186.798 141.854 186.798 142.785C185.402 145.5 183.921 147.947 182.878 150.57C182.032 152.692 181.651 155.012 181.186 157.268C180.847 158.911 181.136 160.857 180.347 162.19C179.402 163.769 180.516 165.687 179.084 166.978C178.605 171.328 178.062 175.672 178.344 180.064C179.557 181.714 179.063 183.632 178.986 185.409C178.929 186.735 179.832 187.842 179.691 188.991C179.324 192.051 179.324 195.133 177.738 198.045C175.46 202.233 173.669 206.69 171.688 211.04C170.517 213.607 169.255 216.145 168.226 218.768C167.182 221.433 165.123 223.217 163.198 225.135C163.085 225.248 162.754 225.149 162.274 225.149C162.197 224.092 162.112 222.992 161.985 221.264C161.386 222.258 161.076 222.822 160.716 223.351C159.581 225.001 158.537 226.729 157.254 228.252C155.019 230.889 152.607 233.378 150.309 235.966C149.336 237.066 148.609 238.412 147.531 239.371C145.331 241.311 142.997 243.109 140.656 244.878C138.167 246.761 135.586 248.531 133.069 250.378C129.578 252.931 126.271 255.652 122.4 257.761C118.494 259.89 115.138 262.95 112.317 266.695C109.06 271.031 105.167 274.973 101.127 278.611C98.758 280.74 96.1702 282.771 93.3992 284.492C92.1934 285.239 91.3473 286.522 90.5716 287.855C87.6595 292.854 83.2244 295.872 77.5835 297.106C75.5528 297.55 73.515 297.994 71.3714 298.467C71.0189 297 70.6593 295.498 70.2362 293.75C66.4216 292.128 62.2261 290.591 58.2705 288.581C54.9635 286.903 51.8469 284.781 50.0207 281.304C49.8655 281.008 49.5623 280.79 49.3226 280.536C45.4163 276.397 41.5382 272.23 37.5966 268.126C35.9184 266.377 33.9088 265.193 31.3281 265.376C24.0866 258.438 20.8149 249.201 16.8945 239.78C16.8945 237.877 16.8592 235.409 16.9086 232.941C16.9579 230.55 16.2881 228.287 15.3432 226.186C14.3843 224.049 14.0881 221.772 13.3689 219.6C12.1843 216.046 12.001 212.26 10.7389 208.706C10.2594 207.352 10.1607 205.547 10.6472 204.229C11.5356 201.831 11.3241 199.441 11.176 197.086C11.0703 195.394 12.0292 194.04 11.9728 192.439C11.9234 190.796 12.3254 189.041 11.8882 187.525C10.6683 183.28 10.9363 178.929 11.4017 174.769C12.1138 168.381 11.8318 162.021 11.9375 155.653C12.0433 149.195 11.9587 142.729 11.9658 136.263C11.9658 133.999 12.9388 131.955 13.8272 129.987C14.9272 127.562 15.3996 124.995 16.1753 122.499C17.1272 119.446 17.2823 116.217 18.2271 113.135C18.8759 111.006 18.622 108.623 19.038 106.408C20.42 99.0118 19.3553 91.5518 19.7361 84.134C19.8136 82.6955 20.279 81.2783 20.3918 79.8398C20.5117 78.3239 20.5258 76.7797 20.3918 75.2637C20.2297 73.381 19.863 71.5125 19.6162 69.8413C20.5258 69.2773 21.1816 68.8753 21.8303 68.4734V63.1005C21.8303 62.5152 21.5976 61.7396 21.8796 61.38C22.4296 60.6749 22.895 59.8288 22.486 59.2012C21.3296 57.4455 21.9642 54.8436 19.9335 53.7507C19.6092 51.4661 19.2002 49.3579 19.0451 47.2284C18.897 45.1272 19.4611 42.8708 18.9041 40.9177C18.1143 38.1607 18.3329 35.446 18.347 32.7172C18.3682 29.4455 17.0285 26.8648 14.8074 24.6578C13.8555 23.7129 12.692 22.9796 11.6273 22.1476C10.6542 21.3861 9.78696 20.5329 8.73634 19.8207C5.64795 17.7054 2.8416 15.1811 0 12.8894V10.3722C4.49156 6.43768 10.4216 4.34349 15.3644 0.310251C19.0098 -0.303196 22.5142 1.17049 26.0045 2.68649C28.9025 3.94159 32.0967 4.36465 34.896 5.9018C34.9877 5.95115 35.1287 5.9159 35.2415 5.9018C40.6497 5.31655 45.0849 8.10174 49.6751 10.1959C53.243 11.8247 56.5923 13.9048 60.1249 15.6112C62.5787 16.7958 65.1947 17.5079 67.451 19.2425C70.5042 21.5905 71.4702 22.9726 73.4304 26.6673C74.4457 28.5852 74.4528 30.7147 75.6444 32.6255C77.7457 31.4692 79.6706 30.0942 81.4828 28.4442C84.691 25.5251 88.28 23.0924 92.3133 21.4425C94.8235 20.413 96.8895 18.7489 98.9907 17.1695C103.405 13.8555 107.671 10.3369 112.071 7.00177C113.805 5.68321 115.808 4.77361 117.852 3.95568C120.772 2.79224 123.613 1.41728 126.779 0C128.852 1.31856 131.327 2.33393 133.019 4.09671C135.445 6.62806 138.576 7.77034 141.46 9.38505C144.139 10.8799 146.847 12.3183 149.42 13.9824C149.97 14.342 150.52 14.8356 151.127 14.9554C154.906 15.6887 158.255 17.6349 161.887 18.7983C164.764 19.722 167.535 20.695 170.602 20.7585C172.139 20.7867 173.662 21.3226 175.658 21.7175C183.512 26.3148 187.087 33.3659 184.323 39.9235C183.386 39.3946 182.483 38.8305 181.531 38.3651C180.572 37.8998 179.564 37.5331 178.464 37.0748C178.464 38.2946 177.879 39.5568 178.986 40.8683C179.388 41.3478 179.063 42.4619 179.049 43.2798C179.014 45.5432 180.008 47.6374 180.227 49.8162C180.607 53.511 182.434 56.9801 181.863 60.7948C181.651 62.2261 181.418 63.6575 181.15 65.0818C180.904 66.3934 181.757 67.8529 180.495 69.0657C180.198 69.3478 180.452 70.1939 180.452 70.7862C180.452 73.247 180.438 75.7079 180.452 78.1758C180.466 80.3334 180.255 82.484 181.108 84.5994C181.595 85.8121 181.721 87.2012 181.834 88.5198C181.954 89.9229 181.863 91.3402 181.863 93.0889L181.877 93.1101Z" fill="#818181"/>
</svg>
