<?xml version="1.0" encoding="UTF-8"?>
<svg id="Layer_1" data-name="Layer 1" xmlns="http://www.w3.org/2000/svg" viewBox="0 0 1786.95 624.15">
  <path d="M357.95,245.54c0,.68,0,1.35,0,2.01-3.47,1.85-4.92,5.26-3.8,9.18,.51,1.78,1.23,3.49,1.78,5.26,.14,.46,.18,1.07,0,1.48-1.26,2.75-.65,5.34-.14,8.21,.69,3.87-.54,8.15,.44,11.89,1.08,4.14,.42,8.13,.67,12.17,.25,3.98,.64,8.1-.06,11.97-1.76,9.7-.4,19.41-.87,29.1-.16,3.19-.89,6.25-2.37,9.02-1.75,3.29-2.86,6.63-2.7,10.41,.06,1.37,0,2.72-.61,4.22-.79,1.95-.85,4.44,.2,6.64,.26,.55,.5,1.22,.44,1.8-.39,3.77,.95,7.17,1.97,10.69,1.64,5.67,1.23,4.96,.23,13.17-.46,3.74-.89,7.73,.56,11.67,1.02,2.77,1.08,5.96,1.23,8.98,.19,3.99,.08,8,.04,12-.04,4.35,1.4,8.29,2.95,12.28,1.61,4.17,2.74,8.53,4.06,12.82,.37,1.19,.98,2.4,.95,3.58-.13,5.95,2.38,10.96,5.41,15.77,2.89,4.6,6.5,8.69,9.95,12.85,2,2.41,3.1,4.8,2.57,8.28-2.97,2.23-6.03,4.85-9.44,6.89-1.13,.68-2.14,1.39-3.02,2.27-4.58,4.55-9.75,8.33-14.98,12.09-2.94,2.11-5.18,5.17-7.85,7.68-6.34,5.97-10.93,13.16-14.87,20.84-.71,1.39-1.73,2.68-2.82,3.82-2.64,2.78-5.49,5.36-8.08,8.18-2.18,2.37-4.13,4.96-6.07,7.33-2.94-.53-7.65-3.46-10.78-6.6,.42-2.11-.32-4.04-1.69-5.65-6.62-7.78-5.11-5.81-8.25-15.09-.89-2.63-1.7-5.28-3.02-7.75-2.55-4.78-4.19-9.94-5.95-15.03-1.68-4.85-3.48-9.64-6.5-13.79-1.67-2.3-2.47-4.67-2.6-7.45-.12-2.37-.12-4.97-1.11-7.01-.79-1.64-.68-3.1-.84-4.66-.31-3.03-.04-6.02-.8-9.13-1.02-4.18,.46-8.45,2.78-12.77-.31-2.01,.51-4.52-.86-7.08-.69-1.29-.66-3.52-.01-4.88,1.44-3.03,.63-6.1,.88-9.14,.18-2.28-.24-4.74,.49-6.81,.81-2.32,.33-4.53,.49-6.77,.17-2.32,.17-4.67,0-6.99-.2-2.87-.76-5.72-.93-8.59-.17-2.82,.61-5.86-.19-8.45-1.26-4.08-.65-8.1-.82-12.13-.16-3.99-.6-8.09,.07-11.98,1.79-10.36,.4-20.75,.88-31.1,.08-1.83-.12-3.68,.05-5.5,.14-1.55,.32-3.23,1.03-4.55,1.17-2.17,.73-4.4,.97-6.62,.29-2.69,.84-5.35,1.34-8.36,1.51-2.47,1.99-5.1,.95-8.6-1-3.36-.29-7.24-.33-10.89,2.18-2.19,.05-5.17,1.33-7.44,1.43-2.54,.42-5.16,.59-7.73,.09-1.33-.73-2.7-.89-4.08-.17-1.48-.12-3-.02-4.49,.13-1.89-.08-3.69,.82-5.66,1-2.18-.08-4.69-1.99-7.09,.21-1.48,.12-3.53,.85-5.22,.77-1.8-.64-3.94,1.23-5.55,.49-.42,.07-1.91,.07-2.91v-23c0-1.83-.15-3.68,.04-5.5,.18-1.74-.44-3.43,.54-5.28,.76-1.44,0-3.6,.48-5.29,2.02-7.31,.86-14.75,.78-22.1-.05-4.76-1.42-9.56-3.14-14.13-.6-1.59-1.13-3.2-1.7-4.8-.79-2.21-1.17-4.56-3.22-6.2-1.15-.92-2.77-6.14-2.78-7.82-.02-5,.07-10-.04-15-.05-2.04,.59-4.16-.87-6.15-.56-.76-.51-2.5-.02-3.39,2.39-4.33,.43-8.5-.43-12.58-.99-4.7-2.51-9.29-3.74-13.95-1.22-4.63-2.5-9.29-4.05-13.81-.94-2.74-2.98-5.09-4.47-7.64-.54-.93-1.03-1.91-1.36-2.93-1.52-4.58-.96-9.21,2.35-13.66,1.74-2.34,2.88-5.3,6.16-6.52,1.28-.47,2.81-1.17,3.61-.64,2.19,1.45,4.46,.55,6.65,.91,4.62,.75,9.24,1.28,13.51,3.63,1.8,.99,3.42,2.15,4.4,3.69,4.03,6.32,10.06,10.37,15.92,14.63,.43,.31,1.29,.04,1.88,.04,2.42,2.42,5.12,4.53,7.07,7.19,4.23,5.77,9.74,10.27,14.57,15.44,2.76,2.95,6.27,5,9.31,7.56,4.75,4,9.74,8.14,11.06,14.83,.52,2.62,1.18,5.24,1.44,7.89,.25,2.48,.05,4.99,.05,7.64-2.4,1.89-3.31,4.48-3.03,7.61,.16,1.82,0,3.66,.04,5.5,.08,3.7-.61,7.25-1.84,10.74-.31,.89-.16,1.95-.16,2.93,0,7.83,0,15.66-.01,23.5,0,2.99,.74,5.66,3.03,7.78v5.93c.5,.5,.97,.97,1.34,1.34,7.83-3.03,15.04-7.23,22.54-10.84,3.19-1.53,6.07-3.41,8.54-5.95,2.79-2.87,5.59-5.73,8.49-8.48,4.17-3.95,8.18-8.13,12.73-11.58,3.84-2.91,6.84-6.6,10.49-9.62,6.76-5.58,12.79-11.91,19-18.06,.47-.46,.9-1.17,1.45-1.3,3.44-.78,5.26-3.62,7.78-5.91h4.37c5.6,2.49,10.52,4.68,15.46,6.86,.42,.19,7.09,3.78,7.32,4.05,2.44,2.85,5.4,4.9,9,6.05,.56,.18,.96,.9,1.45,1.39v2.87c1.07,.77,2,1.72,3.12,2.19,4.31,1.83,6.64,5.76,8.76,9.34,4.54,7.7,8.31,15.86,12.37,23.85,.99,1.96,1.34,4.12,1.89,6.23,1.49,5.7,.51,11.42,.91,17.11,.2,2.87,.77,5.72,.94,8.59,.17,2.82-.06,5.67,.08,8.49,.06,1.21,.88,2.39,.88,3.59s-.92,2.4-.88,3.58c.66,16.88-1.65,33.7-1.06,50.58,.05,1.33,.12,2.68-.03,4-.12,1.05-.57,2.07-.92,3.29,2.73,4.9,2.49,10.15,.76,15.48-.19,.58-.71,1.09-.78,1.67-.39,3.52-.64,7.06-1.05,10.58-.18,1.54-1.33,3.41-.78,4.49,.64,1.28,.82,2.42,.78,3.68-.03,1.09,.4,2.24-.69,3.24-.41,.38-.31,1.55-.12,2.28,.93,3.69,.87,3.66-.01,7.79-.34,1.59-.74,3.69,0,4.86,1.21,1.94,.72,3.79,.83,5.68,.4,6.52,.12,13.15,1.21,19.55,.81,4.75,.88,9.71,2.74,14.32,.46,1.15-.06,2.65,.11,3.97,.13,1.05,.95,2.08,.9,3.09-.12,2.64,1,4.9,1.67,7.33,.84,3.04,2.5,5.43,4.66,7.58,6.61,6.58,13.21,13.16,19.61,19.54,.41,2.65,.77,5.01,1.13,7.37,.36,2.36-.86,4.94,1,7.08-.55,3.86,1.02,7.83-.82,11.67-.52,1.09-.03,2.62-.22,3.91-.18,1.22-.63,2.4-.97,3.59-1.45,5.06-3.31,9.93-5.92,14.55-4.06,7.19-9.58,13.32-14.16,20.13-3.13,4.65-6.49,9.06-10.11,13.37-3.99,4.76-8.24,8.91-13.44,12.23-1.51,.96-2.54,2.64-3.94,3.82-2.45,2.06-5.04,3.94-7.5,5.98-1.64,1.36-3.59,2.6-4.63,4.35-1.79,3.02-4.22,5.09-7.07,7-4.99,3.35-9.72,7.07-13.67,11.64-1.01,1.17-1.98,2.52-2.5,3.95-1.99,5.44-1.91,5.47-5.65,8.99h-6.19c-1.4-1.16-2.91-2.34-4.35-3.6-2.69-2.36-4.77-5.37-8.04-7.12-.88-.47-1.3-1.85-1.93-2.61-5.69-6.95-13.13-11.34-21.78-13.59-6.15-1.6-12.27-3.17-18.02-6-3.17-1.56-6.08-3.41-8.53-5.96-1.5-1.56-3.08-3.04-4.68-4.61,1.3-3.56,3.15-6.77,6.21-8.93,2.11-1.49,4.73-2.25,7-3.56,2.44-1.41,5.02-2.78,7.01-4.71,2.35-2.28,4.92-4.06,7.88-5.21,2.73-1.05,5.45-2.15,8.2-3.16,5.21-1.91,10.35-4.11,14.93-7.42,1.86-1.34,4.03-2.3,6.17-3.17,.98-.4,2.34-.49,3.31-.14,9.02,3.3,18.55,4.9,27.53,8.37,2.31,.89,4.91,1.33,7.39,1.37,2.34,.04,4.8,.8,7.15-.81,1.05-.72,2.88-.16,4.25-.56,5.07-1.5,9.13-4.69,13.24-8.03-7.83-2.23-15.81-3.01-23.22-6.04-.86-.35-1.86-.41-2.81-.45-4.72-.2-8.55-2.68-12.48-4.89-.42-.24-.84-.63-1.05-1.05-3.07-6.16-8.53-10.23-13.1-15.07-4.93-5.22-8.52-11.23-10.96-17.96-.1-.29-.51-.52-.51-.78,.03-5.88-2.23-11.77-.89-17.55,1.37-5.91,.47-11.76,.86-17.61,.15-2.28-.29-4.3-1.58-6.36-1.04-1.67-2.79-3.74-.66-6.11,.51-.57,.23-1.89,.24-2.87,.02-3.83,0-7.67,0-11.5,0-2.67-.13-5.34,.04-8,.16-2.54,.56-5.07,.98-7.58,.53-3.15-1.12-6.01-1.02-9.09-1.66-1.24-.96-3.03-.97-4.59-.05-10.67-.03-21.33-.03-32v-11c0-3.67-.07-7.33,.02-11,.09-3.58-1.41-6.94-1.09-10.59,.32-3.64-.07-7.33,.12-10.99,.13-2.37-.52-4.71,.81-7.17,1.06-1.98-.74-4.87,1.14-7.01-.55-3.86,.78-7.75-.76-11.68-1.02-2.59-.73-5.67-1.27-8.48-1.15-5.95-1.69-12.02-4.79-17.52-2.8-4.96-5.01-10.25-7.49-15.4-4.37-1.11-7.54,1.7-10.85,3.59-5.95,3.39-11.36,7.74-17.67,10.48-5.6,2.43-10.24,6.14-14.87,9.93-3.43,2.81-6.81,5.7-10.77,7.78-.4,.21-1.02,.11-1.33,.39-1.12,1-2.15,2.09-3.2,3.14Z"/>
  <path d="M1781.01,530.14c.09,2.02-.82,5.54,1.88,8.39,.74,.78,1.07,1.95,1.82,2.72,1.67,1.73,2.45,3.7,2.2,6.48-1.94,1.72-4.1,3.63-5.99,5.31h-10.14c-1.86,1.43-3.51,2.69-5.22,4-2.48,0-5.05,.4-7.44-.07-8.01-1.6-16.09-.36-24.09-1.04-4.14-.35-8.2-1.83-12.26-2.91-1.93-.52-3.75-1.5-5.69-1.89-.95-.19-2.07,.48-3.3,.81-4.09-.98-6.76-4.33-9.7-7.27-4.01-4.01-8.33-7.77-10.97-12.95-.77-1.52-1.7-2.96-2.46-4.48-2.82-5.68-6.6-10.85-8.85-16.83-.38-1.01-.79-2-1.27-3.21-2.9,1.59-5.79,3.35-8.16,5.91-1.36,1.47-2.78,2.88-4.24,4.24-5.03,4.73-10.25,9.27-15.08,14.2-3.91,3.98-7.41,8.37-10.33,13.18-.5,.83-1.39,1.43-2.18,2.23h-4c-1.09,1.09-2.23,2.22-3.74,3.73-.82-2.13-1.46-3.77-2.13-5.53-1.43-.42-2.98-.7-4.38-1.32-2.68-1.18-5.59-2.16-7.83-3.94-3.98-3.15-8.85-4.62-12.91-7.6-1.82-1.33-3.59-2.53-5.19-4.2-2.8-2.92-5.92-5.56-9.15-8.01-5.54-4.2-11.27-8.16-16.93-12.21-1.29-.92-2.62-1.78-4.12-2.8-5,.5-8.61-2.83-12.33-5.72-1.83-1.42-3.21-3.41-5-4.88-3.9-3.19-7.78-6.33-12.41-8.62-6.53-3.24-12.83-6.99-18.94-10.96-2.36-1.53-4.37-3.66-7.39-5.35-1.22-2.84-2.67-6.24-4.27-9.96,1.3-.63,2.63-1.28,3.96-1.93,.84-3.27-.94-6.85,1.08-10.02-2-3.37-.6-7.03-.85-10.55-.26-3.65-.06-7.33-.06-10.99s.42-7.39-.1-10.98c-.79-5.4-2.38-10.69-3.36-16.07-1.03-5.62-3.38-11.08-2.5-16.95,.44-2.93,1.18-5.83,3.45-8.07,2.86-2.82,5.68-5.31,9.98-6.17,3.05-.61,5.7-3.03,8.65-4.37,2.24-1.01,4.41-2.08,6.94-2.65,2.89-.66,5.71-2.57,8.04-4.55,3.41-2.9,7.04-5.29,11-7.3,1.41-.71,2.88-1.9,3.59-3.26,2.13-4.08,5.56-6.51,9.51-8.36,4.16-1.95,7.85-4.57,11.44-7.4,2.33-1.83,4.96-3.28,7.44-4.92,.8-.53,1.54-1.16,2.51-1.9h3.21c1.54,2.33,1.98,5.03,2.1,7.64,.22,4.64,.54,9.37-1.85,13.7-.07,.13-.09,.32-.07,.47,.7,3.92-1.36,7.08-3.07,10.22-1.36,2.52-1.21,5.1-.59,7.5,.27,1.05,.61,2.11,.64,3.2,.04,1.92,.09,3.76,.94,5.62,.69,1.52-.62,3.55,1.02,5.11,.42,.4-.01,1.61,.08,2.43,.57,5.18,1.46,10.28,2.71,15.35,.78,3.18,1.47,6.4,2.13,9.6,1.09,5.22,3.22,10.03,4.7,15.08,1.4,4.8,2.93,9.49,3.62,14.54,.76,5.58,3.98,10.08,8.82,13.54,3,2.14,6.58,2.77,9.59,4.77,.73,.49,1.94,.81,2.27,1.56,1.22,2.83,3.5,4.38,5.97,5.99,2.7,1.76,5.06,4.05,7.96,6.43h6.08c6.62-4.65,13.46-9.45,19.82-13.91,.5-3.1,1.08-5.6,1.27-8.13,.2-2.65-.51-5.48,.17-7.96,1.11-4.05,.09-8.23,1.03-12.08,1.28-5.24,.73-10.42,.79-15.62,.07-6.2-1.42-12.33-1.03-18.59,.11-1.78-.36-3.95-1.38-5.36-1.7-2.37-1.54-4.84-1.53-7.39,.03-9.14-1.8-17.85-5.76-26.11-.59-1.24-.79-2.66-1.21-4.13,.22-.26,.53-.63,.9-1.08-2.18-2.07-1.75-4.83-2-7.52-.51-5.44,1.33-10.67,1.11-16.09-.22-5.49-.76-11.11,.12-16.47,1.35-8.23,.46-16.42,.81-24.61,.11-2.57,1.17-4.91,1.14-7.58-.06-5.89-1.59-11.64-1.2-17.59,.38-5.81,.16-11.66,.04-17.49-.03-1.7-.64-3.39-.95-5.09-.29-1.54,.3-3.06-.85-4.69-.78-1.11-.82-3.78,0-4.77,1.75-2.13-.18-4.66,1.3-6.51,1.79-2.24-1.44-3.76-.5-5.4-2.49-3.35-5.62-5.17-9.01-6.73-4.27-1.97-8.09-4.75-11.86-7.51-1.62-1.19-3.29-3.01-3.8-4.85-.94-3.4-3.88-3.63-6.19-4.45-1.82-.65-3.6-1.09-4.96-2.52-1.61-1.69-3.47-2.75-5.91-2.66-.56,.02-1.13-.46-1.82-.76-4.99,4.63-10.12,9.44-15.31,14.18-1.41,1.29-3.01,2.37-4.52,3.55-1.38,1.08-2.69,2.27-4.06,3.34-2.15,1.69-3.52,4.39-3.51,7.44,.02,5.05-.8,10.07-1.25,15.06-.44,4.87-.83,9.84-1.74,14.69-.5,2.64,.6,5.03,1.41,7.41,1.48,4.37,2.79,8.7,2.63,13.43-.2,5.83,.14,11.67-.1,17.49-.23,5.38,1.66,10.29,2.6,15.41,.74,4.03,3.48,7.65,2.37,11.61-.61,3.8-3.64,5.05-6.04,6.74-6.03,4.25-12.22,8.29-18.34,12.41-.52,.35-1.08,1.02-1.57,.97-2.88-.28-4.64,1.71-6.78,3.03-6.39,3.93-12.93,7.61-19.01,12.02-1.65,1.2-3.48,2.16-5.06,3.45-2.77,2.26-5.35,4.75-8.1,7.03-3.2,2.66-6.37,5.39-9.81,7.72-2.22,1.5-4.9,2.27-8.22,1.61-1.23-2.24-2.65-4.82-4.14-7.53,.65-1.25,1.28-2.49,1.85-3.6-.89-2.75-2.1-5.45-2.61-8.28-.76-4.24-2.65-7.95-4.78-11.53-2.88-4.84-6.05-9.51-9.3-14.57,.78-2.71-.96-5.14-2.18-7.62,1.09-4.06,4.43-6.11,7.19-9.27,1.17-8.2,3.54-16.54,6.68-24.69,.89-2.31,1.19-4.95,1.24-7.46,.05-2.35-.16-4.89-1.03-7.04-.97-2.4-.89-4.73-.87-7.13,.05-7.38-1.73-14.67-1.02-22.08,.37-3.85,.28-7.81,1.17-11.53,.85-3.55,2.71-6.85,4.11-10.27,.35-.86,.65-1.74,1.13-3.05,.78-.8,1.94-1.99,3.01-3.09,4.92-.48,9.16-2.84,12.92-5.27,4.62-2.99,9.68-4.96,14.35-7.73,5.3-3.15,10.95-5.62,15.25-10.35,1.84-2.02,4.63-3.17,6.99-4.72,3.53-2.33,6.92-4.95,10.66-6.88,1.87-.96,3.21-2.3,4.4-3.73,1.84-2.22,4.39-3.58,6.77-4.22,5.25-1.4,9.21-4.62,13.3-7.76,4.16-3.2,8.19-6.57,12.52-9.58,1.96-1.36,3.56-3.21,5.55-4.65,1.81-1.3,3.65-2.39,5.58-3.48,4.67-2.63,9.44-5.14,12.38-10.05,.92-1.53,2.72-2.98,4.41-3.5,3.91-1.21,6.59-4.2,10.3-6.13h4.73c.53,.56,1.1,1.16,1.78,1.88,1.77-1.26,3.52-2.5,5.46-3.89h5.21c2.96,1,3.44,3.66,3.83,5.56,.8,3.88,2.88,6.61,5.45,9.3,1.16,1.21,2.22,2.78,2.65,4.37,.95,3.6,2.94,6.63,5.24,9.31,4.72,5.48,9.81,10.64,14.78,15.9,1.6,1.7,3.29,3.3,4.94,4.96,2.96,2.97,6.39,5.33,9.73,7.84,2.24,1.68,4.68,3.62,5.91,6.02,1.83,3.59,4.98,5.54,7.93,7.54,8.79,5.97,17.93,11.42,26.8,17.27,1.94,1.28,3.33,3.39,4.68,4.8,.19,3.96,0,7.19-1.53,10.4-.91,1.89-1.02,4.28-1.29,6.43-.65,5.15-.92,10.37-1.06,15.57-.11,4.18-.35,8.26-1.94,12.21-.41,1-.1,2.3-.1,3.46,0,11.33,.03,22.66-.04,33.99,0,1.54,.26,3.04-.77,4.7-.66,1.06,.31,3.34,.94,4.92,.68,1.72,1.8,3.25,2.82,5.02,.23,2.74-.13,5.53-.86,8.39-.66,2.6,.04,5.33-.9,8.12-.86,2.54-.38,5.62-.13,8.43,.24,2.7-1.13,5.6,.92,8.11,.16,.2,.02,.65,.02,.98,.05,3.55,0,7.07,.86,10.62,.49,2.02,.81,4.49-.79,6.61-.48,.64-.07,1.94-.07,2.94,0,5.83-.33,11.69,.09,17.49,.46,6.4,1.54,12.74,4.28,18.69,.89,1.95,1.74,3.99,1.7,6.32-.03,1.86,.57,3.73,.93,5.58,.36,1.86-.87,3.97,.92,5.64,.25,.24,.07,.95,.07,1.45,0,2.33,.28,4.71-.08,6.99-.38,2.41,1.18,4.32,1.09,6.6-.08,2.16-.02,4.33-.02,6.5v6.98c0,4.67,.28,9.35-.08,13.99-.34,4.47,1.2,8.69,1.1,13.09-.1,4.33-.27,8.68,.07,12.99,.21,2.57,1.06,5.22,2.2,7.54,.56,1.14,.73,2.14,.68,3.22-.56,10.32,3.24,19.39,8.05,28.17,.53,.97,1.33,1.82,2.12,2.62,2.61,2.63,5.48,5.04,6.92,10.48Z"/>
  <path d="M257.95,284.7c-7.23,6.78-14.68,13.18-22.84,18.73-2.13,1.45-3.84,3.45-5.82,5.1-2.75,2.29-5.79,4.01-8.87,5.32-3.35,1.42-6.19,3.51-7.75,6.28-1.98,3.51-5.29,5.15-8.03,7.46-1.71,1.43-3.45,2.89-5.1,4.41-1.71,1.58-3.46,3.17-4.93,4.96-3.39,4.1-8.01,6.09-12.83,7.69-1.65,.55-3.54,.38-5.2,.53-.6-.6-1.08-1.08-1.58-1.58-.37-5.78,.92-11.26,2.53-16.85,1.21-4.18,2.22-8.5,2.6-13,.53-6.37,1.09-12.89,3.55-18.97,.23-.57,.49-1.47,.21-1.86-1.58-2.24-.49-4.8-.99-7.11-1.75-7.99-.75-16.06-.92-24.09-.17-8.16,.05-16.33-.07-24.5-.09-6.22-1.99-12.04-5.05-17.38-1.05-1.84-2.37-4.08-5.22-3.8-6.33-3.8-13.35-2.97-20.25-2.99-3.37-2.35-6.73-4.7-10.16-7.09-.83,.35-1.65,.83-2.53,1.05-2.99,.76-5.63,2.09-7.65,4.44-1.14,1.32-2.56,2.32-3.34,4.11-.55,1.26-2.41,1.94-3.69,2.89-3.34,2.49-6.15,5.62-9.74,7.83-1.38,.85-2.7,2.12-3.51,3.52-2.45,4.23-6.56,6.87-9.75,10.89-.03,1.52-.38,3.31,.81,5.18,.6,.95,.11,2.6,.11,3.93,0,4,.63,8.13-.15,11.97-1.16,5.73-.05,11.51-1.02,17.08-.86,4.91-.67,9.74-.82,14.61-.07,2.33-.01,4.67-.01,7,2.27,1.54-.26,4.62,1.98,6.2,.16,.11,.02,.64,.02,.97,0,.17,0,.33,0,.5-.76,14.05,1.27,28.04,1.02,42.08-.07,4.03-1.01,7.69-2.87,11.33-1.39,2.73-2.26,5.77-2.23,9.1,.16,15.16,0,30.33,.12,45.49,.04,4.86,.06,9.85,1.13,14.55,.89,3.93,.46,8.22,2.79,11.81-.3,3.56,.74,7.19-.58,10.72-.29,.79-.32,1.94,.04,2.66,2.02,3.95,2.6,8.34,3.42,12.55,.66,3.41,2.11,6.2,3.99,8.87,2.49,3.54,5.15,6.94,8,10.23,3.37,3.89,7.56,6.71,11.35,10.04,1.81,1.59,4.36,2.32,6.45,3.64,1.71,1.09,3.03,.9,4.83-.03,3.63-1.87,6.98-4.1,10.39-6.34,5.52-3.63,10.16-8.14,14.61-12.87,2.61-2.78,4.85-5.94,7.07-9.06,.78-1.09,1.26-2.54,1.42-3.88,.56-4.69,1.22-9.34,3.05-13.75-.71-2.98,1.08-5.66,1.04-8.59-.02-1.39,.13-2.72,.69-4.19,.64-1.67,.49-3.87-.51-6.08-1-2.22-.37-5.25-.17-7.9,.18-2.37-.34-4.67,.8-7.16,1.41-3.1,1.84-16.75,1.09-20-1.01-4.36-1.17-8.84-2.09-13.15-.48-2.23-.08-4.77-1.02-6.52-1.18-2.18-.13-4.29-.88-6.16-1.49-3.66-.65-7.39-.97-11,2.31-2.18,4.15-4.68,7.32-5.6,.99-.29,1.7-1.49,2.55-2.26,3.5-3.19,6.52-6.86,10.49-9.62,5.21-3.61,10.05-7.73,15.24-11.41,3.56-2.53,7.27-5.61,8.63-10.31,.12-.42,.68-.72,1.21-1.25h4.42c3.34-2.5,6.83-4.97,10.16-7.62,3.31-2.64,6.47-5.48,10.06-8.54,1.82,.36,4.14,.82,6.67,1.32,.78,.78,1.64,1.83,2.69,2.63,.82,.62,.08,2.41,2.02,2.31,.46-.02,.81,2.25,1.61,3.1,1.55,1.67,.33,4.16,1.95,5.71,.33,5.38,2.16,10.48,3.2,15.72,.77,3.92,.63,8.12,2.68,11.86,.7,1.28,.11,3.27,.11,4.59-1.98,3.85-4.08,7.32-5.56,11.04-1.2,3.01-1.74,6.3-2.4,9.5-.48,2.33-.07,5.09-1.19,6.98-1.34,2.24,.24,4.96-1.79,6.79-.68,6.17-1.45,12.33-1.05,18.56,1.72,2.34,1.02,5.06,.91,7.58-.08,1.88,1.2,3.45,1,5.08-.52,4.34-.52,8.71-2.77,12.84-3.23,5.94-5.77,12.26-8.58,18.43-1.66,3.64-3.45,7.24-4.91,10.96-1.48,3.78-4.4,6.31-7.13,9.03-.16,.16-.63,.02-1.31,.02-.11-1.5-.23-3.06-.41-5.51-.85,1.41-1.29,2.21-1.8,2.96-1.61,2.34-3.09,4.79-4.91,6.95-3.17,3.74-6.59,7.27-9.85,10.94-1.38,1.56-2.41,3.47-3.94,4.83-3.12,2.75-6.43,5.3-9.75,7.81-3.53,2.67-7.19,5.18-10.76,7.8-4.95,3.62-9.64,7.48-15.13,10.47-5.54,3.02-10.3,7.36-14.3,12.67-4.62,6.15-10.14,11.74-15.87,16.9-3.36,3.02-7.03,5.9-10.96,8.34-1.71,1.06-2.91,2.88-4.01,4.77-4.13,7.09-10.42,11.37-18.42,13.12-2.88,.63-5.77,1.26-8.81,1.93-.5-2.08-1.01-4.21-1.61-6.69-5.41-2.3-11.36-4.48-16.97-7.33-4.69-2.38-9.11-5.39-11.7-10.32-.22-.42-.65-.73-.99-1.09-5.54-5.87-11.04-11.78-16.63-17.6-2.38-2.48-5.23-4.16-8.89-3.9-10.27-9.84-14.91-22.94-20.47-36.3,0-2.7-.05-6.2,.02-9.7,.07-3.39-.88-6.6-2.22-9.58-1.36-3.03-1.78-6.26-2.8-9.34-1.68-5.04-1.94-10.41-3.73-15.45-.68-1.92-.82-4.48-.13-6.35,1.26-3.4,.96-6.79,.75-10.13-.15-2.4,1.21-4.32,1.13-6.59-.07-2.33,.5-4.82-.12-6.97-1.73-6.02-1.35-12.19-.69-18.09,1.01-9.06,.61-18.08,.76-27.11,.15-9.16,.03-18.33,.04-27.5,0-3.21,1.38-6.11,2.64-8.9,1.56-3.44,2.23-7.08,3.33-10.62,1.35-4.33,1.57-8.91,2.91-13.28,.92-3.02,.56-6.4,1.15-9.54,1.96-10.49,.45-21.07,.99-31.59,.11-2.04,.77-4.05,.93-6.09,.17-2.15,.19-4.34,0-6.49-.23-2.67-.75-5.32-1.1-7.69,1.29-.8,2.22-1.37,3.14-1.94v-7.62c0-.83-.33-1.93,.07-2.44,.78-1,1.44-2.2,.86-3.09-1.64-2.49-.74-6.18-3.62-7.73-.46-3.24-1.04-6.23-1.26-9.25-.21-2.98,.59-6.18-.2-8.95-1.12-3.91-.81-7.76-.79-11.63,.03-4.64-1.87-8.3-5.02-11.43-1.35-1.34-3-2.38-4.51-3.56-1.38-1.08-2.61-2.29-4.1-3.3-4.38-3-8.36-6.58-12.39-9.83v-3.57c6.37-5.58,14.78-8.55,21.79-14.27,5.17-.87,10.14,1.22,15.09,3.37,4.11,1.78,8.64,2.38,12.61,4.56,.13,.07,.33,.02,.49,0,7.67-.83,13.96,3.12,20.47,6.09,5.06,2.31,9.81,5.26,14.82,7.68,3.48,1.68,7.19,2.69,10.39,5.15,4.33,3.33,5.7,5.29,8.48,10.53,1.44,2.72,1.45,5.74,3.14,8.45,2.98-1.64,5.71-3.59,8.28-5.93,4.55-4.14,9.64-7.59,15.36-9.93,3.56-1.46,6.49-3.82,9.47-6.06,6.26-4.7,12.31-9.69,18.55-14.42,2.46-1.87,5.3-3.16,8.2-4.32,4.14-1.65,8.17-3.6,12.66-5.61,2.94,1.87,6.45,3.31,8.85,5.81,3.44,3.59,7.88,5.21,11.97,7.5,3.8,2.12,7.64,4.16,11.29,6.52,.78,.51,1.56,1.21,2.42,1.38,5.36,1.04,10.11,3.8,15.26,5.45,4.08,1.31,8.01,2.69,12.36,2.78,2.18,.04,4.34,.8,7.17,1.36,11.14,6.52,16.21,16.52,12.29,25.82-1.33-.75-2.61-1.55-3.96-2.21-1.36-.66-2.79-1.18-4.35-1.83,0,1.73-.83,3.52,.74,5.38,.57,.68,.11,2.26,.09,3.42-.05,3.21,1.36,6.18,1.67,9.27,.54,5.24,3.13,10.16,2.32,15.57-.3,2.03-.63,4.06-1.01,6.08-.35,1.86,.86,3.93-.93,5.65-.42,.4-.06,1.6-.06,2.44,0,3.49-.02,6.98,0,10.48,.02,3.06-.28,6.11,.93,9.11,.69,1.72,.87,3.69,1.03,5.56,.17,1.99,.04,4,.04,6.48Z"/>
  <path d="M1129.04,468.53c-4.81,3.39-9.36,6.49-13.79,9.74-5.38,3.95-10.43,8.32-15.97,12.07-4.12,2.78-7.6,6.48-11.64,9.41-3.86,2.79-7.6,5.74-11.37,8.63-4.41,3.37-8.32,7.4-12.35,11.25-1.13,1.08-2.33,2.39-2.77,3.82-1.03,3.29-3.47,5.35-5.75,7.6-2.17,0-4.33,0-6.07,0-2.64-1.1-4.91-2.06-7.19-3-4.03-1.67-9.77-5.06-12.26-10.24-1.99-4.15-5.36-7.2-9.17-9.78-1.98-1.34-3.88-2.82-5.67-4.41-4.16-3.71-8.02-7.77-12.38-11.22-4.97-3.93-9.83-8.01-15.19-11.47-2.6-1.68-4.54-4.38-6.91-6.75-.42,.28-.85,.68-1.36,.84-.45,.15-.99,.03-1.83,.03-1.72-2.24-4.36-3.86-5.85-6.76-.87-1.68-2.52-3.25-4.21-4.16-3.62-1.94-5.85-5.26-8.63-7.99-1.35-1.33-1.85-3.52-2.76-5.3-.21-.42-.53-.79-.92-1.37-.01-.25-.06-.73-.07-1.21,0-2.5,.3-5.05-.09-7.48-.36-2.24-1.45-4.37-2.25-6.54-.16-.43-.6-.8-.64-1.23-.37-4.19-.91-8.38-.95-12.58-.03-2.62-.73-5.06-1.01-7.59-.3-2.63-.07-5.32-.07-7.99,2-2.94,2.8-6.29,2.96-9.75,.17-3.66,.17-7.33,0-10.99-.14-3.04-.76-6.05-.92-9.09-.17-3.16-.04-6.33-.04-9.49s.1-6.34-.05-9.49c-.06-1.37-1.01-2.77-.87-4.08,.24-2.18,.62-4.42,1.17-6.5,1.21-4.57,2.4-9.08,2.86-13.83,.18-1.83,.84-3.66,.93-5.59,.09-1.87,.75-3.71,.91-5.59,.17-1.99-.51-4.2,.15-5.95,1.41-3.7,.49-7.44,.92-11.12,.31-2.66-.65-5.06-1.02-7.59-.37-2.52,.7-5.21-.97-7.61-.31-.45-.26-1.4,0-1.95,1.97-4.26,1.46-8.9,.76-13.06-1.29-7.74,.16-15.5-.93-23.09-1.36-9.38-.47-18.74-.89-28.09-.04-.89-.47-1.77-.78-2.85,.3-1.22,.67-2.74,1.19-4.89,2.49-3.2,6.27-5.8,10.58-7.6,3.1-1.3,5.95-3.21,8.16-5.46,3.79-3.85,8.72-5.83,12.79-9.12,.61-.49,1.41-.8,1.91-1.38,3.13-3.53,7.38-5.35,11.33-7.66,2.43-1.42,5.11-2.75,6.97-4.77,4-4.32,9.08-6.96,14.03-9.72,3.95-2.2,7.62-4.57,10.73-7.86,3.22-3.41,7.18-5.96,10.72-8.97,3.45-2.94,7-5.95,9.45-9.99,1.09-1.79,2.71-3.49,4.49-4.58,2.83-1.73,5.15-3.74,6.63-6.73,.35-.71,1.17-1.17,1.73-1.79,3.42-3.74,6.86-7.47,10.23-11.26,.71-.8,1.14-1.86,1.63-2.68,1.44-.58,2.7-1.47,4.02-1.55,3.19-.2,6.42-.5,9.09,2.19,1.14,1.14,2.8,1.98,4.74,1.77,2.43-.26,4.55,.81,6.74,1.78,4.86,2.14,9.3,4.97,13.81,7.73,3.12,1.91,6.67,3.2,10.15,4.41,6.67,2.32,20.26,8.37,24.33,11.24,1.83,1.29,3.72,2.61,5.21,4.26,3.61,3.99,8.38,6.13,12.82,8.88,5.36,3.31,11.17,6.29,14.36,12.22,3.12,2.23,4.33,5.92,6.46,8.63,1.87,4.81,1.38,9.83,2.26,14.7,.87,4.81,2.03,9.5,3.13,14.23,.55,2.36,.09,4.96,.09,7.39-.53,.53-1,1.01-1.78,1.78-1.82-.74-3.79-1.54-6.24-2.54,.26,3.01-.17,5.53,.88,8.32,1.5,3.97,2.19,8.21,2.3,12.61,.09,3.54,.36,7.26,1.67,10.74,.38,1.02,.16,2.28,.16,3.43,.01,5.83,.27,11.68-.06,17.49-.38,6.76,.52,13.44,1.29,20.05,.51,4.4,.95,8.99,2.61,13.35,.79,2.07-.09,4.81-.32,7.24-.42,4.3-1.68,8.49-1.52,12.86,2.08,2.38,.68,5.49,1.78,8.26,1.03,2.59,.23,5.91,.22,8.91-.01,2.24,0,4.41-.91,6.62-.75,1.85,.04,3.96-.92,6.12-1.35,3.02-2.02,17.33-1.05,19.96,1.31,3.54,.59,7.45,2.72,10.9,1.02,1.66,.37,4.27,1.01,6.53,.95,3.35,.55,7.06,1.23,10.52,.81,4.15,.93,8.46,2.53,12.43,.64,1.6,.74,3.32,1.25,4.96,1.04,3.38-1.27,6.79-4.96,8.98-5.67,3.38-11.1,7.11-16.48,10.95-4.02,2.86-7.78,6.04-11.8,8.88-6.16,4.35-12.63,8.29-18.62,12.86-2.46,1.87-4,4.94-5.99,7.44-1.74,2.17-3.16,4.68-5.71,6.02-1.35,.71-3,.83-4.37,1.5-1.57,.77-2.77,.46-3.82-1.17Zm-44.97-2.46c2.9-2.45,6.04-4.77,8.76-7.5,2.64-2.65,5.73-4.55,8.82-6.53,1.07-.68,2.59-1.3,2.95-2.29,.66-1.86,2.04-2.94,3.32-4.11,4.22-3.83,6.96-8.57,8.78-13.87,.9-2.64,1.77-5.33,2.2-8.07,.93-5.89-1.47-11.66-.95-17.57-1.89-3.21-.05-6.93-1.15-10.03-1.28-3.61-.52-7.11-.83-10.63-.13-1.49,.47-3.23-.11-4.45-2.23-4.67-.6-9.18,.38-13.61,.54-2.43,.78-4.38-.13-6.83-1.82-4.9-1.88-9.93,.93-14.68-.38-.56-1.1-1.13-1.03-1.58,.56-3.48-1.16-6.69-1.05-10.09,.03-1-.79-2.02-.78-2.61,.05-2.43-2.33-3.93-2.16-6.14,.18-2.34-1-4.4-1-6.59,0-5.06-1.8-9.98-1.08-15.08,.07-.46,0-.99-.16-1.42-1.3-3.46-1.15-7.17-1.78-10.74-.75-4.23,.99-8.38,.89-12.57-.18-7.69,.6-15.37-.75-23.1-.79-4.54,.18-9.36,.58-14.07,.52-6.1,1.02-12.38-.64-18.59-.77-2.87-.38-6.02-.95-9.08-.65-3.47-1.94-6.25-4.23-8.79-1.72-1.91-3.72-3.76-4.79-6.01-.69-1.45-1.89-2.19-2.72-3.57-.74,1.13-1.42,2.15-2.12,3.21-.75-.06-1.53-.11-2.3-.17v-5.26c-1.43-1.8-2.54-3.94-4.28-5.22-2.86-2.09-6.29-3.4-9.19-5.44-3.87-2.73-8.62-4.4-11.21-9.5-7.35,8.66-14.38,16.94-21.3,25.1-.15,4.75-.21,9.25-.83,13.81-.6,4.41-.93,8.84-2.04,12.58,1.02,2.06,2.02,3.66,2.6,5.41,.39,1.2,.62,2.77,.17,3.87-2.01,4.92-1.11,10.35-2.93,15.28,.75,6.25-1.3,12.34-1.04,18.58,.2,4.82,.04,9.65,.04,14.42-.86,1.21-1.88,2.28-2.46,3.55-.7,1.53-1.35,3.21-1.48,4.86-.35,4.36,.11,8.71-.93,13.1-.96,4.04-.79,8.35-1.14,12.55-.04,.45-.24,.9-.37,1.34-.75,2.51-.76,19.67-.21,22.06,.82,3.56,2.5,7.26,1.44,10.79-1.03,3.43-.64,6.75-.83,10.13-.1,1.83,0,3.66-.03,5.5-.02,.8,.03,1.68-.27,2.38-1.65,3.83-.24,7.82-.72,11.7,2.23,1.44,.41,3.92,1.54,5.88,.94,1.64,.37,4.15,.45,6.28,.03,.83-.33,1.9,.07,2.46,1.37,1.94,.73,4.07,.96,6.12,.23,2.04,.93,4.06,.91,6.08-.02,3.13,1.16,5.83,2.39,8.53,2.26,4.96,5.95,9.08,8.18,14.1,1.07,2.4,2.97,4.44,4.52,6.63,2.41,3.4,5.21,6.54,7.6,9.89,2.24,3.14,4.84,5.86,7.67,8.2,4.97,4.12,10.47,7.61,15.83,11.42Z"/>
  <path d="M725.59,468.07h-7.61c-3.63,2.82-7.5,5.85-11.4,8.85-4.17,3.2-8.41,6.3-12.52,9.57-2.67,2.12-5.03,4.63-7.76,6.65-4.76,3.52-8.81,7.9-13.87,11.08-2.42,1.52-4.24,3.92-6.63,5.68-3.12,2.3-5.57,5.44-8.8,7.74-2.34,1.66-3.91,4.13-5.08,6.84-.79,1.84-1.95,3.55-3.11,5.2-3.02,4.31-6.64,5.35-11.6,3.02-2.26-1.06-4.76-1.5-6.87-2.7-3.76-2.15-8.25-3.68-10-8.15-1.94-4.95-6.03-7.88-10.01-10.63-2.36-1.63-4.22-3.78-6.73-5.28-3.29-1.97-5.83-5.18-8.89-7.59-4.11-3.23-8.41-6.21-12.63-9.29-3.2-2.34-6.42-4.64-9.57-7.03-.42-.32-.5-1.1-.8-1.85h-4.82c-3.3-3.56-6.03-7.11-9.38-9.91-2.63-2.2-5.21-4.41-7.62-6.82-2.03-2.04-3.7-4.31-4.25-7.23-.17-.92-.59-1.81-.62-2.73-.08-2.66-.03-5.32-.03-7.58-1.76-3.25-2.72-6.25-3.12-9.65-.55-4.7-.74-9.38-1.03-14.08-.1-1.61-.71-3.34-.89-5.09-.28-2.82,.7-5.32,1.43-7.93,.76-2.73,1.96-5.39,1.61-8.33-.27-2.23,.69-4.35,.13-6.7-.53-2.2,.25-4.71-.18-6.96-1.69-8.83-.61-17.73-.95-26.59-.02-.46-.16-.93-.34-1.35-.12-.28-.43-.49-.65-.73,.67-2.22,1.49-4.41,1.96-6.68,.52-2.49,.11-5.35,1.2-7.49,1.22-2.4-.1-5.22,1.84-7.25,.33-4.36,.15-8.84,1.12-13.05,1.44-6.22,1.34-12.5,.7-18.59-1.26-12.04,.15-24.13-1.05-36.07-.8-7.91,.2-15.82-.93-23.58-1.01-6.9-.53-13.74-.86-20.6-.11-2.42,.81-4.26,2.36-6.04,2.8-3.21,6.48-5.05,10.06-7.13,3.03-1.76,5.88-3.76,8.46-6.21,2.64-2.51,5.53-4.97,8.74-6.61,2.5-1.28,3.66-4.03,6.39-4.85,.41-.12,.55-.99,.98-1.27,2.08-1.39,4.22-2.68,6.32-4.03,4.28-2.74,8.78-5.18,12.27-9.02,2.92-3.22,6.8-5.14,10.4-7.45,3.45-2.21,7.21-4.01,10.06-7.07,.73-.79,1.08-1.94,1.83-2.71,.62-.65,1.69-.85,2.36-1.47,5.08-4.68,10.17-9.34,15.12-14.15,1.96-1.9,3.27-4.54,5.39-6.2,6.03-4.73,10-11.31,15.37-16.62,2.7-2.67,4.77-5.98,7.39-9.35,2.68-.4,5.66-.84,8.48-1.26,1.72,1.15,3.16,2.11,4.61,3.08,6.26,1.04,12.27,2.41,18.03,5.94,5.02,3.08,10.57,5.59,16.37,7.48,3.79,1.23,7.72,2.24,11.38,3.85,3.67,1.62,7.24,3.5,10.69,5.54,3.24,1.92,6.5,3.92,9.32,6.39,3.38,2.95,7.05,5.16,11.08,7.1,7.81,3.77,13.86,9.64,18.63,16.92,2.1,3.21,3.42,6.49,2.9,10.28-.28,2.05,.79,3.71,1.07,5.59,.28,1.87-.92,4,.94,5.6,.04,6.1,3.53,11.84,1.69,18.15q-3.78,.47-7.32-1.62c-1.47,4.67,.98,8.68,2.05,12.88,.15,.59,.57,1.16,.59,1.74,.07,2.33-.1,4.67,.07,6.99,.15,2.04,.49,4.09,.98,6.08,1.97,7.97,.94,16.07,.85,24.08-.08,6.92,.92,13.71,1.25,20.57,.1,2.15,.43,4.5,1.04,6.54,.62,2.08,.58,4.09,.87,6.13,.99,7.13,1.03,7.12-.85,14.33-.2,.77-.28,1.64-.15,2.42,.37,2.2-.74,4.45,.78,6.69,1.12,1.65-.83,4.26,1.15,6-.29,3.9,.84,7.86-.59,11.71-.27,.73-.3,1.56-.35,2.35-.15,2.11,.34,4.52-.53,6.27-.97,1.96,.55,4.31-1.42,5.97-.41,.35-.06,1.6-.06,2.43,0,3.83,.02,7.66,0,11.5-.02,3.53,1.09,6.81,1.9,10.19,.47,1.96,1.43,3.84,1.21,6.07-.17,1.64,.61,3.37,.89,5.08,.26,1.55-.54,3.24,.95,4.65,.42,.39,.07,1.6,.06,2.43-.06,4.81,1.36,9.37,2.62,13.92,.45,1.63-.14,3.59,1.38,4.91-.68,2.59-1.22,5.62-3.54,6.96-7.8,4.52-14.58,10.45-22.09,15.36-2.4,1.57-4.21,3.96-6.66,5.65-4.46,3.06-8.61,6.57-12.95,9.82-8.54,6.4-8.64,6.32-13.95,14.07-1.38,2.01-2.66,3.85-4.93,4.88-.55,.25-.89,.96-1.25,1.36Zm-52.27-1.27c1.68-1.2,3.41-2.13,4.77-3.45,4.52-4.37,8.95-8.82,14.69-11.64,.28-.14,.5-.44,.71-.7,2.36-3.02,4.51-6.23,7.13-9.02,3.01-3.21,4.52-7.1,5.93-11.07,1.49-4.19,3.13-8.39,2.4-13-.24-1.54-.86-3.05-.94-4.59-.18-3.38-.03-6.72-.92-10.12-.71-2.73,.39-5.83-1.12-8.55,.71-7.57-1.46-15.02-.98-22.58,.05-.75,.4-1.49,.66-2.22,1.73-4.98,2-6.87,.1-11.45-1.91-4.62-.12-8.66,.98-13.05-1.64-1.94,.22-4.89-.95-6.78-1.53-2.46-.15-4.86-.66-6.33-1.24-2.41-2.09-4.07-3.16-6.14,0-.84,.13-2.18-.04-3.48-.16-1.22-.96-2.41-.9-3.59,.27-5.41-1.74-10.66-1.07-16.09,.06-.49,.19-1.21-.06-1.45-1.79-1.67-.57-3.78-.92-5.64-.39-2.02-1-3.95-1.13-6.07-.2-3.17,1.27-6.03,1.11-9.09-.46-8.52,1.04-17.1-.9-25.6-.51-2.22-.21-4.66-.04-6.98,.16-2.21,.83-4.38,.92-6.59,.16-3.99-.24-8.02,.12-11.99,.38-4.15-.98-8.03-1.14-12.09-.2-4.8-1.25-9.21-5.24-12.32-1.57-1.22-2.76-2.91-4.29-4.18-1.93-1.61-4.02-3.01-5.77-4.3-1.3-1.85-2.39-3.56-3.65-5.14-2.86-3.59-7.2-5.07-10.87-7.53-3.79-2.54-8.75-3.46-11.14-8.43-.64,.63-1.08,1.06-1.53,1.49-6.07,5.87-10.31,13.28-16.24,19.28-.99,1-1.76,2.24-2.47,3.47-.69,1.19-1.55,2.48-1.67,3.78-.25,2.81,.05,5.67-.12,8.49-.16,2.7-.65,5.39-.96,8.09-.21,1.88,.49,3.85-.93,5.65-.45,.58-.25,2.02,.13,2.85,1.74,3.71,2.54,7.28,.91,11.39-.84,2.11-.19,4.65-.93,7.09-.7,2.33-1.08,5.12-1.01,7.52,.22,6.93-1.39,13.7-1.2,20.59,.09,3.33,.02,6.66,.01,10,0,.48-.06,.96-.09,1.36-1.02,1.02-1.96,1.96-2.99,2.99,.3,2.83-.1,5.65-.85,8.51-.72,2.77,.29,5.66-.9,8.63-1.01,2.55-.36,5.63-1,8.55-1,4.55-.89,9.35-1.16,14.04-.12,2.16-.1,4.33,0,6.5,.11,2.38-.09,4.69,.82,7.14,1.03,2.77,.71,6.02,1.21,9.02,.29,1.76-1.06,2.98-1.05,4.59,.01,3.17-.28,6.36,.08,9.49,.39,3.34-1.07,6.35-1.11,9.59-.06,4.85,.72,9.48,1.87,14.21,.9,3.68,.1,7.69,1.06,11.57,.64,2.59,.48,5.36,.95,8.08,.99,5.71,2.54,10.94,6.46,15.38,1.52,1.73,2.55,3.91,3.68,5.95,.89,1.62,1.32,3.55,2.43,4.97,4.24,5.45,8.59,10.82,13.08,16.08,1.33,1.55,3.23,2.61,4.84,3.93,2.32,1.93,4.68,3.77,7.28,5.35,2.7,1.64,5.16,3.68,7.77,5.57Z"/>
  <path d="M1458.97,265.26c2.46,4.3,3.93,8.5,4.03,13.21,.05,2.37,.75,4.71,.91,7.09,.17,2.49-.45,5.13,.16,7.46,.8,3.05,1.37,6.12,2.09,9.15,.49,2.08,.59,4.08,.81,6.13,.13,1.21,.45,2.4,.78,4.11-1.77,3.15-3.09,6.94-2.84,11.24,.2,3.49-.04,7,.06,10.5,.2,6.56-1.44,12.99-1.1,19.59,.35,6.65,.08,13.33,.08,19.99s-.12,13.33,.06,19.99c.07,2.69-.51,5.35,.78,8.16,1.08,2.34-.57,5.45,1.11,8.05,.38,.59,.06,1.63,.06,2.46,0,4.5,.27,9.02-.08,13.49-.28,3.53-1.27,7.01-.89,10.59,.21,2.04,.63,4.06,.98,6.09,.35,2.03-.92,4.31,.97,6.11,.17,.16,0,.64,.03,.98,.33,4.69,.24,9.47,1.12,14.06,.78,4.06,.08,8.25,1.07,12.06,1.07,4.12,.45,8.11,.8,12.14,.37,4.36,.46,8.76,1.13,13.06,.23,1.5,.88,2.97,.93,4.6,.05,1.57-.42,3.1,.54,4.78,.72,1.27,.22,3.19,.43,4.81,.22,1.71,.74,3.38,.95,5.09,.19,1.57-.37,3.28,1.02,4.59,.08,.08,0,.32,.01,.49,.33,4.19,.61,8.39,1.02,12.58,.2,2.04,.61,4.07,.99,6.08,.35,1.86-.86,3.93,.93,5.65,.42,.4,.02,1.61,.07,2.44,.4,6.18,2.03,12.17,3.09,18.24,.38,2.19,1.66,4.36,2.97,6.23,3.53,5.07,4.95,10.99,6.83,16.67,1.17,3.52,3.06,6.49,5.19,9.34,2.73,3.66,5.26,7.4,7.42,11.44,1.09,2.05,1.84,4.06,1.34,6.87-1.19,.88-2.71,2.02-4.29,3.2-1.61,0-3.28-.13-4.92,.03-3.15,.31-5.95-.44-8.7-1.99-2.33-1.31-4.86-2.02-7.64-2.12-2.52-.09-5.02-.82-8.28-1.4-2.78-2.67-5.5-6.41-8.27-10.17-2.3-3.13-5.66-5.23-8.9-7.36-3.28-2.15-6.45-4.48-9.84-6.43-4.39-2.53-7.43-6.48-10.74-10.06-1.26-1.36-2.71-2.61-4.06-3.56-3-2.1-5.46-4.67-7.95-7.24-5.5-5.68-10.9-11.45-16.27-17.25-2.12-2.29-4.83-3.38-7.64-4.51-4.33-1.75-8.39-3.78-11.16-8.06-2.13-3.29-2.16-6.6-2.18-10.12,2.3-1.96,.29-4.86,1.72-7.32,1.09-1.87,.14-4.87,.31-7.35,.22-3.37,.77-6.72,.94-10.09,.17-3.32,.58-6.77-.07-9.98-1.74-8.69-.5-17.41-.85-26.1-.07-1.86-.45-3.76,.82-5.67,.62-.92,.17-2.95-.41-4.18-.95-2.02-.15-3.67-.37-6.31,.33,.21-.34-.22-.8-.51-.88-3.16,.79-5.57,1.13-8.16,.39-2.97,1.6-5.78,1.58-8.84-.03-9.16,.27-18.34-.1-27.49-.29-7.1,1.54-14.02,1.09-21.09,1.71-4.08,.69-8.39,1.03-12.58,.11-1.38,.77-2.71,.93-4.09,.17-1.48,.17-3.01,0-4.49-.25-2.24,.68-4.54-.64-6.73-1.17-1.94-.01-4.27-1.13-6.54-1.03-2.09-.52-4.95-1.04-7.52-.92-4.58-.87-9.35-1.16-14.05-.37-6.03-.09-12.16-1.2-18.05-.86-4.6-.44-9.09-.84-13.62-.18-2.04-.86-4.05-.93-6.09-.17-4.88,1.42-9.62,1.04-14.59-.37-4.8-.66-9.75,.1-14.46,.63-3.9,.7-7.73,.83-11.61,.02-.64-.11-1.42,.2-1.91,2.31-3.68,1.85-7.76,1.75-11.76-.04-1.54-.67-3.05-.94-4.59-.27-1.54,.56-3.24-.95-4.65-.42-.39-.07-1.6-.06-2.43,.02-3.11-.51-6-2.85-8.34-.5-.5-.62-1.39-1.12-2.6,.35-2.28-.82-5.27,.92-8.02,.25-.39-.09-1.24-.32-1.81-1.86-4.73-3.7-9.46-5.64-14.16-2.14-5.17-3.83-10.44-5.06-15.91-.77-3.44-2.21-6.74-3.43-10.06-.94-2.55-1.71-5.09-1.52-7.88,.15-2.16,.03-4.33,.03-6.46-1.75-3.07-5.24-3.36-7.93-4.66v-7.9c1.92-1.53,4.24-3.26,6.41-5.16,1.1-.96,2.43-1.54,3.25-3.04,1.07-1.96,3.19-3.02,5.28-3.96,2.89-1.3,5.33-3.3,7.86-5.22,4.72-3.57,9.11-7.55,13.82-11.14,2.79-2.13,5.52-4.63,7.36-7.86,.8-1.39,2.17-2.46,3.29-3.69h2.88c2.64-1.43,2.91-4.11,3.78-6.44-4.08-2.44-6.97-5.9-9.1-10.14-.84-1.68-2.2-3.15-3.5-4.54-2.28-2.43-4.76-4.67-7.03-7.11-2.39-2.57-5.23-4.65-6.55-8.29-.76-2.08-3.07-3.61-4.53-5.58-2.8-3.8-6.17-7.19-9.27-10.71-2.28-.53-4.41-1.03-6.74-1.57-.98-1.74-1.9-3.77-.83-6.82,1.54-1.23,3.7-2.91,5.81-4.65,5.95-4.88,9.71-11.3,12.71-18.23,1.59-3.68,3.22-7.3,4.23-11.28,.81-3.21,2.52-7,7.27-6.75,.34,.02,.71-.63,1.11-1,1.01,.35,2.02,.95,3.06,1,3.89,.21,6.02,2.6,7.31,5.84,1.93,4.83,2.09,5.66,5.52,7.03,1.87,.74,3.17,2.01,4.04,3.36,2.24,3.48,5,6.25,8.5,8.39,.83,.51,1.43,1.38,2.14,2.09,4.83,4.83,9.67,9.65,14.49,14.5,4.31,4.34,9.08,8.32,11.16,14.43,.3,2.14,.29,4.37-1.24,6.35h-3.91c-.38,.35-.81,.63-1.09,1.01-1.15,1.54-2.68,2.67-3.76,4.4-.87,1.38-2.39,2.41-2.98,4.23-.28,.85-1.22,1.71-2.07,2.1-4.84,2.24-7.06,7.03-10.45,10.66-.95,1.02-.86,2.95-1.52,4.33-1.32,2.78-1.66,6.16-4.83,7.61,1.16,.84,2.31,1.3,2.89,2.15,3.91,5.81,9.74,9.83,14.12,15.16,3.75,4.57,7.9,8.81,11.12,13.84,1.49,2.33,3.62,4.57,5.99,5.94,2.72,1.56,4.13,3.68,5.19,6.37,.4,1,1.08,1.9,1.67,2.9,.46,5.39-.3,10.7-2.77,15.7,.05,4.53-2.87,9.03-.17,13.6-.7,6.91,1.54,13.67,1,20.57-2.17,3.63-.4,7.82-1.82,11.74-1.22,3.37-.83,7.32-1.2,11.02-.09,.93-.44,1.85-.5,2.78-.14,2.23-.67,4.61-.07,6.65,.38,1.28,.54,2.5,.56,3.74,.06,5.83-.1,11.67,.07,17.5,.11,4.03,.13,8.19,1.14,12.04,.59,2.25,.59,4.41,.83,6.26Z"/>
  <path d="M1203.24,535.2c-4.35-1.05-8.41-3.49-11.61-7.07-2.9-3.25-6.65-5.25-10.55-5.86-3.69-.57-6.96-1.89-10.18-3.31-6-2.65-11.62-6.02-15.97-11.67,.4-3.43-.97-7.41,1.26-10.97,1.22-.35,2.39-.68,3.87-1.1,2.92,1.45,6.12,1.4,9.04-.86,4.81-3.72,9.94-7,14.37-11.24,3.24-3.1,6.89-5.77,10.45-8.52,2.78-2.15,6.22-2.95,9.53-3.44,3.48-.51,6.92-1.52,10.58-1.23,2.12,.17,4.26-1.01,6.58-.94,4.66,.13,9.08,1.6,13.65,2.17,1.41,.17,2.67,1.58,4.69,2.85,3.06-.33,6.7,.72,10.24,2.08,2.15,.83,4.25,1.85,6.25,3.01,2.03,1.18,3.9,2.62,5.78,3.91h4.21c.85-1.67,1.76-3.43,2.84-5.54-1.57-2.74-2.93-5.74-4.85-8.33-2.32-3.13-5.14-5.88-7.71-8.83-4.49-5.13-9.16-10.13-13.35-15.5-1.95-2.5-2.96-5.74-4.42-8.63-.98-1.93-1.97-3.85-3-5.76-1.66-3.07-.76-6.38-1.02-9.46,1-1.89,1.93-3.68,3.02-5.74,0-4.98,.69-10.42-.16-15.61-1.27-7.73,.11-15.5-1.01-23.08-1.03-6.91-.63-13.74-.79-20.61-.16-6.99,.23-14.01-.13-20.99-.23-4.55-1.03-9.15-2.23-13.56-.92-3.38-1.74-6.84-3.51-10.05-.95-1.72-1.36-4.12-1.26-6.49,.27-6.65,.18-13.33,.04-19.99-.05-2.31,.33-4.48,1.08-6.57,1.14-3.21,1.16-6.76,2.99-9.76,.73-1.18,1.36-2.43,1.97-3.68,1.07-2.2,.67-3.15,1.2-6.23,.36-2.12,.59-4.33,1.17-6.45,.38-1.37,.85-2.92,.56-4.22-.85-3.78-1.25-7.69-2.91-11.28-1.35-2.94-2.83-5.86-3.76-8.93-.94-3.12-2.5-5.96-3.41-9.11-1.01-3.5-3-6.77-4.89-9.94-2.48-4.17-5.52-8.02-7.87-12.26-1.58-2.85-4.06-4.7-6.22-6.88-2.29-2.31-4.27-4.76-5.59-7.71-1.15-2.57-2.17-5.16-4.17-7.31-.83-.9-.94-2.63-1.06-4-.17-1.98-.04-3.98,.1-5.89,.65-3.26,3.79-4.61,5.35-7.31,1.84-3.18,4.98-5.56,7.23-8.54,2.98-3.96,6.43-7.43,9.97-10.84,1.97-1.9,4.18-3.55,6.28-5.33,1.97-1.67,3.8-3.46,5.86-5.07,5-3.89,8.94-8.94,12.07-14.43,1.26-2.21,2.53-4.62,4.23-6.14,4.55-4.07,6.55-9.88,10.66-14.16,2.68-2.78,5.86-4.5,9.55-5.91,4.01-1.53,7.53-4.4,11.15-6.85,2.84-1.92,5.74-3.45,9.27-2.94,1.69,.24,3.41,.6,4.97,1.25,3.56,1.46,7.2,2.85,10.5,4.8,3.4,2.01,7.42,2.3,10.69,4.38,3.19,2.03,6.81,2.92,10.28,4.14,2.2,.78,4.59,1.22,6.93,1.35,9.68,.52,19.38,.87,29.55,1.31,2.02,1.51,2.87,3.91,3.52,6.94,.84,3.91,.62,7.68,.84,11.7h-6.91c-.74,1.57-1.22,3.29-2.22,4.62-5.34,7.13-11.3,13.61-19.88,16.89-2.73,1.04-5.49,2.05-8.42,2.64-6.01,1.22-11.99,2.22-18.18,1.99-6.32-.24-12.65-.05-19.2-.05v2.84c-1.18,1.39-2.01,2.38-3.1,3.67-1.1-.68-2.45-1.03-2.84-1.84-1.78-3.68-4.92-5.96-8.2-7.94-1.8-1.09-4.14-1.28-6.52-1.95-4.11,5.31-8.21,10.61-12.26,15.86,6.09,1.15,11.43,4.67,16.78,8.06,2.13,1.35,4.22,2.61,6.64,3.33,.72,.22,1.47,.66,1.98,1.21,2.01,2.17,4.44,3.06,7.37,2.77,1.15-.11,2.32-.02,2.86-.02,2.49,1.51,4.37,3.37,6.53,3.8,3.9,.78,6.56,3.53,9.9,5.13,1.96,.94,4.03,2.01,5.49,3.55,3.4,3.6,5.22,7.67,3.39,12.92-.96,2.75-1.04,5.82-2.2,8.6-.29,.71-.27,1.73,0,2.47,1.99,5.62,.57,11.4,.93,17.1,.18,2.82-.44,5.76,.13,8.48,1.31,6.35,.33,12.78,1.04,19.09,.55,4.89,1.33,9.78,1.87,14.68,2.51,2.56-.61,5.11,0,7.67-2.08,2.48-.83,5.4-.9,8.09-.07,2.54-.88,5.24,.64,7.69,.16,.25,.28,.6,.24,.89-.45,4.1,.59,8.06,1.22,12.3-1.96,.95-2.68,2.98-2.72,4.7-.09,3.51-3.21,6.91-.49,10.52-.4,3.02,.49,6.03-.89,9.13-1.89,4.27-1.62,7.64,.28,12.96,.4,1.13,.41,2.17,.61,3.24,.33,1.73-.71,3.56,.66,5.24,1.16,1.42-.43,3.45,1.02,5.09,1.14,1.29,.12,3.28,.96,5.08,1.09,2.35,1.29,5.27,1.24,7.93-.04,2.04,.91,3.69,1.15,5.58,.23,1.87-.96,4,.94,5.61,.16,.14,0,.64,.03,.97,.33,4.19,.65,8.39,1,12.58,.18,2.05,1.37,3.87,1.06,6.09-.28,2.03,.36,4.06,.75,6.11,.65,3.38,.04,6.97,.21,10.46,.25,5.36,1.46,10.67,.97,16.08,2.07,3.29,.6,7.15,1.82,10.73,1.2,3.5-.76,10.94-2.85,15.68-1.86,4.23-3.91,8.39-5.99,12.52-2.71,5.38-5.27,10.87-8.42,15.99-1.4,2.26-1.81,4.75-2.35,7.01-.85,3.55-2.85,6.31-4.72,9.05-2.98,4.38-6.74,8.23-10.12,12.34-.69,.84-1.13,1.88-1.79,2.75-3.86,5.05-8.01,9.78-13.32,13.44-2.79,1.92-5.14,4.47-7.76,6.65-4.08,3.38-8.33,6.56-12.31,10.06-4.8,4.22-10.86,5.19-16.63,6.96-2.37,.73-4.99,.98-7.08,2.17-3.14,1.8-6.38,1.89-9.78,1.82-8.81-4.4-16.49-10.47-24.41-16.84Z"/>
  <path d="M917.91,436.72c.63,3.87-.96,7.13-3.37,10.36-2.32,3.1-4,6.66-6.1,9.94-2.03,3.18-4.25,6.24-6.32,9.39-.5,.76-.89,1.64-1.15,2.52-1.23,4.14-4.09,7.32-6.23,10.93-2.51,4.25-4.57,8.76-6.79,13.17-5.86,11.7-11.7,23.4-17.72,35.46-.93-.79-1.7-1.34-2.34-2.01-5.79-6.09-11.51-12.24-17.35-18.29-2.02-2.09-4.22-3.97-6.54-5.79-4.68-3.67-7.89-8.84-9.89-14.31-1.71-4.7-4.44-8.56-7.18-12.52-1.18-1.71-2.54-3.29-3.89-5.02-.02-.2-.09-.52-.09-.83-.03-3.68,.28-7.29-1.89-10.74-1.11-1.77-1.4-4.18-1.16-6.52,.22-2.14-.08-4.34,.08-6.49,.2-2.7,.61-5.39,.97-8.08,.34-2.53-.93-5.26,.97-7.6,.16-.2,.12-.69,0-.98-1.98-4.75-.44-9.75-1.02-14.58-.61-5.12,.45-10.17,1.28-15.04,.95-5.61,.43-11.1,.71-16.62,.19-3.82-.08-7.67,.08-11.49,.11-2.54,.77-5.05,.92-7.59,.17-2.82,.04-5.66,.04-8.49,0-2.67,.13-5.34-.03-8-.19-3.04-.76-6.05-.93-9.09-.17-2.99,.64-6.2-.18-8.95-1.52-5.07-.59-10.1-.8-15.13-.22-5.16-.82-10.48,.14-15.46,1.36-7.08,.52-14.09,.76-21.12,.24-7.16,.12-14.33,0-21.49-.03-1.87-.63-3.72-.95-5.58-.29-1.71,.74-3.63-.94-5.13-.25-.23-.03-.95-.07-1.45-.33-5.03-.71-10.05-.97-15.08-.1-1.92-1.41-3.51-1.11-5.59,.24-1.67,.16-3.37-.76-5.15-.75-1.44-.15-3.59-.15-4.74-1.82-4.59-3.62-8.53-4.96-12.62-2.61-7.99-4.55-11.68-9.28-17.66-2.44-3.08-4.92-6.25-6.63-9.75-1.51-3.09-3.92-4.37-6.79-5.7-.45-1.29-1.96-2.56-1.3-4.23,.97-2.45,.91-5.19,2.4-7.51,4.68-7.24,9.68-14.22,15.57-20.54,.89-3.07,3.99-4.44,5.43-7.24,1.3-2.54,4.12-4.03,6.75-5.18,2.16-.95,3.67-2.54,5.32-4.06,3.61-3.32,7.18-6.69,10.91-9.88,3.98-3.41,6.22-8.16,9.57-12.05,1.16-1.35,2.24-2.77,3.29-4.06h6.49c1.01,1.4,2.13,2.95,3.28,4.53-.75,6.13,2.2,11.12,5.76,15.51,1.99,2.45,3.2,5.09,4.07,7.85,.59,1.88,1.35,3.42,2.44,5.02,1.48,2.16,2.5,4.63,3.91,7.35,5.57-4.88,10.6-9.9,16.28-14.03,3.27-2.37,5.53-5.85,9.27-7.66,1.27-.61,2.19-1.62,3.84-1.7,1.09-.05,2.05-1.41,3.19-1.84,2.31-.87,4.44-3.47,7.24-1.04,4.05,.06,7.98,1.1,12.08,1.16,4.22,.06,8.48,.85,12.7,1.71,4.57,.93,9.43,1.46,14.04,.97,5.87-.62,11.77-1.58,17.47-3.53,3.64-1.25,7.6-1.48,11.18-3.2,1.08-.52,2.79-.5,3.92-.03,3.97,1.64,8.08,.55,12.15,1.01,.65,.65,1.36,1.36,2.07,2.07,.46,1.48,.91,2.96,1.38,4.48-.83,3.55-3.46,6.07-6.19,7.81-5.39,3.43-8.3,8.73-11.84,13.6-2.82,3.88-4.91,8.33-8.89,11.1q.18,2.46,1.88,4.35v3.07c-.2,.18-.41,.47-.69,.62-3.57,1.82-6.84,4.29-10.94,4.98-.9,.15-1.75,.74-2.65,.81-2.39,.18-4.75-.05-7.13,.9-1.07,.43-2.37,.87-3.54,1.03-1.13,.15-2.36-.73-3.58-.85-1.09-.11-2.29,0-3.33,.36-3.54,1.21-7.15,.33-10.72,.51-1.09-1.55-2.72-.78-4.12-.9-1.32-.11-2.66-.02-4-.03-3.56-.03-7.1,.17-10.59-.96-6.02-1.96-12.11-3.71-18.48-5.64-2.44,1.21-5.31,2.63-8.17,4.05,1.31,4.27,2.58,8.56,3.96,12.81,1.04,3.23,2.22,6.41,3.35,9.61,.15,.43,.56,.81,.61,1.24,.37,3.52,.64,7.06,1.04,10.58,.22,1.87,.74,3.71,.95,5.59,.21,1.89-.42,3.92,1.03,5.58-.76,6.25,1.97,12.49,.81,18.54-1.27,6.6-.33,13.1-.78,19.62-.07,1.07-.22,2.15,.58,3.27,.57,.79,.59,2.26,.33,3.3-1.14,4.67-1.4,9.46-2.18,14.14-.6,3.59-.44,7.09-.77,10.62-.24,2.54,.74,5.22-.96,7.61-.24,.33-.22,1.08,0,1.46,1.19,2.09,1.24,4.4,.89,6.59-.38,2.41,1.26,4.32,1.08,6.6-.02,.32-.1,.76,.07,.96,3.24,3.85,1.59,8.44,1.85,12.71,.09,1.5-.29,3.21-1,4.54-1.23,2.33-.84,4.72-.94,7.12-.09,2.29,.34,4.78-.43,6.82-.87,2.33-.35,4.52-.53,6.76-.18,2.32,.57,4.89-.18,6.94-1.22,3.32-.09,6.01,.96,8.88,.11,.29,.17,.61,.18,.92,.01,2.17-.12,4.34,.05,6.49,.15,1.88,1.06,3.77,.88,5.58-.64,6.41,1.43,12.31,3.21,18.21,1.58,5.24,2.83,10.51,4,15.85,1.07,4.91,1.28,9.96,2.77,14.81,.88,2.86,.56,6.06,1.14,9.04,1.02,5.22,1.75,10.61,6.11,14.48,.78,.69,1.15,1.85,1.81,2.95Z"/>
</svg>